<?xml version="1.0" encoding="utf-8"?>
<!-- Generator: Adobe Illustrator 17.1.0, SVG Export Plug-In . SVG Version: 6.00 Build 0)  -->
<!DOCTYPE svg PUBLIC "-//W3C//DTD SVG 1.1//EN" "http://www.w3.org/Graphics/SVG/1.1/DTD/svg11.dtd">
<svg version="1.1" id="Capa_1" xmlns="http://www.w3.org/2000/svg" xmlns:xlink="http://www.w3.org/1999/xlink" x="0px" y="0px"
	 viewBox="0 0 661.3 231.1" enable-background="new 0 0 661.3 231.1" xml:space="preserve">
<g>
	<g>
		<g opacity="0.3">
			<circle cx="70.6" cy="47.6" r="45.4"/>
		</g>
		<g>
			<circle fill="#F4005D" cx="69.5" cy="45.4" r="45.4"/>
		</g>
	</g>
	<g>
		<polygon fill="#999999" points="651.7,231.1 0,231.1 0,66.1 651.7,66.1 545.3,148.6 		"/>
		<polygon fill="#F4005D" points="661.3,227.1 0,227.1 0,62.1 661.3,62.1 553.3,144.6 		"/>
	</g>
	<g>
		<g>
			<path fill="#FFFFFF" d="M89.8,112c2.7,0.1,4.6,0.7,5.9,2c1.3,1.3,7.3,7.1,18,17.5c10.6-10.3,16.5-16.1,17.9-17.4
				c1.3-1.3,3.3-2,5.9-2c5.3,0,7.9,2.6,7.9,7.7l0,46.4c0,5.1-2.7,7.7-8,7.8c-5.2,0-7.9-2.6-8-7.8v-27.3c-5.3,5.3-8.6,8.7-9.9,10
				s-3.3,2-5.9,2c-2.5,0-4.5-0.7-5.9-2c-1.4-1.3-4.7-4.6-10-9.7V166c0,5.1-2.7,7.7-7.9,7.7c-5.3,0-8-2.6-7.9-7.7v-46.4
				C81.9,114.5,84.5,112,89.8,112z"/>
			<path fill="#FFFFFF" d="M180.4,112c5.3,0,10.6,1.3,15.6,4c5.1,2.7,9,6.5,11.9,11.4c2.9,5,4.3,10.1,4.3,15.5
				c0,5.4-1.4,10.5-4.2,15.4c-2.8,4.9-6.7,8.7-11.8,11.4c-5.1,2.7-10.4,4.1-15.9,4.1c-5.5,0-10.7-1.4-15.8-4.1
				c-5.1-2.7-9-6.5-11.8-11.4c-2.8-4.9-4.2-10-4.2-15.4c0-5.4,1.4-10.6,4.2-15.5c2.8-5,6.8-8.8,11.9-11.4
				C169.8,113.3,175,112,180.4,112z M172.6,129.3c-2.5,1.3-4.5,3.2-5.9,5.7s-2.1,5.1-2.1,7.8c0,2.7,0.7,5.2,2.1,7.7s3.4,4.4,5.9,5.7
				c2.5,1.4,5.2,2,7.9,2c2.8,0,5.4-0.7,7.9-2c2.5-1.4,4.5-3.3,5.9-5.7s2.1-5,2.1-7.7c0-2.7-0.7-5.3-2.1-7.8s-3.4-4.4-6-5.7
				c-2.5-1.3-5.1-2-7.8-2C177.7,127.4,175.1,128,172.6,129.3z"/>
			<path fill="#FFFFFF" d="M247.2,112c5.3,0,10.6,1.3,15.6,4c5.1,2.7,9,6.5,11.9,11.4c2.9,5,4.3,10.1,4.3,15.5
				c0,5.4-1.4,10.5-4.2,15.4c-2.8,4.9-6.7,8.7-11.8,11.4c-5.1,2.7-10.4,4.1-15.9,4.1c-5.5,0-10.7-1.4-15.8-4.1
				c-5.1-2.7-9-6.5-11.8-11.4c-2.8-4.9-4.2-10-4.2-15.4c0-5.4,1.4-10.6,4.2-15.5c2.8-5,6.8-8.8,11.9-11.4
				C236.6,113.3,241.8,112,247.2,112z M239.4,129.3c-2.5,1.3-4.5,3.2-5.9,5.7s-2.1,5.1-2.1,7.8c0,2.7,0.7,5.2,2.1,7.7
				s3.4,4.4,5.9,5.7c2.5,1.4,5.2,2,7.9,2c2.8,0,5.4-0.7,7.9-2c2.5-1.4,4.5-3.3,5.9-5.7s2.1-5,2.1-7.7c0-2.7-0.7-5.3-2.1-7.8
				s-3.4-4.4-6-5.7c-2.5-1.3-5.1-2-7.8-2C244.6,127.4,241.9,128,239.4,129.3z"/>
			<path fill="#FFFFFF" d="M290.2,112H314c21.2,0,31.8,10.3,31.8,30.9c0,20.5-10.4,30.8-31,30.9h-24.7c-5.3,0.1-7.9-2.5-7.9-7.7
				v-46.3C282.3,114.6,284.9,112,290.2,112z M298.2,127.5v30.8h15.9c10.5,0.1,15.8-5.1,15.7-15.5c0.1-10.2-5.2-15.3-15.8-15.3H298.2
				z"/>
			<path fill="#FFFFFF" d="M404.8,119.7c0,5.2-2.6,7.7-7.7,7.8l-24.2,0c-5.3,0.1-8,1.4-8.1,3.9c0.1,2.4,2.8,3.7,8.1,3.6h7.8
				c16,0.1,24,6.6,24.1,19.6c0,12.7-8,19-24,19.1H357c-5.3,0-7.9-2.6-7.9-7.6c0-5.1,2.6-7.7,7.8-7.6l23.9-0.1c5.3,0,8-1.4,8-4
				s-2.7-3.9-8.1-3.9h-7.8c-15.9,0-23.9-6.4-23.9-19.1c-0.1-12.9,7.8-19.4,23.9-19.4h23.9C402.1,112,404.7,114.6,404.8,119.7z"/>
			<path fill="#FFFFFF" d="M415.9,111.8c2.6,0,4.6,0.6,6,1.9c1.3,1.3,6,6.6,14.1,16.2c8.2-9.7,13-15.1,14.3-16.4s3.3-1.9,6-1.9
				c2.6,0,4.6,0.7,6,2s2,3.3,2,5.9c0,2.7-1.4,5.3-4.2,7.7l-16.2,18.5l0,20.5c-0.1,5-2.8,7.6-8,7.7c-5.2,0.1-7.9-2.5-7.9-7.9
				l-0.1-20.4l-15.6-18.2c-2.8-2.4-4.2-5-4.2-7.7c-0.1-2.6,0.6-4.6,2-5.9C411.3,112.5,413.3,111.8,415.9,111.8z"/>
		</g>
		<g>
			<path fill="#FFFFFF" d="M190.5,201.6h-0.9c-0.2,0-0.4,0-0.5-0.1c-0.1-0.1-0.2-0.2-0.2-0.4l-0.2-1.1c-0.3,0.3-0.6,0.5-0.9,0.7
				c-0.3,0.2-0.6,0.4-0.9,0.5c-0.3,0.1-0.7,0.3-1,0.3s-0.8,0.1-1.2,0.1c-0.4,0-0.9-0.1-1.2-0.2c-0.4-0.1-0.7-0.3-1-0.6
				c-0.3-0.2-0.5-0.6-0.7-0.9c-0.2-0.4-0.3-0.8-0.3-1.4c0-0.5,0.1-0.9,0.4-1.3s0.7-0.8,1.2-1.1c0.6-0.3,1.3-0.6,2.2-0.8
				c0.9-0.2,2-0.3,3.3-0.3v-0.9c0-0.9-0.2-1.6-0.6-2s-0.9-0.7-1.7-0.7c-0.5,0-0.9,0.1-1.2,0.2c-0.3,0.1-0.6,0.3-0.9,0.4
				s-0.5,0.3-0.6,0.4c-0.2,0.1-0.4,0.2-0.5,0.2c-0.1,0-0.3,0-0.4-0.1c-0.1-0.1-0.2-0.2-0.2-0.3l-0.4-0.6c0.6-0.6,1.3-1.1,2-1.4
				c0.7-0.3,1.5-0.5,2.4-0.5c0.6,0,1.2,0.1,1.7,0.3c0.5,0.2,0.9,0.5,1.3,0.9c0.3,0.4,0.6,0.8,0.8,1.4c0.2,0.5,0.3,1.1,0.3,1.8V201.6
				z M185.3,200.4c0.4,0,0.7,0,1-0.1s0.6-0.2,0.8-0.3s0.5-0.3,0.7-0.5s0.5-0.4,0.7-0.6v-2.4c-0.9,0-1.7,0.1-2.4,0.2
				s-1.2,0.3-1.6,0.5c-0.4,0.2-0.7,0.4-0.9,0.7c-0.2,0.3-0.3,0.5-0.3,0.9c0,0.3,0,0.6,0.1,0.8c0.1,0.2,0.2,0.4,0.4,0.5
				c0.2,0.1,0.4,0.2,0.6,0.3C184.8,200.4,185,200.4,185.3,200.4z"/>
			<path fill="#FFFFFF" d="M195.8,185v16.7h-2V185H195.8z"/>
			<path fill="#FFFFFF" d="M201.6,185v16.7h-2V185H201.6z"/>
			<path fill="#FFFFFF" d="M217.9,201.6H217c-0.2,0-0.4,0-0.5-0.1c-0.1-0.1-0.2-0.2-0.2-0.4l-0.2-1.1c-0.3,0.3-0.6,0.5-0.9,0.7
				c-0.3,0.2-0.6,0.4-0.9,0.5c-0.3,0.1-0.7,0.3-1,0.3s-0.8,0.1-1.2,0.1c-0.4,0-0.9-0.1-1.2-0.2c-0.4-0.1-0.7-0.3-1-0.6
				c-0.3-0.2-0.5-0.6-0.7-0.9c-0.2-0.4-0.3-0.8-0.3-1.4c0-0.5,0.1-0.9,0.4-1.3s0.7-0.8,1.2-1.1c0.6-0.3,1.3-0.6,2.2-0.8
				c0.9-0.2,2-0.3,3.3-0.3v-0.9c0-0.9-0.2-1.6-0.6-2s-0.9-0.7-1.7-0.7c-0.5,0-0.9,0.1-1.2,0.2c-0.3,0.1-0.6,0.3-0.9,0.4
				s-0.5,0.3-0.6,0.4c-0.2,0.1-0.4,0.2-0.5,0.2c-0.1,0-0.3,0-0.4-0.1c-0.1-0.1-0.2-0.2-0.2-0.3l-0.4-0.6c0.6-0.6,1.3-1.1,2-1.4
				c0.7-0.3,1.5-0.5,2.4-0.5c0.6,0,1.2,0.1,1.7,0.3c0.5,0.2,0.9,0.5,1.3,0.9c0.3,0.4,0.6,0.8,0.8,1.4c0.2,0.5,0.3,1.1,0.3,1.8V201.6
				z M212.7,200.4c0.4,0,0.7,0,1-0.1s0.6-0.2,0.8-0.3s0.5-0.3,0.7-0.5s0.5-0.4,0.7-0.6v-2.4c-0.9,0-1.7,0.1-2.4,0.2
				s-1.2,0.3-1.6,0.5c-0.4,0.2-0.7,0.4-0.9,0.7c-0.2,0.3-0.3,0.5-0.3,0.9c0,0.3,0,0.6,0.1,0.8c0.1,0.2,0.2,0.4,0.4,0.5
				c0.2,0.1,0.4,0.2,0.6,0.3C212.2,200.4,212.4,200.4,212.7,200.4z"/>
			<path fill="#FFFFFF" d="M221.1,201.6V185h2v6.9c0.5-0.5,1-1,1.6-1.3c0.6-0.3,1.3-0.5,2.1-0.5c0.7,0,1.3,0.1,1.8,0.4
				c0.5,0.2,1,0.6,1.4,1.1c0.4,0.5,0.7,1.1,0.9,1.8c0.2,0.7,0.3,1.6,0.3,2.5c0,0.8-0.1,1.6-0.3,2.4c-0.2,0.7-0.6,1.4-1,1.9
				s-0.9,0.9-1.6,1.3s-1.3,0.5-2.1,0.5c-0.7,0-1.4-0.1-1.9-0.4c-0.5-0.3-1-0.7-1.4-1.2l-0.1,1c-0.1,0.3-0.2,0.4-0.5,0.4H221.1z
				 M226.2,191.6c-0.7,0-1.2,0.2-1.7,0.5c-0.5,0.3-0.9,0.7-1.4,1.3v5.5c0.4,0.5,0.8,0.8,1.2,1.1c0.4,0.2,0.9,0.3,1.5,0.3
				c1.1,0,1.9-0.4,2.5-1.1c0.6-0.8,0.9-1.8,0.9-3.3c0-0.7-0.1-1.4-0.2-1.9s-0.3-1-0.6-1.3c-0.2-0.3-0.6-0.6-0.9-0.8
				C227,191.7,226.6,191.6,226.2,191.6z"/>
			<path fill="#FFFFFF" d="M238.3,190c0.8,0,1.6,0.1,2.3,0.4c0.7,0.3,1.2,0.7,1.7,1.2c0.5,0.5,0.8,1.1,1.1,1.9
				c0.3,0.7,0.4,1.5,0.4,2.4c0,0.9-0.1,1.7-0.4,2.4c-0.3,0.7-0.6,1.3-1.1,1.9c-0.5,0.5-1,0.9-1.7,1.2c-0.7,0.3-1.4,0.4-2.3,0.4
				s-1.6-0.1-2.3-0.4c-0.7-0.3-1.2-0.7-1.7-1.2c-0.5-0.5-0.8-1.1-1.1-1.9c-0.3-0.7-0.4-1.5-0.4-2.4c0-0.9,0.1-1.7,0.4-2.4
				c0.3-0.7,0.6-1.3,1.1-1.9c0.5-0.5,1-0.9,1.7-1.2C236.7,190.1,237.4,190,238.3,190z M238.3,200.2c1.1,0,2-0.4,2.5-1.1
				c0.6-0.8,0.8-1.8,0.8-3.2c0-1.4-0.3-2.4-0.8-3.2c-0.6-0.8-1.4-1.1-2.5-1.1c-0.6,0-1.1,0.1-1.5,0.3c-0.4,0.2-0.8,0.5-1.1,0.8
				c-0.3,0.4-0.5,0.8-0.6,1.4s-0.2,1.1-0.2,1.8c0,0.7,0.1,1.3,0.2,1.8c0.1,0.5,0.4,1,0.6,1.4c0.3,0.4,0.6,0.6,1.1,0.8
				C237.2,200.1,237.7,200.2,238.3,200.2z"/>
			<path fill="#FFFFFF" d="M247.9,190.2v7.3c0,0.9,0.2,1.5,0.6,2c0.4,0.5,1,0.7,1.8,0.7c0.6,0,1.1-0.1,1.7-0.4
				c0.5-0.3,1-0.7,1.4-1.2v-8.4h2v11.5h-1.2c-0.3,0-0.5-0.1-0.5-0.4l-0.2-1.2c-0.5,0.6-1.1,1-1.7,1.3c-0.6,0.3-1.3,0.5-2.1,0.5
				c-0.6,0-1.2-0.1-1.7-0.3c-0.5-0.2-0.9-0.5-1.2-0.9s-0.6-0.8-0.7-1.4c-0.2-0.5-0.2-1.1-0.2-1.8v-7.3H247.9z"/>
			<path fill="#FFFFFF" d="M262.2,201.8c-0.9,0-1.6-0.3-2.1-0.8c-0.5-0.5-0.7-1.2-0.7-2.2v-7H258c-0.1,0-0.2,0-0.3-0.1
				c-0.1-0.1-0.1-0.2-0.1-0.3v-0.8l1.9-0.2l0.5-3.5c0-0.1,0.1-0.2,0.1-0.3c0.1-0.1,0.2-0.1,0.3-0.1h1v3.9h3.3v1.5h-3.3v6.9
				c0,0.5,0.1,0.8,0.4,1.1c0.2,0.2,0.5,0.4,0.9,0.4c0.2,0,0.4,0,0.5-0.1s0.3-0.1,0.4-0.2c0.1-0.1,0.2-0.1,0.3-0.2
				c0.1-0.1,0.1-0.1,0.2-0.1c0.1,0,0.2,0.1,0.3,0.2l0.6,1c-0.3,0.3-0.8,0.6-1.3,0.8S262.8,201.8,262.2,201.8z"/>
			<path fill="#FFFFFF" d="M276.1,190c0.7,0,1.3,0.1,1.9,0.3c0.6,0.2,1.1,0.6,1.5,1c0.4,0.4,0.8,1,1,1.6c0.2,0.6,0.4,1.4,0.4,2.2
				c0,0.3,0,0.5-0.1,0.6c-0.1,0.1-0.2,0.2-0.4,0.2h-7.6c0,0.7,0.1,1.4,0.3,1.9c0.2,0.5,0.4,1,0.7,1.3c0.3,0.4,0.7,0.6,1.1,0.8
				c0.4,0.2,0.9,0.3,1.5,0.3c0.5,0,0.9-0.1,1.3-0.2c0.4-0.1,0.7-0.2,0.9-0.4s0.5-0.3,0.7-0.4c0.2-0.1,0.3-0.2,0.5-0.2
				c0.2,0,0.3,0.1,0.4,0.2l0.6,0.7c-0.2,0.3-0.5,0.6-0.9,0.8c-0.3,0.2-0.7,0.4-1.1,0.5s-0.8,0.3-1.2,0.3c-0.4,0.1-0.8,0.1-1.3,0.1
				c-0.8,0-1.5-0.1-2.2-0.4c-0.7-0.3-1.2-0.7-1.7-1.2s-0.9-1.2-1.1-1.9c-0.3-0.8-0.4-1.6-0.4-2.6c0-0.8,0.1-1.5,0.4-2.2
				s0.6-1.3,1.1-1.8c0.5-0.5,1-0.9,1.7-1.2C274.5,190.1,275.3,190,276.1,190z M276.1,191.5c-1,0-1.7,0.3-2.3,0.8
				c-0.6,0.6-0.9,1.3-1,2.3h6.2c0-0.5-0.1-0.9-0.2-1.3c-0.1-0.4-0.3-0.7-0.6-1c-0.2-0.3-0.6-0.5-0.9-0.7
				C277,191.6,276.6,191.5,276.1,191.5z"/>
			<path fill="#FFFFFF" d="M283.4,201.6v-11.5h1.2c0.3,0,0.5,0.1,0.5,0.4l0.1,1.2c0.4-0.5,0.9-0.9,1.4-1.3c0.5-0.3,1.1-0.5,1.8-0.5
				c0.8,0,1.4,0.2,1.9,0.6s0.8,1,1,1.7c0.2-0.4,0.4-0.8,0.6-1.1c0.3-0.3,0.6-0.5,0.9-0.7c0.3-0.2,0.7-0.3,1-0.4
				c0.4-0.1,0.7-0.1,1.1-0.1c0.6,0,1.1,0.1,1.6,0.3c0.5,0.2,0.9,0.5,1.2,0.8s0.6,0.8,0.8,1.4s0.3,1.2,0.3,1.8v7.3h-2v-7.3
				c0-0.9-0.2-1.6-0.6-2c-0.4-0.5-1-0.7-1.7-0.7c-0.3,0-0.6,0.1-0.9,0.2c-0.3,0.1-0.6,0.3-0.8,0.5c-0.2,0.2-0.4,0.5-0.5,0.9
				s-0.2,0.7-0.2,1.2v7.3h-2v-7.3c0-0.9-0.2-1.6-0.6-2.1s-0.9-0.7-1.6-0.7c-0.5,0-1,0.1-1.4,0.4s-0.8,0.6-1.2,1.1v8.5H283.4z"/>
			<path fill="#FFFFFF" d="M306.6,190c0.8,0,1.6,0.1,2.3,0.4c0.7,0.3,1.2,0.7,1.7,1.2c0.5,0.5,0.8,1.1,1.1,1.9
				c0.3,0.7,0.4,1.5,0.4,2.4c0,0.9-0.1,1.7-0.4,2.4c-0.3,0.7-0.6,1.3-1.1,1.9c-0.5,0.5-1,0.9-1.7,1.2c-0.7,0.3-1.4,0.4-2.3,0.4
				s-1.6-0.1-2.3-0.4c-0.7-0.3-1.2-0.7-1.7-1.2c-0.5-0.5-0.8-1.1-1.1-1.9c-0.3-0.7-0.4-1.5-0.4-2.4c0-0.9,0.1-1.7,0.4-2.4
				c0.3-0.7,0.6-1.3,1.1-1.9c0.5-0.5,1-0.9,1.7-1.2C305,190.1,305.8,190,306.6,190z M306.6,200.2c1.1,0,2-0.4,2.5-1.1
				c0.6-0.8,0.8-1.8,0.8-3.2c0-1.4-0.3-2.4-0.8-3.2c-0.6-0.8-1.4-1.1-2.5-1.1c-0.6,0-1.1,0.1-1.5,0.3c-0.4,0.2-0.8,0.5-1.1,0.8
				c-0.3,0.4-0.5,0.8-0.6,1.4s-0.2,1.1-0.2,1.8c0,0.7,0.1,1.3,0.2,1.8c0.1,0.5,0.4,1,0.6,1.4c0.3,0.4,0.6,0.6,1.1,0.8
				C305.5,200.1,306,200.2,306.6,200.2z"/>
			<path fill="#FFFFFF" d="M318,201.8c-0.9,0-1.6-0.3-2.1-0.8c-0.5-0.5-0.7-1.2-0.7-2.2v-7h-1.4c-0.1,0-0.2,0-0.3-0.1
				c-0.1-0.1-0.1-0.2-0.1-0.3v-0.8l1.9-0.2l0.5-3.5c0-0.1,0.1-0.2,0.1-0.3c0.1-0.1,0.2-0.1,0.3-0.1h1v3.9h3.3v1.5h-3.3v6.9
				c0,0.5,0.1,0.8,0.4,1.1c0.2,0.2,0.5,0.4,0.9,0.4c0.2,0,0.4,0,0.5-0.1s0.3-0.1,0.4-0.2c0.1-0.1,0.2-0.1,0.3-0.2
				c0.1-0.1,0.1-0.1,0.2-0.1c0.1,0,0.2,0.1,0.3,0.2l0.6,1c-0.3,0.3-0.8,0.6-1.3,0.8S318.5,201.8,318,201.8z"/>
			<path fill="#FFFFFF" d="M325.7,186.6c0,0.2,0,0.4-0.1,0.5c-0.1,0.2-0.2,0.3-0.3,0.5c-0.1,0.1-0.3,0.2-0.5,0.3
				c-0.2,0.1-0.4,0.1-0.6,0.1c-0.2,0-0.4,0-0.5-0.1c-0.2-0.1-0.3-0.2-0.5-0.3c-0.1-0.1-0.2-0.3-0.3-0.5c-0.1-0.2-0.1-0.4-0.1-0.5
				s0-0.4,0.1-0.6c0.1-0.2,0.2-0.3,0.3-0.5s0.3-0.2,0.5-0.3c0.2-0.1,0.4-0.1,0.5-0.1c0.2,0,0.4,0,0.6,0.1c0.2,0.1,0.3,0.2,0.5,0.3
				s0.2,0.3,0.3,0.5C325.6,186.2,325.7,186.4,325.7,186.6z M325.2,190.2v11.5h-2v-11.5H325.2z"/>
			<path fill="#FFFFFF" d="M333.4,190c0.8,0,1.6,0.1,2.3,0.4c0.7,0.3,1.2,0.7,1.7,1.2c0.5,0.5,0.8,1.1,1.1,1.9
				c0.3,0.7,0.4,1.5,0.4,2.4c0,0.9-0.1,1.7-0.4,2.4c-0.3,0.7-0.6,1.3-1.1,1.9c-0.5,0.5-1,0.9-1.7,1.2c-0.7,0.3-1.4,0.4-2.3,0.4
				s-1.6-0.1-2.3-0.4c-0.7-0.3-1.2-0.7-1.7-1.2c-0.5-0.5-0.8-1.1-1.1-1.9c-0.3-0.7-0.4-1.5-0.4-2.4c0-0.9,0.1-1.7,0.4-2.4
				c0.3-0.7,0.6-1.3,1.1-1.9c0.5-0.5,1-0.9,1.7-1.2C331.8,190.1,332.6,190,333.4,190z M333.4,200.2c1.1,0,2-0.4,2.5-1.1
				c0.6-0.8,0.8-1.8,0.8-3.2c0-1.4-0.3-2.4-0.8-3.2c-0.6-0.8-1.4-1.1-2.5-1.1c-0.6,0-1.1,0.1-1.5,0.3c-0.4,0.2-0.8,0.5-1.1,0.8
				c-0.3,0.4-0.5,0.8-0.6,1.4s-0.2,1.1-0.2,1.8c0,0.7,0.1,1.3,0.2,1.8c0.1,0.5,0.4,1,0.6,1.4c0.3,0.4,0.6,0.6,1.1,0.8
				C332.3,200.1,332.8,200.2,333.4,200.2z"/>
			<path fill="#FFFFFF" d="M341.3,201.6v-11.5h1.2c0.3,0,0.5,0.1,0.5,0.4l0.2,1.2c0.5-0.5,1.1-1,1.7-1.3c0.6-0.3,1.3-0.5,2.1-0.5
				c0.6,0,1.2,0.1,1.7,0.3c0.5,0.2,0.9,0.5,1.2,0.9s0.6,0.8,0.7,1.4c0.2,0.5,0.2,1.1,0.2,1.8v7.3h-2v-7.3c0-0.9-0.2-1.5-0.6-2
				c-0.4-0.5-1-0.7-1.8-0.7c-0.6,0-1.2,0.1-1.7,0.4c-0.5,0.3-1,0.7-1.4,1.2v8.4H341.3z"/>
			<path fill="#FFFFFF" d="M360.5,192.1c-0.1,0.2-0.2,0.2-0.4,0.2c-0.1,0-0.2,0-0.4-0.1c-0.1-0.1-0.3-0.2-0.5-0.3
				c-0.2-0.1-0.5-0.2-0.7-0.3c-0.3-0.1-0.6-0.1-1-0.1c-0.3,0-0.6,0-0.9,0.1c-0.3,0.1-0.5,0.2-0.7,0.4s-0.3,0.3-0.4,0.5
				c-0.1,0.2-0.2,0.4-0.2,0.7c0,0.3,0.1,0.5,0.3,0.7c0.2,0.2,0.4,0.4,0.7,0.5c0.3,0.1,0.6,0.3,1,0.4c0.4,0.1,0.7,0.2,1.1,0.4
				c0.4,0.1,0.7,0.3,1.1,0.4s0.7,0.3,1,0.6c0.3,0.2,0.5,0.5,0.7,0.8c0.2,0.3,0.3,0.7,0.3,1.2c0,0.5-0.1,1-0.3,1.5s-0.5,0.8-0.8,1.2
				c-0.4,0.3-0.8,0.6-1.4,0.8c-0.5,0.2-1.2,0.3-1.9,0.3c-0.8,0-1.5-0.1-2.2-0.4c-0.6-0.3-1.2-0.6-1.7-1l0.5-0.8
				c0.1-0.1,0.1-0.2,0.2-0.2s0.2-0.1,0.3-0.1s0.3,0.1,0.4,0.2c0.2,0.1,0.3,0.2,0.5,0.4s0.5,0.2,0.8,0.4c0.3,0.1,0.7,0.2,1.1,0.2
				c0.4,0,0.7-0.1,1-0.2s0.5-0.2,0.7-0.4c0.2-0.2,0.3-0.4,0.4-0.6c0.1-0.2,0.1-0.5,0.1-0.7c0-0.3-0.1-0.6-0.3-0.8
				c-0.2-0.2-0.4-0.4-0.7-0.5c-0.3-0.1-0.6-0.3-1-0.4s-0.7-0.2-1.1-0.3c-0.4-0.1-0.7-0.3-1.1-0.4c-0.4-0.2-0.7-0.3-1-0.6
				c-0.3-0.2-0.5-0.5-0.7-0.9c-0.2-0.3-0.3-0.8-0.3-1.2c0-0.4,0.1-0.9,0.3-1.3c0.2-0.4,0.4-0.8,0.8-1.1s0.8-0.5,1.3-0.7
				s1.1-0.3,1.7-0.3c0.8,0,1.4,0.1,2,0.4c0.6,0.2,1.1,0.6,1.6,1L360.5,192.1z"/>
		</g>
	</g>
	<path fill="#FFFFFF" d="M68.2,12.6l-0.1-0.2c-0.1-0.2-0.3-0.3-0.5-0.2l-4.7,1.8c-0.2,0.1-0.3,0.3-0.2,0.5l0,0.1l-15.4,5.8
		c-2.8,1.1-4.3,4.2-3.2,7.1l1.4,3.8l-0.2,0.1c-0.2,0.1-0.3,0.3-0.2,0.5l0.8,2.1c0.1,0.2,0.3,0.3,0.5,0.2l0.2-0.1l1.4,3.6l-0.2,0.1
		c-0.2,0.1-0.3,0.3-0.2,0.5l0.5,1.3c0.1,0.2,0.3,0.3,0.5,0.2l0.2-0.1l1.2,3.2l-0.2,0.1c-0.2,0.1-0.3,0.3-0.2,0.5l0.5,1.3
		c0.1,0.2,0.3,0.3,0.5,0.2l0.2-0.1l14.3,37.7c1.1,2.8,4.2,4.3,7.1,3.2l20.2-7.7c2.8-1.1,4.7-4.4,3.6-7.2L75.2,15.8
		C74.2,13.2,70.9,11.9,68.2,12.6z M58.7,19.2c0.3-0.1,0.6,0,0.7,0.3s0,0.6-0.3,0.7c-0.3,0.1-0.6,0-0.7-0.3S58.4,19.3,58.7,19.2z
		 M57.3,22.5l4.7-1.8c0.4-0.1,0.7,0,0.9,0.3c0.1,0.3-0.1,0.7-0.4,0.8l-4.7,1.8c-0.4,0.1-0.7,0-0.9-0.3C56.8,23,57,22.6,57.3,22.5z
		 M81.8,80c-1.5,0.6-3.2-0.2-3.8-1.7c-0.6-1.5,0.2-3.2,1.7-3.8c1.5-0.6,3.2,0.2,3.8,1.7C84.1,77.7,83.4,79.4,81.8,80z M92.2,67.6
		l-26.4,10L48.1,30.9l26.4-10L92.2,67.6z"/>
</g>
</svg>
