<?xml version="1.0" encoding="utf-8"?>
<!-- Generator: Adobe Illustrator 17.1.0, SVG Export Plug-In . SVG Version: 6.00 Build 0)  -->
<!DOCTYPE svg PUBLIC "-//W3C//DTD SVG 1.1//EN" "http://www.w3.org/Graphics/SVG/1.1/DTD/svg11.dtd">
<svg version="1.1" id="Capa_1" xmlns="http://www.w3.org/2000/svg" xmlns:xlink="http://www.w3.org/1999/xlink" x="0px" y="0px"
	 viewBox="0 0 397.6 94.2" enable-background="new 0 0 397.6 94.2" xml:space="preserve">
<g>
	<g opacity="0.3">
		<circle cx="31" cy="32.1" r="29.9"/>
	</g>
	<g>
		<circle fill="#19D8F3" cx="29.9" cy="29.9" r="29.9"/>
	</g>
</g>
<g>
	<g opacity="0.3">
		<circle cx="144.3" cy="32.1" r="29.9"/>
	</g>
	<g>
		<circle fill="#19D8F3" cx="143.2" cy="29.9" r="29.9"/>
	</g>
</g>
<g>
	<g opacity="0.3">
		<circle cx="254.4" cy="32.1" r="29.9"/>
	</g>
	<g>
		<circle fill="#19D8F3" cx="253.3" cy="29.9" r="29.9"/>
	</g>
</g>
<g>
	<path fill="#B3B3B3" d="M92.2,35.8h-4.5v4.5h-4.5v-4.5h-4.5v-4.5h4.5v-4.5h4.5v4.5h4.5V35.8z"/>
</g>
<g>
	<path fill="#B3B3B3" d="M203.7,35.8h-4.5v4.5h-4.5v-4.5h-4.5v-4.5h4.5v-4.5h4.5v4.5h4.5V35.8z"/>
</g>
<g id="user_3_">
	<g>
		<path fill="#FFFFFF" d="M143.8,29.9c-6.8,0-12.4,5.5-12.4,12.4c0,2.3,1.8,4.1,4.1,4.1l16.5,0c2.3,0,4.1-1.8,4.1-4.1
			C156.2,35.5,150.6,29.9,143.8,29.9z"/>
		<circle fill="#FFFFFF" cx="143.8" cy="19.6" r="6.2"/>
	</g>
</g>
<path fill="#FFFFFF" d="M44.5,19.4c-1.7-1.7-4-2.6-6.4-2.6c-2.4,0-4.7,0.9-6.4,2.6c-0.6,0.6-1.2,1.4-1.6,2.1
	c-0.4-0.8-0.9-1.5-1.6-2.1c-1.7-1.7-4-2.6-6.4-2.6c-2.4,0-4.7,0.9-6.4,2.6c-1.7,1.7-2.6,4-2.6,6.4c0,2.4,0.9,4.7,2.6,6.4l12.8,13.6
	c0.4,0.4,1,0.7,1.6,0.7c0.6,0,1.2-0.2,1.6-0.7l12.8-13.6c1.7-1.7,2.6-4,2.6-6.4C47.1,23.4,46.2,21.1,44.5,19.4z"/>
<path fill="#FFFFFF" d="M266.2,25.6c0,9.3-10.8,20.1-11.2,20.6c-0.4,0.4-1,0.6-1.5,0.6c-0.5,0-1.1-0.2-1.5-0.6
	c-0.5-0.5-11.2-11.3-11.2-20.6c0-7,5.7-12.7,12.7-12.7C260.5,12.9,266.2,18.6,266.2,25.6z M253.5,32c3.5,0,6.4-2.8,6.4-6.4
	c0-3.5-2.8-6.4-6.4-6.4c-3.5,0-6.4,2.9-6.4,6.4C247.1,29.2,249.9,32,253.5,32z"/>
<g>
	<g opacity="0.3">
		<circle cx="367.7" cy="32.1" r="29.9"/>
	</g>
	<g>
		<circle fill="#19D8F3" cx="366.6" cy="29.9" r="29.9"/>
	</g>
</g>
<g>
	<path fill="#B3B3B3" d="M315.6,35.8H311v4.5h-4.5v-4.5H302v-4.5h4.5v-4.5h4.5v4.5h4.5V35.8z"/>
</g>
<path fill="#FFFFFF" d="M380.6,19.8v23.6c0,1.1-0.9,2-2,2H355c-1.1,0-2-0.9-2-2V19.8c0-1.1,0.9-2,2-2h2v-2c0-1.1,0.9-2,2-2
	c1.1,0,2,0.9,2,2v2h3.9v-2c0-1.1,0.9-2,2-2c1.1,0,2,0.9,2,2v2h3.9v-2c0-1.1,0.9-2,2-2c1.1,0,2,0.9,2,2v2h2
	C379.7,17.9,380.6,18.8,380.6,19.8z M376.7,25.7H357v2h19.7V25.7z M376.7,31.6H357v2h19.7V31.6z M376.7,37.6H357v2h19.7V37.6z"/>
<g>
	<path fill="#999999" d="M6.4,91.7V81.4h1.1c0.3,0,0.4,0.1,0.5,0.4l0.1,1.1c0.4-0.5,0.8-0.8,1.3-1.1c0.5-0.3,1-0.4,1.6-0.4
		c0.7,0,1.3,0.2,1.7,0.6c0.4,0.4,0.7,0.9,0.9,1.6c0.1-0.4,0.3-0.7,0.6-1c0.2-0.3,0.5-0.5,0.8-0.7c0.3-0.2,0.6-0.3,0.9-0.4
		c0.3-0.1,0.7-0.1,1-0.1c0.5,0,1,0.1,1.4,0.3c0.4,0.2,0.8,0.4,1.1,0.8c0.3,0.3,0.5,0.7,0.7,1.2s0.2,1,0.2,1.7v6.5h-1.8v-6.5
		c0-0.8-0.2-1.4-0.5-1.8s-0.9-0.6-1.5-0.6c-0.3,0-0.6,0.1-0.8,0.2c-0.3,0.1-0.5,0.3-0.7,0.5c-0.2,0.2-0.4,0.5-0.5,0.8
		c-0.1,0.3-0.2,0.7-0.2,1.1v6.5h-1.8v-6.5c0-0.8-0.2-1.4-0.5-1.8c-0.3-0.4-0.8-0.6-1.5-0.6c-0.4,0-0.9,0.1-1.2,0.4s-0.7,0.6-1,1v7.7
		H6.4z"/>
	<path fill="#999999" d="M27.2,81.3c0.8,0,1.4,0.1,2,0.4c0.6,0.2,1.1,0.6,1.5,1.1c0.4,0.5,0.7,1,1,1.7c0.2,0.7,0.3,1.4,0.3,2.2
		c0,0.8-0.1,1.5-0.3,2.2c-0.2,0.6-0.6,1.2-1,1.7c-0.4,0.5-0.9,0.8-1.5,1.1c-0.6,0.2-1.3,0.4-2,0.4c-0.8,0-1.4-0.1-2-0.4
		c-0.6-0.2-1.1-0.6-1.5-1.1c-0.4-0.5-0.8-1-1-1.7c-0.2-0.6-0.3-1.4-0.3-2.2c0-0.8,0.1-1.5,0.3-2.2c0.2-0.7,0.6-1.2,1-1.7
		c0.4-0.5,0.9-0.8,1.5-1.1C25.8,81.4,26.4,81.3,27.2,81.3z M27.2,90.5c1,0,1.8-0.3,2.3-1c0.5-0.7,0.8-1.6,0.8-2.8
		c0-1.2-0.2-2.2-0.8-2.9c-0.5-0.7-1.3-1-2.3-1c-0.5,0-1,0.1-1.3,0.3c-0.4,0.2-0.7,0.4-0.9,0.8c-0.3,0.3-0.4,0.7-0.6,1.2
		s-0.2,1-0.2,1.6s0.1,1.2,0.2,1.6c0.1,0.5,0.3,0.9,0.6,1.2c0.3,0.3,0.6,0.6,0.9,0.8C26.2,90.4,26.7,90.5,27.2,90.5z"/>
	<path fill="#999999" d="M38.5,81.3c0.8,0,1.4,0.1,2,0.4c0.6,0.2,1.1,0.6,1.5,1.1c0.4,0.5,0.7,1,1,1.7c0.2,0.7,0.3,1.4,0.3,2.2
		c0,0.8-0.1,1.5-0.3,2.2c-0.2,0.6-0.6,1.2-1,1.7c-0.4,0.5-0.9,0.8-1.5,1.1c-0.6,0.2-1.3,0.4-2,0.4c-0.8,0-1.4-0.1-2-0.4
		c-0.6-0.2-1.1-0.6-1.5-1.1c-0.4-0.5-0.8-1-1-1.7c-0.2-0.6-0.3-1.4-0.3-2.2c0-0.8,0.1-1.5,0.3-2.2c0.2-0.7,0.6-1.2,1-1.7
		c0.4-0.5,0.9-0.8,1.5-1.1C37,81.4,37.7,81.3,38.5,81.3z M38.5,90.5c1,0,1.8-0.3,2.3-1c0.5-0.7,0.8-1.6,0.8-2.8
		c0-1.2-0.2-2.2-0.8-2.9c-0.5-0.7-1.3-1-2.3-1c-0.5,0-1,0.1-1.3,0.3c-0.4,0.2-0.7,0.4-0.9,0.8c-0.3,0.3-0.4,0.7-0.6,1.2
		s-0.2,1-0.2,1.6s0.1,1.2,0.2,1.6c0.1,0.5,0.3,0.9,0.6,1.2c0.3,0.3,0.6,0.6,0.9,0.8C37.5,90.4,38,90.5,38.5,90.5z"/>
	<path fill="#999999" d="M52.8,91.7c-0.3,0-0.4-0.1-0.5-0.4l-0.2-1.2c-0.4,0.5-0.9,1-1.5,1.3c-0.6,0.3-1.2,0.5-1.9,0.5
		c-0.6,0-1.1-0.1-1.6-0.3c-0.5-0.2-0.9-0.6-1.2-1s-0.6-1-0.8-1.6c-0.2-0.7-0.3-1.4-0.3-2.3c0-0.8,0.1-1.5,0.3-2.1
		c0.2-0.7,0.5-1.2,0.9-1.7c0.4-0.5,0.8-0.9,1.4-1.1c0.5-0.3,1.2-0.4,1.9-0.4c0.6,0,1.2,0.1,1.6,0.3s0.8,0.5,1.2,0.9v-5.7h1.8v14.9
		H52.8z M49.3,90.4c0.6,0,1.1-0.1,1.5-0.4c0.4-0.3,0.9-0.7,1.2-1.1v-5c-0.3-0.4-0.7-0.8-1.1-0.9c-0.4-0.2-0.8-0.3-1.3-0.3
		c-1,0-1.7,0.3-2.2,1s-0.8,1.7-0.8,2.9c0,0.7,0.1,1.2,0.2,1.7c0.1,0.5,0.3,0.9,0.5,1.2c0.2,0.3,0.5,0.5,0.8,0.7S48.9,90.4,49.3,90.4
		z"/>
</g>
<g>
	<path fill="#999999" d="M113.5,83.3c-0.1,0.1-0.1,0.1-0.2,0.2c-0.1,0-0.1,0.1-0.2,0.1s-0.2,0-0.3-0.1s-0.3-0.2-0.5-0.3
		s-0.4-0.2-0.7-0.3c-0.3-0.1-0.6-0.1-1-0.1c-0.5,0-0.9,0.1-1.3,0.3c-0.4,0.2-0.7,0.4-1,0.8c-0.3,0.3-0.5,0.7-0.6,1.2
		c-0.1,0.5-0.2,1-0.2,1.6c0,0.6,0.1,1.2,0.2,1.7c0.1,0.5,0.3,0.9,0.6,1.2s0.6,0.6,0.9,0.8c0.4,0.2,0.8,0.3,1.2,0.3
		c0.4,0,0.8-0.1,1.1-0.2c0.3-0.1,0.5-0.2,0.7-0.3c0.2-0.1,0.3-0.2,0.5-0.3s0.2-0.2,0.4-0.2c0.2,0,0.3,0.1,0.3,0.2l0.5,0.7
		c-0.4,0.5-1,0.9-1.7,1.2c-0.7,0.3-1.4,0.4-2.1,0.4c-0.6,0-1.2-0.1-1.8-0.4s-1-0.6-1.4-1c-0.4-0.4-0.7-1-1-1.7s-0.3-1.4-0.3-2.2
		c0-0.8,0.1-1.5,0.3-2.1s0.5-1.2,0.9-1.7s0.9-0.8,1.5-1.1s1.3-0.4,2.1-0.4c0.7,0,1.4,0.1,1.9,0.4c0.6,0.2,1,0.6,1.5,1L113.5,83.3z"
		/>
	<path fill="#999999" d="M120.1,81.3c0.8,0,1.4,0.1,2,0.4c0.6,0.2,1.1,0.6,1.5,1.1c0.4,0.5,0.7,1,1,1.7c0.2,0.7,0.3,1.4,0.3,2.2
		c0,0.8-0.1,1.5-0.3,2.2c-0.2,0.6-0.6,1.2-1,1.7c-0.4,0.5-0.9,0.8-1.5,1.1c-0.6,0.2-1.3,0.4-2,0.4c-0.8,0-1.4-0.1-2-0.4
		c-0.6-0.2-1.1-0.6-1.5-1.1c-0.4-0.5-0.8-1-1-1.7c-0.2-0.6-0.3-1.4-0.3-2.2c0-0.8,0.1-1.5,0.3-2.2c0.2-0.7,0.6-1.2,1-1.7
		c0.4-0.5,0.9-0.8,1.5-1.1C118.7,81.4,119.3,81.3,120.1,81.3z M120.1,90.5c1,0,1.8-0.3,2.3-1c0.5-0.7,0.8-1.6,0.8-2.8
		c0-1.2-0.2-2.2-0.8-2.9c-0.5-0.7-1.3-1-2.3-1c-0.5,0-1,0.1-1.3,0.3c-0.4,0.2-0.7,0.4-0.9,0.8c-0.3,0.3-0.4,0.7-0.6,1.2
		s-0.2,1-0.2,1.6s0.1,1.2,0.2,1.6c0.1,0.5,0.3,0.9,0.6,1.2c0.3,0.3,0.6,0.6,0.9,0.8C119.1,90.4,119.6,90.5,120.1,90.5z"/>
	<path fill="#999999" d="M127.2,91.7V81.4h1.1c0.3,0,0.4,0.1,0.5,0.4l0.1,1.1c0.4-0.5,0.9-0.9,1.5-1.2c0.6-0.3,1.2-0.5,1.9-0.5
		c0.6,0,1.1,0.1,1.5,0.3c0.4,0.2,0.8,0.4,1.1,0.8s0.5,0.8,0.7,1.2s0.2,1,0.2,1.6v6.5H134v-6.5c0-0.8-0.2-1.4-0.5-1.8
		c-0.4-0.4-0.9-0.6-1.6-0.6c-0.5,0-1,0.1-1.5,0.4c-0.5,0.3-0.9,0.6-1.3,1v7.6H127.2z"/>
	<path fill="#999999" d="M141.6,91.9c-0.8,0-1.4-0.2-1.9-0.7c-0.4-0.5-0.7-1.1-0.7-2V83h-1.2c-0.1,0-0.2,0-0.3-0.1
		c-0.1-0.1-0.1-0.2-0.1-0.3v-0.7l1.7-0.2l0.4-3.2c0-0.1,0.1-0.2,0.1-0.2s0.2-0.1,0.3-0.1h0.9v3.5h2.9V83h-2.9v6.2
		c0,0.4,0.1,0.8,0.3,1c0.2,0.2,0.5,0.3,0.8,0.3c0.2,0,0.4,0,0.5-0.1s0.3-0.1,0.4-0.2c0.1-0.1,0.2-0.1,0.3-0.2c0.1,0,0.1-0.1,0.2-0.1
		c0.1,0,0.2,0.1,0.3,0.2l0.5,0.9c-0.3,0.3-0.7,0.5-1.1,0.7S142.1,91.9,141.6,91.9z"/>
	<path fill="#999999" d="M153.6,91.7h-0.8c-0.2,0-0.3,0-0.4-0.1c-0.1-0.1-0.2-0.2-0.2-0.3l-0.2-1c-0.3,0.2-0.5,0.5-0.8,0.7
		c-0.3,0.2-0.5,0.4-0.8,0.5s-0.6,0.2-0.9,0.3c-0.3,0.1-0.7,0.1-1.1,0.1c-0.4,0-0.8-0.1-1.1-0.2c-0.3-0.1-0.7-0.3-0.9-0.5
		c-0.3-0.2-0.5-0.5-0.6-0.9c-0.2-0.3-0.2-0.7-0.2-1.2c0-0.4,0.1-0.8,0.3-1.2c0.2-0.4,0.6-0.7,1.1-1s1.1-0.5,2-0.7
		c0.8-0.2,1.8-0.3,3-0.3v-0.8c0-0.8-0.2-1.4-0.5-1.8c-0.3-0.4-0.8-0.6-1.5-0.6c-0.4,0-0.8,0.1-1.1,0.2c-0.3,0.1-0.6,0.2-0.8,0.4
		s-0.4,0.3-0.6,0.4s-0.3,0.2-0.5,0.2c-0.1,0-0.2,0-0.3-0.1c-0.1-0.1-0.2-0.1-0.2-0.2l-0.3-0.6c0.6-0.5,1.2-1,1.8-1.2
		c0.7-0.3,1.4-0.4,2.2-0.4c0.6,0,1.1,0.1,1.5,0.3c0.4,0.2,0.8,0.5,1.1,0.8c0.3,0.3,0.5,0.7,0.7,1.2c0.2,0.5,0.2,1,0.2,1.6V91.7z
		 M148.9,90.6c0.3,0,0.6,0,0.9-0.1c0.3-0.1,0.5-0.2,0.7-0.3s0.5-0.3,0.7-0.4s0.4-0.4,0.6-0.6v-2.1c-0.8,0-1.5,0.1-2.1,0.2
		c-0.6,0.1-1.1,0.2-1.4,0.4s-0.6,0.4-0.8,0.6c-0.2,0.2-0.2,0.5-0.2,0.8c0,0.3,0,0.5,0.1,0.7s0.2,0.4,0.4,0.5
		c0.1,0.1,0.3,0.2,0.5,0.3C148.5,90.6,148.7,90.6,148.9,90.6z"/>
	<path fill="#999999" d="M163.3,83.3c-0.1,0.1-0.1,0.1-0.2,0.2c-0.1,0-0.1,0.1-0.2,0.1s-0.2,0-0.3-0.1s-0.3-0.2-0.5-0.3
		s-0.4-0.2-0.7-0.3c-0.3-0.1-0.6-0.1-1-0.1c-0.5,0-0.9,0.1-1.3,0.3c-0.4,0.2-0.7,0.4-1,0.8c-0.3,0.3-0.5,0.7-0.6,1.2
		c-0.1,0.5-0.2,1-0.2,1.6c0,0.6,0.1,1.2,0.2,1.7c0.1,0.5,0.3,0.9,0.6,1.2s0.6,0.6,0.9,0.8c0.4,0.2,0.8,0.3,1.2,0.3
		c0.4,0,0.8-0.1,1.1-0.2c0.3-0.1,0.5-0.2,0.7-0.3c0.2-0.1,0.3-0.2,0.5-0.3s0.2-0.2,0.4-0.2c0.2,0,0.3,0.1,0.3,0.2l0.5,0.7
		c-0.4,0.5-1,0.9-1.7,1.2c-0.7,0.3-1.4,0.4-2.1,0.4c-0.6,0-1.2-0.1-1.8-0.4s-1-0.6-1.4-1c-0.4-0.4-0.7-1-1-1.7s-0.3-1.4-0.3-2.2
		c0-0.8,0.1-1.5,0.3-2.1s0.5-1.2,0.9-1.7s0.9-0.8,1.5-1.1s1.3-0.4,2.1-0.4c0.7,0,1.4,0.1,1.9,0.4c0.6,0.2,1,0.6,1.5,1L163.3,83.3z"
		/>
	<path fill="#999999" d="M168.9,91.9c-0.8,0-1.4-0.2-1.9-0.7c-0.4-0.5-0.7-1.1-0.7-2V83h-1.2c-0.1,0-0.2,0-0.3-0.1
		c-0.1-0.1-0.1-0.2-0.1-0.3v-0.7l1.7-0.2l0.4-3.2c0-0.1,0.1-0.2,0.1-0.2s0.2-0.1,0.3-0.1h0.9v3.5h2.9V83h-2.9v6.2
		c0,0.4,0.1,0.8,0.3,1c0.2,0.2,0.5,0.3,0.8,0.3c0.2,0,0.4,0,0.5-0.1s0.3-0.1,0.4-0.2c0.1-0.1,0.2-0.1,0.3-0.2c0.1,0,0.1-0.1,0.2-0.1
		c0.1,0,0.2,0.1,0.3,0.2l0.5,0.9c-0.3,0.3-0.7,0.5-1.1,0.7S169.4,91.9,168.9,91.9z"/>
	<path fill="#999999" d="M179.3,83.1c-0.1,0.1-0.2,0.2-0.4,0.2c-0.1,0-0.2,0-0.3-0.1c-0.1-0.1-0.3-0.2-0.5-0.2
		c-0.2-0.1-0.4-0.2-0.7-0.3c-0.3-0.1-0.6-0.1-0.9-0.1c-0.3,0-0.6,0-0.8,0.1c-0.2,0.1-0.5,0.2-0.6,0.3c-0.2,0.1-0.3,0.3-0.4,0.5
		c-0.1,0.2-0.1,0.4-0.1,0.6c0,0.3,0.1,0.5,0.2,0.7s0.4,0.3,0.6,0.5c0.2,0.1,0.5,0.2,0.9,0.3c0.3,0.1,0.6,0.2,1,0.3
		c0.3,0.1,0.7,0.2,1,0.4c0.3,0.1,0.6,0.3,0.9,0.5c0.3,0.2,0.5,0.5,0.6,0.7c0.2,0.3,0.2,0.6,0.2,1.1c0,0.5-0.1,0.9-0.3,1.3
		s-0.4,0.8-0.8,1c-0.3,0.3-0.7,0.5-1.2,0.7c-0.5,0.2-1,0.3-1.7,0.3c-0.7,0-1.4-0.1-1.9-0.3c-0.6-0.2-1.1-0.5-1.5-0.9l0.4-0.7
		c0.1-0.1,0.1-0.2,0.2-0.2c0.1,0,0.2-0.1,0.3-0.1c0.1,0,0.2,0,0.4,0.1c0.1,0.1,0.3,0.2,0.5,0.3c0.2,0.1,0.4,0.2,0.7,0.3
		c0.3,0.1,0.6,0.1,1,0.1c0.4,0,0.7,0,0.9-0.1c0.3-0.1,0.5-0.2,0.7-0.4s0.3-0.3,0.4-0.5c0.1-0.2,0.1-0.4,0.1-0.6
		c0-0.3-0.1-0.5-0.2-0.7c-0.2-0.2-0.4-0.3-0.6-0.5s-0.5-0.2-0.9-0.3c-0.3-0.1-0.6-0.2-1-0.3s-0.7-0.2-1-0.4
		c-0.3-0.1-0.6-0.3-0.9-0.5s-0.5-0.5-0.6-0.8s-0.2-0.7-0.2-1.1c0-0.4,0.1-0.8,0.2-1.1c0.2-0.4,0.4-0.7,0.7-1
		c0.3-0.3,0.7-0.5,1.1-0.7c0.5-0.2,1-0.2,1.6-0.2c0.7,0,1.3,0.1,1.8,0.3c0.5,0.2,1,0.5,1.4,0.9L179.3,83.1z"/>
</g>
<g>
	<path fill="#999999" d="M226.6,94.2V80.4h1.1c0.3,0,0.4,0.1,0.5,0.4l0.2,1.2c0.4-0.5,0.9-1,1.5-1.3s1.2-0.5,2-0.5
		c0.6,0,1.1,0.1,1.6,0.3s0.9,0.6,1.2,1c0.3,0.4,0.6,1,0.8,1.6c0.2,0.7,0.3,1.4,0.3,2.3c0,0.8-0.1,1.5-0.3,2.1
		c-0.2,0.7-0.5,1.2-0.9,1.7s-0.8,0.9-1.4,1.1s-1.2,0.4-1.9,0.4c-0.6,0-1.2-0.1-1.6-0.3c-0.4-0.2-0.8-0.5-1.2-0.9v4.5H226.6z
		 M231.2,81.7c-0.6,0-1.1,0.1-1.5,0.4c-0.4,0.3-0.9,0.7-1.2,1.1v5c0.3,0.4,0.7,0.8,1.1,0.9c0.4,0.2,0.8,0.3,1.3,0.3
		c1,0,1.7-0.3,2.2-1c0.5-0.7,0.8-1.7,0.8-2.9c0-0.7-0.1-1.2-0.2-1.7c-0.1-0.5-0.3-0.9-0.5-1.2c-0.2-0.3-0.5-0.5-0.8-0.7
		C232,81.8,231.6,81.7,231.2,81.7z"/>
	<path fill="#999999" d="M239.8,75.8v14.9H238V75.8H239.8z"/>
	<path fill="#999999" d="M250.6,90.7h-0.8c-0.2,0-0.3,0-0.4-0.1c-0.1-0.1-0.2-0.2-0.2-0.3l-0.2-1c-0.3,0.2-0.5,0.5-0.8,0.7
		c-0.3,0.2-0.5,0.4-0.8,0.5s-0.6,0.2-0.9,0.3c-0.3,0.1-0.7,0.1-1.1,0.1c-0.4,0-0.8-0.1-1.1-0.2c-0.3-0.1-0.7-0.3-0.9-0.5
		c-0.3-0.2-0.5-0.5-0.6-0.9c-0.2-0.3-0.2-0.7-0.2-1.2c0-0.4,0.1-0.8,0.3-1.2c0.2-0.4,0.6-0.7,1.1-1s1.1-0.5,2-0.7
		c0.8-0.2,1.8-0.3,3-0.3v-0.8c0-0.8-0.2-1.4-0.5-1.8c-0.3-0.4-0.8-0.6-1.5-0.6c-0.4,0-0.8,0.1-1.1,0.2c-0.3,0.1-0.6,0.2-0.8,0.4
		s-0.4,0.3-0.6,0.4s-0.3,0.2-0.5,0.2c-0.1,0-0.2,0-0.3-0.1c-0.1-0.1-0.2-0.1-0.2-0.2l-0.3-0.6c0.6-0.5,1.2-1,1.8-1.2
		c0.7-0.3,1.4-0.4,2.2-0.4c0.6,0,1.1,0.1,1.5,0.3c0.4,0.2,0.8,0.5,1.1,0.8c0.3,0.3,0.5,0.7,0.7,1.2c0.2,0.5,0.2,1,0.2,1.6V90.7z
		 M245.9,89.6c0.3,0,0.6,0,0.9-0.1c0.3-0.1,0.5-0.2,0.7-0.3s0.5-0.3,0.7-0.4s0.4-0.4,0.6-0.6v-2.1c-0.8,0-1.5,0.1-2.1,0.2
		c-0.6,0.1-1.1,0.2-1.4,0.4s-0.6,0.4-0.8,0.6c-0.2,0.2-0.2,0.5-0.2,0.8c0,0.3,0,0.5,0.1,0.7s0.2,0.4,0.4,0.5
		c0.1,0.1,0.3,0.2,0.5,0.3C245.4,89.6,245.6,89.6,245.9,89.6z"/>
	<path fill="#999999" d="M260.3,82.3c-0.1,0.1-0.1,0.1-0.2,0.2c-0.1,0-0.1,0.1-0.2,0.1s-0.2,0-0.3-0.1s-0.3-0.2-0.5-0.3
		s-0.4-0.2-0.7-0.3c-0.3-0.1-0.6-0.1-1-0.1c-0.5,0-0.9,0.1-1.3,0.3c-0.4,0.2-0.7,0.4-1,0.8c-0.3,0.3-0.5,0.7-0.6,1.2
		c-0.1,0.5-0.2,1-0.2,1.6c0,0.6,0.1,1.2,0.2,1.7c0.1,0.5,0.3,0.9,0.6,1.2s0.6,0.6,0.9,0.8c0.4,0.2,0.8,0.3,1.2,0.3
		c0.4,0,0.8-0.1,1.1-0.2c0.3-0.1,0.5-0.2,0.7-0.3c0.2-0.1,0.3-0.2,0.5-0.3s0.2-0.2,0.4-0.2c0.2,0,0.3,0.1,0.3,0.2l0.5,0.7
		c-0.4,0.5-1,0.9-1.7,1.2c-0.7,0.3-1.4,0.4-2.1,0.4c-0.6,0-1.2-0.1-1.8-0.4s-1-0.6-1.4-1c-0.4-0.4-0.7-1-1-1.7s-0.3-1.4-0.3-2.2
		c0-0.8,0.1-1.5,0.3-2.1s0.5-1.2,0.9-1.7s0.9-0.8,1.5-1.1s1.3-0.4,2.1-0.4c0.7,0,1.4,0.1,1.9,0.4c0.6,0.2,1,0.6,1.5,1L260.3,82.3z"
		/>
	<path fill="#999999" d="M266.8,80.3c0.6,0,1.2,0.1,1.7,0.3s1,0.5,1.3,0.9s0.7,0.9,0.9,1.4s0.3,1.2,0.3,2c0,0.3,0,0.5-0.1,0.6
		c-0.1,0.1-0.2,0.1-0.3,0.1h-6.8c0,0.6,0.1,1.2,0.3,1.7c0.2,0.5,0.4,0.9,0.7,1.2s0.6,0.6,1,0.7c0.4,0.2,0.8,0.2,1.3,0.2
		c0.5,0,0.8-0.1,1.2-0.2c0.3-0.1,0.6-0.2,0.8-0.3c0.2-0.1,0.4-0.2,0.6-0.3s0.3-0.2,0.4-0.2c0.1,0,0.3,0.1,0.3,0.2l0.5,0.7
		c-0.2,0.3-0.5,0.5-0.8,0.7c-0.3,0.2-0.6,0.4-1,0.5c-0.4,0.1-0.7,0.2-1.1,0.3c-0.4,0.1-0.8,0.1-1.1,0.1c-0.7,0-1.4-0.1-2-0.4
		s-1.1-0.6-1.6-1.1c-0.4-0.5-0.8-1-1-1.7c-0.2-0.7-0.4-1.5-0.4-2.4c0-0.7,0.1-1.4,0.3-2s0.5-1.2,0.9-1.6s0.9-0.8,1.5-1.1
		C265.4,80.4,266.1,80.3,266.8,80.3z M266.9,81.6c-0.9,0-1.6,0.3-2.1,0.8c-0.5,0.5-0.8,1.2-0.9,2.1h5.6c0-0.4-0.1-0.8-0.2-1.2
		c-0.1-0.3-0.3-0.6-0.5-0.9c-0.2-0.3-0.5-0.4-0.8-0.6C267.7,81.7,267.3,81.6,266.9,81.6z"/>
	<path fill="#999999" d="M279.3,82.1c-0.1,0.1-0.2,0.2-0.4,0.2c-0.1,0-0.2,0-0.3-0.1c-0.1-0.1-0.3-0.2-0.5-0.2
		c-0.2-0.1-0.4-0.2-0.7-0.3c-0.3-0.1-0.6-0.1-0.9-0.1c-0.3,0-0.6,0-0.8,0.1c-0.2,0.1-0.5,0.2-0.6,0.3c-0.2,0.1-0.3,0.3-0.4,0.5
		c-0.1,0.2-0.1,0.4-0.1,0.6c0,0.3,0.1,0.5,0.2,0.7s0.4,0.3,0.6,0.5c0.2,0.1,0.5,0.2,0.9,0.3c0.3,0.1,0.6,0.2,1,0.3
		c0.3,0.1,0.7,0.2,1,0.4c0.3,0.1,0.6,0.3,0.9,0.5c0.3,0.2,0.5,0.5,0.6,0.7c0.2,0.3,0.2,0.6,0.2,1.1c0,0.5-0.1,0.9-0.3,1.3
		s-0.4,0.8-0.8,1c-0.3,0.3-0.7,0.5-1.2,0.7c-0.5,0.2-1,0.3-1.7,0.3c-0.7,0-1.4-0.1-1.9-0.3c-0.6-0.2-1.1-0.5-1.5-0.9l0.4-0.7
		c0.1-0.1,0.1-0.2,0.2-0.2c0.1,0,0.2-0.1,0.3-0.1c0.1,0,0.2,0,0.4,0.1c0.1,0.1,0.3,0.2,0.5,0.3c0.2,0.1,0.4,0.2,0.7,0.3
		c0.3,0.1,0.6,0.1,1,0.1c0.4,0,0.7,0,0.9-0.1c0.3-0.1,0.5-0.2,0.7-0.4s0.3-0.3,0.4-0.5c0.1-0.2,0.1-0.4,0.1-0.6
		c0-0.3-0.1-0.5-0.2-0.7c-0.2-0.2-0.4-0.3-0.6-0.5s-0.5-0.2-0.9-0.3c-0.3-0.1-0.6-0.2-1-0.3s-0.7-0.2-1-0.4
		c-0.3-0.1-0.6-0.3-0.9-0.5s-0.5-0.5-0.6-0.8s-0.2-0.7-0.2-1.1c0-0.4,0.1-0.8,0.2-1.1c0.2-0.4,0.4-0.7,0.7-1
		c0.3-0.3,0.7-0.5,1.1-0.7c0.5-0.2,1-0.2,1.6-0.2c0.7,0,1.3,0.1,1.8,0.3c0.5,0.2,1,0.5,1.4,0.9L279.3,82.1z"/>
</g>
<g>
	<path fill="#999999" d="M343.5,90.7V80.4h1.1c0.3,0,0.4,0.1,0.5,0.4l0.1,1.1c0.4-0.5,0.9-0.9,1.5-1.2c0.6-0.3,1.2-0.5,1.9-0.5
		c0.6,0,1.1,0.1,1.5,0.3c0.4,0.2,0.8,0.4,1.1,0.8s0.5,0.8,0.7,1.2s0.2,1,0.2,1.6v6.5h-1.8v-6.5c0-0.8-0.2-1.4-0.5-1.8
		c-0.4-0.4-0.9-0.6-1.6-0.6c-0.5,0-1,0.1-1.5,0.4s-0.9,0.6-1.3,1v7.6H343.5z"/>
	<path fill="#999999" d="M358.9,80.3c0.8,0,1.4,0.1,2,0.4c0.6,0.2,1.1,0.6,1.5,1.1s0.7,1,1,1.7c0.2,0.7,0.3,1.4,0.3,2.2
		c0,0.8-0.1,1.5-0.3,2.2c-0.2,0.6-0.6,1.2-1,1.7s-0.9,0.8-1.5,1.1c-0.6,0.2-1.3,0.4-2,0.4c-0.8,0-1.4-0.1-2-0.4
		c-0.6-0.2-1.1-0.6-1.5-1.1c-0.4-0.5-0.8-1-1-1.7c-0.2-0.6-0.3-1.4-0.3-2.2c0-0.8,0.1-1.5,0.3-2.2c0.2-0.7,0.6-1.2,1-1.7
		c0.4-0.5,0.9-0.8,1.5-1.1C357.5,80.4,358.1,80.3,358.9,80.3z M358.9,89.5c1,0,1.8-0.3,2.3-1c0.5-0.7,0.8-1.6,0.8-2.8
		c0-1.2-0.2-2.2-0.8-2.9c-0.5-0.7-1.3-1-2.3-1c-0.5,0-1,0.1-1.3,0.3s-0.7,0.4-0.9,0.8c-0.3,0.3-0.4,0.7-0.6,1.2s-0.2,1-0.2,1.6
		s0.1,1.2,0.2,1.6c0.1,0.5,0.3,0.9,0.6,1.2c0.3,0.3,0.6,0.6,0.9,0.8S358.4,89.5,358.9,89.5z"/>
	<path fill="#999999" d="M369.1,90.9c-0.8,0-1.4-0.2-1.9-0.7s-0.7-1.1-0.7-2V82h-1.2c-0.1,0-0.2,0-0.3-0.1c-0.1-0.1-0.1-0.2-0.1-0.3
		v-0.7l1.7-0.2l0.4-3.2c0-0.1,0.1-0.2,0.1-0.2s0.2-0.1,0.3-0.1h0.9v3.5h2.9V82h-2.9v6.2c0,0.4,0.1,0.8,0.3,1
		c0.2,0.2,0.5,0.3,0.8,0.3c0.2,0,0.4,0,0.5-0.1s0.3-0.1,0.4-0.2s0.2-0.1,0.3-0.2c0.1,0,0.1-0.1,0.2-0.1c0.1,0,0.2,0.1,0.3,0.2
		l0.5,0.9c-0.3,0.3-0.7,0.5-1.1,0.7S369.6,90.9,369.1,90.9z"/>
	<path fill="#999999" d="M377.6,80.3c0.6,0,1.2,0.1,1.7,0.3c0.5,0.2,1,0.5,1.3,0.9s0.7,0.9,0.9,1.4s0.3,1.2,0.3,2
		c0,0.3,0,0.5-0.1,0.6c-0.1,0.1-0.2,0.1-0.3,0.1h-6.8c0,0.6,0.1,1.2,0.3,1.7c0.2,0.5,0.4,0.9,0.7,1.2c0.3,0.3,0.6,0.6,1,0.7
		c0.4,0.2,0.8,0.2,1.3,0.2c0.5,0,0.8-0.1,1.2-0.2c0.3-0.1,0.6-0.2,0.8-0.3c0.2-0.1,0.4-0.2,0.6-0.3c0.2-0.1,0.3-0.2,0.4-0.2
		c0.1,0,0.3,0.1,0.3,0.2l0.5,0.7c-0.2,0.3-0.5,0.5-0.8,0.7c-0.3,0.2-0.6,0.4-1,0.5c-0.4,0.1-0.7,0.2-1.1,0.3
		c-0.4,0.1-0.8,0.1-1.1,0.1c-0.7,0-1.4-0.1-2-0.4c-0.6-0.2-1.1-0.6-1.6-1.1s-0.8-1-1-1.7c-0.2-0.7-0.4-1.5-0.4-2.4
		c0-0.7,0.1-1.4,0.3-2c0.2-0.6,0.5-1.2,0.9-1.6s0.9-0.8,1.5-1.1C376.2,80.4,376.9,80.3,377.6,80.3z M377.7,81.6
		c-0.9,0-1.6,0.3-2.1,0.8c-0.5,0.5-0.8,1.2-0.9,2.1h5.6c0-0.4-0.1-0.8-0.2-1.2c-0.1-0.3-0.3-0.6-0.5-0.9c-0.2-0.3-0.5-0.4-0.8-0.6
		C378.5,81.7,378.1,81.6,377.7,81.6z"/>
	<path fill="#999999" d="M390.1,82.1c-0.1,0.1-0.2,0.2-0.4,0.2c-0.1,0-0.2,0-0.3-0.1s-0.3-0.2-0.5-0.2c-0.2-0.1-0.4-0.2-0.7-0.3
		c-0.3-0.1-0.6-0.1-0.9-0.1c-0.3,0-0.6,0-0.8,0.1c-0.2,0.1-0.5,0.2-0.6,0.3c-0.2,0.1-0.3,0.3-0.4,0.5c-0.1,0.2-0.1,0.4-0.1,0.6
		c0,0.3,0.1,0.5,0.2,0.7s0.4,0.3,0.6,0.5c0.2,0.1,0.5,0.2,0.9,0.3c0.3,0.1,0.6,0.2,1,0.3c0.3,0.1,0.7,0.2,1,0.4
		c0.3,0.1,0.6,0.3,0.9,0.5s0.5,0.5,0.6,0.7c0.2,0.3,0.2,0.6,0.2,1.1c0,0.5-0.1,0.9-0.3,1.3c-0.2,0.4-0.4,0.8-0.8,1
		c-0.3,0.3-0.7,0.5-1.2,0.7c-0.5,0.2-1,0.3-1.7,0.3c-0.7,0-1.4-0.1-1.9-0.3s-1.1-0.5-1.5-0.9l0.4-0.7c0.1-0.1,0.1-0.2,0.2-0.2
		c0.1,0,0.2-0.1,0.3-0.1s0.2,0,0.4,0.1c0.1,0.1,0.3,0.2,0.5,0.3c0.2,0.1,0.4,0.2,0.7,0.3c0.3,0.1,0.6,0.1,1,0.1c0.4,0,0.7,0,0.9-0.1
		c0.3-0.1,0.5-0.2,0.7-0.4s0.3-0.3,0.4-0.5c0.1-0.2,0.1-0.4,0.1-0.6c0-0.3-0.1-0.5-0.2-0.7c-0.2-0.2-0.4-0.3-0.6-0.5
		s-0.5-0.2-0.9-0.3c-0.3-0.1-0.6-0.2-1-0.3c-0.3-0.1-0.7-0.2-1-0.4c-0.3-0.1-0.6-0.3-0.9-0.5s-0.5-0.5-0.6-0.8s-0.2-0.7-0.2-1.1
		c0-0.4,0.1-0.8,0.2-1.1c0.2-0.4,0.4-0.7,0.7-1c0.3-0.3,0.7-0.5,1.1-0.7c0.5-0.2,1-0.2,1.6-0.2c0.7,0,1.3,0.1,1.8,0.3
		c0.5,0.2,1,0.5,1.4,0.9L390.1,82.1z"/>
</g>
</svg>
