<?xml version="1.0" encoding="utf-8"?>
<!-- Generator: Adobe Illustrator 17.1.0, SVG Export Plug-In . SVG Version: 6.00 Build 0)  -->
<!DOCTYPE svg PUBLIC "-//W3C//DTD SVG 1.1//EN" "http://www.w3.org/Graphics/SVG/1.1/DTD/svg11.dtd">
<svg version="1.1" id="Capa_1" xmlns="http://www.w3.org/2000/svg" xmlns:xlink="http://www.w3.org/1999/xlink" x="0px" y="0px"
	 viewBox="0 0 160 357" enable-background="new 0 0 160 357" xml:space="preserve">
<g>
	<rect x="4" y="1" fill="#999999" width="156" height="350"/>
	<rect fill="#93E99E" width="156" height="357"/>
	<path fill="#171819" d="M104,209.8c5.1-4.1,5.1-8,2.6-13.6c-5.7-12.7-10.6-25.9-16.2-38.6c-3-6.8-5.7-12.1,3.8-19.5
		c-9,0-16,0-24.3,0c8.9,7.4,5.8,13.5,2.5,20.8c-5.5,12.1-10,24.8-15.5,36.9c-2.7,5.9-2.6,10,2.7,14.4c7.1,5.9,13.5,12.5,21.3,19.9
		l1.2-0.9C89.3,222.6,96.4,215.9,104,209.8z"/>
	<g>
		<g>
			<g>
				<g>
					<path d="M76.2,71.4c0,9-7.3,16.4-16.4,16.4c-9,0-16.4-7.3-16.4-16.4c0-9,7.3-8.7,16.4-8.7C68.9,62.6,76.2,62.3,76.2,71.4"/>
				</g>
			</g>
		</g>
		<g>
			<g>
				<g>
					<path fill="#FFFFFF" d="M73.6,71.4c0,7.6-6.2,13.8-13.8,13.8C52.2,85.2,46,79,46,71.4c0-7.6,6.2-6.1,13.8-6.1
						C67.4,65.2,73.6,63.8,73.6,71.4"/>
				</g>
			</g>
		</g>
		<g>
			<g>
				<g>
					<path d="M114.4,71.4c0,9-7.3,16.4-16.4,16.4c-9,0-16.4-7.3-16.4-16.4C81.6,62.3,89,55,98,55C107.1,55,114.4,62.3,114.4,71.4"/>
				</g>
			</g>
		</g>
		<g>
			<g>
				<g>
					<path fill="#FFFFFF" d="M111.8,71.4c0,7.6-6.2,13.8-13.8,13.8c-7.6,0-13.8-6.2-13.8-13.8c0-7.6,6.2-13.8,13.8-13.8
						C105.6,57.6,111.8,63.8,111.8,71.4"/>
				</g>
			</g>
		</g>
		<g>
			<g>
				<g>
					<path d="M65,71.7c0,2.7-2.2,4.8-4.8,4.8c-2.7,0-4.8-2.2-4.8-4.8v-4.4c0-2.7,2.2-4.8,4.8-4.8c2.7,0,4.8,2.2,4.8,4.8V71.7z"/>
				</g>
			</g>
		</g>
		<g>
			<g>
				<g>
					<path d="M102.3,71.7c0,2.7-2.2,4.8-4.8,4.8c-2.7,0-4.8-2.2-4.8-4.8v-4.4c0-2.7,2.2-4.8,4.8-4.8c2.7,0,4.8,2.2,4.8,4.8V71.7z"/>
				</g>
			</g>
		</g>
		<g>
			<g>
				<g>
					<path d="M42.2,62.6c0,0-2.8,3.7,3.8,3.7c6.6,0,23.9-1.9,23.9-1.9s3.4-1-0.9-1.9C64.6,61.7,45.2,60.5,42.2,62.6"/>
				</g>
			</g>
		</g>
		<g>
			<g>
				<g>
					<path d="M49.7,92.8c0,0,6,19.3,28.2,19.3c22.2,0,26-19.3,26-19.3S97.5,105,76.9,105C56.2,105,49.7,92.8,49.7,92.8"/>
				</g>
			</g>
		</g>
	</g>
</g>
</svg>
