<?xml version="1.0" encoding="utf-8"?>
<!-- Generator: Adobe Illustrator 14.0.0, SVG Export Plug-In . SVG Version: 6.00 Build 43363)  -->
<!DOCTYPE svg PUBLIC "-//W3C//DTD SVG 1.1//EN" "http://www.w3.org/Graphics/SVG/1.1/DTD/svg11.dtd">
<svg version="1.1" id="Capa_1" xmlns="http://www.w3.org/2000/svg" xmlns:xlink="http://www.w3.org/1999/xlink" x="0px" y="0px"
	 width="160px" height="357px" viewBox="0 0 160 357" enable-background="new 0 0 160 357" xml:space="preserve">
<g>
	<rect x="4" y="1" fill="#999999" width="156" height="350"/>
	<rect fill="#93E99E" width="156" height="357"/>
	<path fill="#171819" d="M103.977,209.815c5.095-4.097,5.084-8.035,2.555-13.627c-5.73-12.675-10.621-25.915-16.227-38.649
		c-3.002-6.818-5.734-12.102,3.76-19.539c-8.959,0-15.989,0-24.305,0c8.877,7.438,5.837,13.457,2.514,20.806
		c-5.475,12.109-9.951,24.764-15.45,36.861c-2.665,5.862-2.647,9.998,2.659,14.405c7.073,5.878,13.54,12.529,21.295,19.879
		l1.215-0.884C89.309,222.619,96.385,215.919,103.977,209.815z"/>
	<g>
		<path fill-rule="evenodd" clip-rule="evenodd" d="M103.037,46.534c0,0.03,0,0.06,0,0.09c0.405,0,0.811,0,1.217,0
			c0,0.03,0,0.061,0,0.091c0.248,0,0.495,0,0.743,0c0,0.03,0,0.06,0,0.089c0.195,0,0.391,0,0.586,0c0,0.03,0,0.06,0,0.09
			c0.189,0.028,0.506-0.071,0.563,0.09c0.155,0.024,0.425-0.064,0.45,0.089c0.143-0.006,0.268,0.004,0.384,0.023
			c0,0.03,0,0.061,0,0.09c0.127,0,0.255,0,0.384,0c0,0.03,0,0.06,0,0.09c0.119,0,0.239,0,0.359,0c0,0.03,0,0.06,0,0.09
			c0.098,0,0.195,0,0.293,0c0,0.03,0,0.06,0,0.09c0.133,0.017,0.35-0.05,0.361,0.09c0.233-0.046,0.261,0.114,0.473,0.09
			c0,0.038,0,0.075,0,0.112c0.098,0,0.195,0,0.293,0c0,0.03,0,0.061,0,0.09c0.09,0,0.18,0,0.271,0c0,0.03,0,0.06,0,0.09
			c0.067,0,0.135,0,0.202,0c0,0.03,0,0.06,0,0.09c0.061,0,0.121,0,0.181,0c0,0.031,0,0.061,0,0.09
			c0.231-0.043,0.263,0.113,0.451,0.113c0,0.03,0,0.06,0,0.09c0.067,0,0.135,0,0.202,0c0,0.03,0,0.06,0,0.09
			c0.061,0,0.121,0,0.181,0c0,0.03,0,0.06,0,0.09c0.06,0,0.12,0,0.18,0c0,0.03,0,0.061,0,0.09c0.154,0.003,0.271,0.044,0.294,0.18
			c0.06,0,0.119,0,0.18,0c0.019,0.027,0.029,0.061,0.022,0.113c0.06,0,0.12,0,0.181,0c-0.05,0.14,0.14,0.041,0.09,0.18
			c0.068,0,0.136,0,0.203,0c-0.051,0.14,0.14,0.041,0.09,0.18c0.061,0,0.12,0,0.18,0c-0.017,0.078,0.014,0.107,0.091,0.09
			c0,0.038,0,0.075,0,0.113c0.06,0,0.12,0,0.18,0c-0.026,0.094,0.034,0.101,0.114,0.09c-0.051,0.14,0.139,0.04,0.089,0.18
			c0.086-0.034,0.14,0.044,0.181,0.09c0.049,0.054,0.05-0.034,0.09,0.068c0.018,0.042,0.062-0.004,0.09,0.022
			c0.008,0.007,0,0.096,0.023,0.113c0.033,0.027,0.132-0.029,0.09,0.09c0.06,0,0.12,0,0.18,0c0.02,0.1,0.081,0.16,0.181,0.18
			c0.005,0.16,0.218,0.112,0.202,0.293c0.031,0,0.061,0,0.091,0c0.118,0.28,0.448,0.348,0.541,0.653c0.038,0,0.075,0,0.112,0
			c0,0.053,0,0.105,0,0.158c0.148,0.137,0.345,0.226,0.384,0.473c0.103-0.006,0.056,0.139,0.18,0.112
			c-0.011,0.078-0.005,0.139,0.09,0.113c0,0.053,0,0.105,0,0.158c0.028,0.04,0.132,0.005,0.091,0.113c0.037,0,0.075,0,0.112,0
			c0,0.052,0,0.104,0,0.157c0.201,0.055,0.132,0.379,0.36,0.406c0.008,0.082-0.041,0.221,0.09,0.18
			c-0.021,0.127,0.01,0.201,0.113,0.203c0.008,0.082-0.041,0.221,0.09,0.18c-0.059,0.202,0.132,0.153,0.09,0.338
			c0.007,0.03,0.057,0.02,0.09,0.023c0.014,0.084-0.049,0.245,0.09,0.203c0.01,0.082-0.041,0.222,0.092,0.18
			c0.013,0.084-0.051,0.245,0.09,0.203c0.053,0.2,0.045,0.348,0.112,0.519c0.018,0.044,0.149,0.05,0.09,0.203
			c0.007,0.03,0.057,0.019,0.091,0.022c0.035,0.115-0.086,0.385,0.09,0.36c0.028,0.099-0.074,0.33,0.09,0.293c0,0.121,0,0.24,0,0.36
			c0.007,0.031,0.057,0.019,0.09,0.022c0.04,0.112-0.002,0.231,0.023,0.338c0.008,0.037,0.053,0,0.067,0.022
			c0.07,0.108-0.009,0.371,0.022,0.473c0.006,0.021,0.066,0.019,0.067,0.023c0.044,0.214,0.011,0.436,0.022,0.698
			c0.008,0.031,0.057,0.019,0.09,0.023c0,0.165,0,0.33,0,0.495c-0.231-0.023-0.146-0.364-0.383-0.383c0-0.053,0-0.105,0-0.158
			c-0.119,0.015-0.042-0.167-0.18-0.135c0-0.053,0-0.105,0-0.158c-0.115,0.009-0.083-0.128-0.203-0.113
			c-0.066-0.212-0.172-0.384-0.361-0.473c0-0.053,0-0.105,0-0.158c-0.217-0.075-0.254-0.33-0.473-0.406c0-0.052,0-0.105,0-0.158
			c-0.027-0.04-0.131-0.005-0.09-0.112c-0.037,0-0.076,0-0.113,0c0.018-0.078-0.012-0.107-0.09-0.091c0-0.03,0-0.06,0-0.09
			c-0.154-0.064-0.188-0.248-0.36-0.292c-0.005-0.161-0.22-0.112-0.203-0.293c-0.029,0-0.06,0-0.09,0
			c-0.052-0.128-0.142-0.219-0.271-0.271c-0.018-0.11-0.105-0.149-0.203-0.18c0.021-0.179-0.184-0.133-0.18-0.293
			c-0.061,0-0.121,0-0.181,0c-0.089-0.197-0.314-0.256-0.383-0.473c-0.06,0-0.12,0-0.181,0c0.027-0.094-0.033-0.101-0.112-0.09
			c0.01-0.159-0.185-0.116-0.181-0.27c-0.083,0.016-0.096-0.039-0.18-0.022c0.05-0.14-0.141-0.041-0.09-0.181
			c-0.061,0-0.121,0-0.18,0c0.025-0.094-0.035-0.101-0.114-0.09c0.05-0.14-0.14-0.041-0.09-0.181
			c-0.146-0.019-0.276-0.053-0.292-0.203c-0.061,0-0.121,0-0.182,0c0.051-0.14-0.139-0.041-0.09-0.18c-0.06,0-0.119,0-0.18,0
			c0-0.03,0-0.061,0-0.09c-0.154-0.004-0.252-0.064-0.293-0.181c-0.061,0-0.12,0-0.18,0c0-0.038,0-0.075,0-0.112
			c-0.061,0-0.121,0-0.182,0c0-0.03,0-0.061,0-0.09c-0.06,0-0.119,0-0.18,0c0.056-0.154-0.168-0.027-0.113-0.181
			c-0.06,0-0.119,0-0.18,0c0-0.03,0-0.061,0-0.09c-0.091-0.007-0.232,0.036-0.203-0.09c-0.06,0-0.12,0-0.18,0
			c0-0.038,0-0.075,0-0.113c-0.061,0-0.121,0-0.181,0c0-0.03,0-0.06,0-0.09c-0.067,0-0.135,0-0.202,0c0-0.03,0-0.061,0-0.091
			c-0.092,0-0.181,0-0.271,0c-0.021-0.196-0.348-0.086-0.383-0.27c-0.112,0.015-0.174-0.021-0.27-0.023c0-0.03,0-0.06,0-0.09
			c-0.091,0-0.181,0-0.271,0c0-0.03,0-0.061,0-0.091c-0.068,0-0.136,0-0.202,0c0-0.03,0-0.06,0-0.09c-0.099,0-0.197,0-0.294,0
			c0-0.03,0-0.06,0-0.09c-0.091,0-0.181,0-0.271,0c0-0.029,0-0.06,0-0.09c-0.133-0.018-0.35,0.049-0.36-0.09
			c-0.119,0.013-0.194-0.017-0.293-0.022c0-0.031,0-0.061,0-0.091c-0.128,0-0.256,0-0.384,0c0-0.03,0-0.06,0-0.09
			c-0.127,0-0.254,0-0.383,0c0-0.03,0-0.06,0-0.09c-0.15,0-0.301,0-0.45,0c0-0.03,0-0.06,0-0.09
			c-0.162-0.026-0.442,0.067-0.474-0.09c-0.223-0.025-0.559,0.062-0.653-0.09c-0.299,0.006-0.583-0.002-0.856-0.022
			c0-0.03,0-0.06,0-0.09c-1.082,0-2.164,0-3.244,0c-0.031,0.007-0.02,0.056-0.022,0.09c-0.286,0.08-0.591-0.053-0.835,0.022
			c-0.02,0.006-0.018,0.067-0.021,0.068c-0.206,0.042-0.43-0.017-0.631,0.022c-0.039,0.007,0,0.053-0.023,0.067
			c-0.145,0.094-0.381-0.027-0.541,0.023c-0.03,0.007-0.019,0.056-0.021,0.09c-0.145,0.043-0.473-0.096-0.474,0.09
			c-0.12,0.037-0.403-0.088-0.384,0.09c-0.112,0-0.225,0-0.338,0c-0.03,0.007-0.019,0.057-0.022,0.091
			c-0.417-0.012-0.598,0.212-1.014,0.202c-0.03,0.007-0.019,0.056-0.022,0.09c-0.1,0.028-0.33-0.075-0.293,0.09
			c-0.096,0.026-0.311-0.069-0.271,0.091c-0.085,0.013-0.245-0.05-0.202,0.09c-0.2,0.053-0.348,0.045-0.52,0.112
			c-0.043,0.018-0.049,0.149-0.202,0.09c-0.03,0.008-0.019,0.057-0.022,0.09c-0.096,0.026-0.31-0.069-0.271,0.091
			c-0.083,0.013-0.244-0.05-0.201,0.09c-0.082,0.009-0.223-0.042-0.181,0.09c-0.219-0.03-0.249,0.126-0.451,0.113
			c-0.03,0.007-0.019,0.057-0.022,0.09c-0.082,0.008-0.221-0.042-0.18,0.09c-0.082,0.008-0.222-0.042-0.181,0.09
			c-0.084,0.014-0.245-0.05-0.203,0.09c-0.127-0.022-0.2,0.009-0.202,0.112c-0.193-0.049-0.14,0.146-0.338,0.09
			c0.006,0.103-0.14,0.056-0.113,0.18c-0.084,0.013-0.245-0.05-0.202,0.09c-0.082,0.008-0.222-0.042-0.181,0.09
			c-0.053,0-0.105,0-0.158,0c-0.049-0.004-0.01,0.08-0.021,0.113c-0.129,0.03-0.243,0.074-0.294,0.181c-0.052,0-0.104,0-0.157,0
			c0.006,0.104-0.139,0.056-0.113,0.18c-0.052,0-0.104,0-0.157,0c0.015,0.119-0.167,0.043-0.135,0.181
			c-0.083,0.014-0.208-0.013-0.181,0.112c-0.172-0.022-0.238,0.062-0.271,0.18c-0.078-0.011-0.14-0.004-0.112,0.09
			c-0.172-0.022-0.238,0.062-0.271,0.18c-0.171-0.005-0.232,0.099-0.293,0.203c-0.052,0-0.105,0-0.157,0
			c0.005,0.104-0.14,0.056-0.113,0.181c-0.078-0.012-0.14-0.005-0.112,0.089c-0.099-0.008-0.196-0.016-0.158,0.113
			c-0.156,0.032-0.231,0.144-0.293,0.271c-0.172-0.022-0.238,0.062-0.271,0.18c-0.037,0-0.075,0-0.112,0c0,0.038,0,0.075,0,0.113
			c-0.093,0.02-0.177,0.049-0.181,0.158c-0.157,0-0.236,0.08-0.27,0.203c-0.155-0.058-0.065,0.131-0.203,0.09
			c0,0.038,0,0.075,0,0.112c-0.078-0.017-0.108,0.012-0.09,0.091c-0.123,0.005-0.197,0.058-0.203,0.18
			c-0.078-0.017-0.107,0.013-0.09,0.09c-0.053,0-0.105,0-0.158,0c-0.04,0.027-0.005,0.131-0.113,0.09c0,0.038,0,0.075,0,0.113
			c-0.129,0.051-0.219,0.142-0.271,0.27c-0.179-0.021-0.132,0.184-0.292,0.18c0,0.038,0,0.075,0,0.113
			c-0.188,0.029-0.177,0.259-0.383,0.27c0,0.061,0,0.12,0,0.18c-0.141-0.05-0.041,0.14-0.181,0.09c0,0.037,0,0.075,0,0.112
			c-0.137,0.045-0.218,0.144-0.271,0.271c-0.155-0.058-0.064,0.131-0.203,0.09c-0.014,0.054,0.029,0.164-0.021,0.18
			c-0.133,0.02-0.041-0.185-0.068-0.27c0.029,0,0.06,0,0.09,0c0-0.098,0-0.195,0-0.293c0.03,0,0.061,0,0.09,0c0-0.09,0-0.18,0-0.27
			c0.031,0,0.061,0,0.09,0c0.014-0.115-0.035-0.292,0.091-0.293c-0.05-0.229,0.121-0.239,0.091-0.451
			c0.025-0.018,0.06-0.029,0.112-0.022c0-0.09,0-0.18,0-0.27c0.03,0,0.06,0,0.09,0c0-0.061,0-0.121,0-0.181c0.03,0,0.061,0,0.091,0
			c0-0.067,0-0.135,0-0.203c0.029,0,0.059,0,0.09,0c0-0.06,0-0.12,0-0.18c0.029,0,0.06,0,0.09,0c0-0.06,0-0.12,0-0.181
			c0.03,0,0.061,0,0.09,0c0-0.067,0-0.135,0-0.203c0.037,0,0.076,0,0.113,0c0-0.06,0-0.12,0-0.18c0.029,0,0.061,0,0.09,0
			c0-0.06,0-0.12,0-0.18c0.03,0,0.06,0,0.09,0c0-0.068,0-0.135,0-0.203c0.029,0,0.061,0,0.09,0c0-0.061,0-0.121,0-0.181
			c0.03,0,0.061,0,0.091,0c-0.017-0.174,0.126-0.189,0.112-0.36c0.03,0,0.061,0,0.09,0c-0.011-0.079-0.004-0.139,0.09-0.113
			c0-0.06,0-0.12,0-0.18c0.031,0,0.061,0,0.09,0c0-0.06,0-0.12,0-0.18c0.17-0.048,0.2-0.236,0.271-0.383c0.037,0,0.075,0,0.113,0
			c0-0.06,0-0.12,0-0.18c0.153,0.055,0.025-0.169,0.18-0.113c0-0.06,0-0.12,0-0.18c0.153,0.003,0.117-0.183,0.27-0.18
			c-0.016-0.084,0.027-0.108,0.023-0.18c0.094,0.026,0.102-0.034,0.09-0.113c0.153,0.003,0.117-0.184,0.271-0.18
			c0.005-0.311,0.3-0.331,0.384-0.563c0.029,0,0.06,0,0.09,0c0-0.061,0-0.121,0-0.181c0.161-0.026,0.205-0.17,0.271-0.292
			c0.179,0.021,0.132-0.183,0.292-0.181c0-0.037,0-0.076,0-0.113c0.133-0.047,0.224-0.138,0.271-0.271
			c0.157-0.031,0.232-0.143,0.294-0.27c0.11-0.047,0.234-0.08,0.27-0.203c0.156-0.031,0.232-0.143,0.293-0.271
			c0.131,0.004,0.165-0.09,0.203-0.18c0.198-0.02,0.287-0.148,0.361-0.292c0.191,0.027,0.24-0.09,0.291-0.203
			c0.174,0.022,0.239-0.062,0.271-0.18c0.078,0.011,0.139,0.004,0.112-0.09c0.081-0.002,0.196,0.031,0.158-0.09
			c0.06,0,0.12,0,0.181,0c-0.006-0.104,0.139-0.056,0.111-0.18c0.105-0.001,0.193-0.017,0.203-0.112c0.054,0,0.105,0,0.158,0
			c-0.006-0.104,0.139-0.056,0.112-0.18c0.082-0.008,0.222,0.041,0.181-0.09c0.082-0.008,0.221,0.041,0.18-0.09
			c0.102-0.004,0.252,0.041,0.203-0.112c0.153,0.061,0.135-0.053,0.203-0.09c0.037-0.021,0.104,0.018,0.135,0
			c0.057-0.031,0.041-0.141,0.203-0.091c0.03-0.006,0.019-0.056,0.023-0.089c0.084-0.013,0.244,0.05,0.202-0.09
			c0.095-0.025,0.31,0.07,0.271-0.09c0.082-0.008,0.221,0.042,0.18-0.09c0.32,0.004,0.41-0.222,0.744-0.203
			c0.031-0.007,0.019-0.056,0.022-0.09c0.095-0.025,0.31,0.07,0.271-0.09c0.114-0.036,0.385,0.085,0.36-0.09
			c0.091,0,0.181,0,0.271,0c0.03-0.007,0.019-0.056,0.022-0.09c0.305,0.02,0.427-0.144,0.743-0.112
			c0.047-0.133,0.282-0.079,0.451-0.09c0.031-0.007,0.019-0.057,0.021-0.09c0.172-0.047,0.539,0.102,0.564-0.089
			c0.211,0,0.42,0,0.631,0c0.031-0.008,0.02-0.057,0.021-0.091c0.309,0,0.617,0,0.926,0c0.029-0.007,0.018-0.056,0.021-0.09
			C100.868,46.499,102.005,46.499,103.037,46.534z"/>
		<path fill-rule="evenodd" clip-rule="evenodd" d="M102.36,57.237c0,0.03,0,0.061,0,0.09c0.376,0,0.752,0,1.127,0
			c0,0.03,0,0.061,0,0.09c0.227,0,0.451,0,0.676,0c0,0.03,0,0.06,0,0.09c0.188,0,0.376,0,0.564,0c0,0.03,0,0.06,0,0.09
			c0.161,0.026,0.441-0.067,0.473,0.09c0.156,0.024,0.424-0.063,0.451,0.091c0.142-0.007,0.266,0.003,0.383,0.022
			c0,0.03,0,0.061,0,0.09c0.127,0,0.255,0,0.383,0c0,0.03,0,0.06,0,0.09c0.098,0,0.195,0,0.293,0c0,0.03,0,0.06,0,0.09
			c0.09,0,0.181,0,0.271,0c0,0.03,0,0.06,0,0.09c0.09,0,0.181,0,0.271,0c0.018,0.021,0.023,0.051,0.022,0.09
			c0.091,0,0.181,0,0.271,0c0,0.031,0,0.061,0,0.091c0.122-0.017,0.182,0.028,0.293,0.023c0,0.03,0,0.06,0,0.089
			c0.09,0,0.18,0,0.27,0c0,0.03,0,0.06,0,0.09c0.061,0,0.12,0,0.181,0c0,0.03,0,0.06,0,0.09c0.091,0,0.181,0,0.271,0
			c0,0.031,0,0.061,0,0.091c0.085,0.013,0.213-0.018,0.203,0.09c0.061,0,0.12,0,0.18,0c0.004,0.086,0.074,0.106,0.181,0.09
			c0.019,0.026,0.03,0.061,0.022,0.113c0.09,0,0.18,0,0.271,0c0,0.03,0,0.06,0,0.091c0.06,0,0.12,0,0.181,0c0,0.029,0,0.06,0,0.09
			c0.067,0,0.135,0,0.202,0c0,0.03,0,0.06,0,0.09c0.16-0.032,0.147,0.108,0.293,0.09c0,0.03,0,0.06,0,0.09c0.053,0,0.105,0,0.158,0
			c0.019,0.026,0.03,0.061,0.022,0.113c0.06,0,0.12,0,0.18,0c0,0.03,0,0.061,0,0.09c0.061,0,0.121,0,0.181,0
			c-0.056,0.153,0.168,0.027,0.112,0.18c0.061,0,0.121,0,0.181,0c0,0.03,0,0.06,0,0.09c0.146,0.02,0.276,0.054,0.293,0.203
			c0.06,0,0.12,0,0.181,0c-0.05,0.139,0.139,0.041,0.09,0.18c0.061,0,0.12,0,0.18,0c-0.026,0.095,0.035,0.101,0.113,0.09
			c0,0.03,0,0.061,0,0.09c0.156-0.037,0.121,0.119,0.27,0.09c-0.057,0.155,0.131,0.064,0.091,0.203c0.067,0,0.136,0,0.202,0
			c-0.002,0.153,0.184,0.117,0.181,0.271c0.149-0.029,0.149,0.091,0.271,0.09c-0.021,0.097,0.017,0.135,0.113,0.113
			c-0.05,0.14,0.139,0.041,0.09,0.18c0.06,0,0.12,0,0.18,0c0,0.031,0,0.061,0,0.091c0.129,0.036,0.158,0.172,0.293,0.202
			c0.096,0.235,0.355,0.306,0.451,0.541c0.037,0,0.074,0,0.112,0c0,0.03,0,0.061,0,0.09c0.219,0.135,0.327,0.379,0.563,0.495
			c0.051,0.129,0.142,0.219,0.271,0.271c-0.011,0.079-0.005,0.14,0.09,0.113c-0.062,0.183,0.126,0.115,0.091,0.271
			c0.037,0,0.075,0,0.112,0c-0.019,0.078,0.013,0.108,0.091,0.09c0.031,0.095,0.049,0.207,0.18,0.203c0,0.045,0,0.09,0,0.135
			c0.131,0.036,0.111,0.219,0.271,0.225c-0.021,0.239,0.228,0.208,0.202,0.451c0.104-0.006,0.057,0.139,0.18,0.113
			c-0.021,0.172,0.063,0.238,0.182,0.27c-0.016,0.083,0.038,0.097,0.022,0.18c0.17,0.018,0.103,0.272,0.271,0.293
			c0.008,0.082-0.041,0.222,0.09,0.181c0,0.06,0,0.12,0,0.18c0.104-0.005,0.056,0.139,0.18,0.113
			c0.007,0.241,0.178,0.319,0.203,0.541c0.008,0.03,0.057,0.019,0.09,0.022c0.014,0.084-0.049,0.246,0.09,0.203
			c0.009,0.082-0.041,0.221,0.091,0.18c0,0.083,0,0.166,0,0.248c0.006,0.047,0.099,0.006,0.112,0.045
			c-0.018,0.19,0.133,0.213,0.091,0.428c0.007,0.031,0.056,0.019,0.091,0.022c0.012,0.084-0.051,0.246,0.089,0.203
			c0.026,0.095-0.069,0.311,0.091,0.271c0.025,0.094-0.07,0.309,0.09,0.271c0,0.09,0,0.18,0,0.27
			c0.007,0.031,0.057,0.019,0.09,0.022c0.062,0.229,0.063,0.415,0.113,0.631c0.008,0.038,0.053,0,0.067,0.023
			c0.057,0.088-0.005,0.249,0.022,0.36c0.007,0.031,0.056,0.018,0.09,0.022c0.043,0.145-0.096,0.472,0.09,0.473
			c0.047,0.171-0.102,0.538,0.091,0.563c0,0.27,0,0.541,0,0.811c0.007,0.031,0.056,0.019,0.09,0.023
			c0.034,0.784,0.034,1.672,0,2.456c-0.03,0-0.06,0-0.09,0c0,0.279,0,0.556,0,0.834c-0.03,0-0.061,0-0.091,0
			c0,0.188,0,0.376,0,0.564c-0.029,0-0.06,0-0.09,0c0,0.158,0,0.315,0,0.473c-0.029,0-0.061,0-0.09,0
			c-0.02,0.139,0.053,0.368-0.09,0.383c-0.018,0.133,0.049,0.35-0.091,0.36c0,0.09,0,0.181,0,0.271
			c-0.026,0.019-0.06,0.03-0.112,0.023c0,0.089,0,0.18,0,0.271c-0.03,0-0.061,0-0.09,0c0,0.097,0,0.195,0,0.292
			c-0.03,0-0.061,0-0.091,0c0,0.09,0,0.181,0,0.271c-0.03,0-0.06,0-0.089,0c0.054,0.242-0.132,0.244-0.091,0.473
			c-0.03,0-0.061,0-0.091,0c0.01,0.106-0.006,0.188-0.022,0.271c-0.03,0-0.06,0-0.09,0c0,0.067,0,0.136,0,0.203
			c-0.03,0-0.06,0-0.091,0c0,0.061,0,0.12,0,0.18c-0.029,0-0.06,0-0.09,0c0,0.068,0,0.135,0,0.203c-0.03,0-0.059,0-0.09,0
			c0,0.06,0,0.12,0,0.18c-0.029,0-0.061,0-0.09,0c0,0.06,0,0.12,0,0.18c-0.03,0-0.061,0-0.09,0c0,0.061,0,0.121,0,0.181
			c-0.026,0.019-0.061,0.029-0.113,0.023c0,0.06,0,0.12,0,0.18c-0.029,0-0.061,0-0.09,0c0,0.061,0,0.121,0,0.181
			c-0.154-0.056-0.027,0.168-0.181,0.113c0.011,0.222-0.157,0.263-0.18,0.451c-0.038,0-0.075,0-0.112,0c0,0.06,0,0.12,0,0.18
			c-0.154-0.057-0.027,0.168-0.182,0.113c0,0.06,0,0.12,0,0.18c-0.14-0.049-0.04,0.14-0.18,0.09
			c-0.011,0.215-0.139,0.312-0.293,0.383c0,0.06,0,0.12,0,0.18c-0.095-0.026-0.101,0.035-0.09,0.113
			c-0.16-0.01-0.116,0.185-0.271,0.181c0.016,0.083-0.039,0.097-0.022,0.18c-0.14-0.049-0.041,0.14-0.181,0.09
			c0,0.038,0,0.075,0,0.113c-0.216,0.061-0.238,0.318-0.474,0.36c0,0.06,0,0.12,0,0.18c-0.1,0.021-0.16,0.081-0.18,0.181
			c-0.092-0.016-0.129,0.022-0.112,0.112c-0.129,0.052-0.22,0.142-0.271,0.271c-0.1,0.021-0.16,0.081-0.181,0.181
			c-0.157,0-0.236,0.079-0.271,0.203c-0.154-0.058-0.064,0.13-0.203,0.089c0,0.038,0,0.076,0,0.114
			c-0.076-0.019-0.107,0.012-0.09,0.089c-0.095,0.033-0.206,0.05-0.202,0.181c-0.236-0.056-0.19,0.17-0.36,0.18
			c0,0.037,0,0.075,0,0.113c-0.213,0.065-0.385,0.172-0.474,0.36c-0.053,0-0.105,0-0.158,0c0.015,0.12-0.167,0.043-0.136,0.18
			c-0.147,0.009-0.24,0.074-0.27,0.203c-0.172-0.022-0.238,0.062-0.271,0.18c-0.06,0-0.12,0-0.18,0
			c0.005,0.104-0.14,0.056-0.112,0.18c-0.196,0.06-0.396,0.116-0.475,0.293c-0.082,0.008-0.221-0.042-0.18,0.09
			c-0.082,0.007-0.222-0.042-0.18,0.089c-0.102,0.005-0.252-0.041-0.203,0.113c-0.082,0.008-0.222-0.042-0.181,0.089
			c-0.206-0.056-0.159,0.141-0.36,0.091c-0.031,0.007-0.019,0.056-0.022,0.09c-0.082,0.007-0.222-0.042-0.181,0.09
			c-0.082,0.008-0.221-0.042-0.18,0.09c-0.084,0.014-0.245-0.05-0.203,0.091c-0.093-0.003-0.142,0.039-0.248,0.022
			c-0.059,0.167-0.371,0.079-0.404,0.271c-0.096,0.026-0.311-0.069-0.271,0.09c-0.1,0.028-0.329-0.074-0.293,0.091
			c-0.083,0-0.166,0-0.248,0c-0.047,0.005-0.006,0.099-0.045,0.112c-0.095,0.025-0.311-0.069-0.271,0.09
			c-0.265-0.055-0.291,0.129-0.54,0.09c-0.031,0.007-0.02,0.057-0.023,0.09c-0.114,0.036-0.385-0.084-0.36,0.091
			c-0.12,0.038-0.403-0.088-0.383,0.09c-0.12,0-0.24,0-0.36,0c-0.031,0.007-0.02,0.057-0.023,0.09
			c-0.131,0.026-0.289,0.025-0.45,0.022c-0.067,0.151-0.366,0.069-0.563,0.09c-0.067,0.15-0.367,0.068-0.563,0.089
			c-0.03,0.008-0.019,0.057-0.022,0.09c-0.308,0-0.615,0-0.924,0c-0.03,0.007-0.018,0.057-0.022,0.09c-1.028,0-2.058,0-3.087,0
			c0-0.03,0-0.06,0-0.09c-0.285,0-0.572,0-0.857,0c0-0.03,0-0.06,0-0.09c-0.215-0.033-0.574,0.08-0.652-0.089
			c-0.18-0.03-0.496,0.074-0.541-0.09c-0.167,0.001-0.336,0.005-0.474-0.022c0-0.03,0-0.06,0-0.09c-0.128,0-0.255,0-0.382,0
			c0-0.03,0-0.06,0-0.09c-0.129,0-0.256,0-0.384,0c0-0.031,0-0.06,0-0.091c-0.12,0-0.241,0-0.36,0c0-0.03,0-0.06,0-0.09
			c-0.115-0.013-0.291,0.036-0.293-0.09c-0.115-0.013-0.291,0.036-0.293-0.09c-0.113,0.015-0.175-0.021-0.271-0.022
			c0-0.03,0-0.06,0-0.09c-0.097,0-0.195,0-0.292,0c0-0.03,0-0.061,0-0.091c-0.091,0-0.181,0-0.271,0c0-0.03,0-0.06,0-0.09
			c-0.067,0-0.135,0-0.203,0c0-0.029,0-0.06,0-0.089c-0.229,0.05-0.238-0.121-0.45-0.09c0-0.03,0-0.06,0-0.09
			c-0.106,0.009-0.188-0.007-0.271-0.022c0-0.031,0-0.06,0-0.091c-0.067,0-0.135,0-0.203,0c0-0.03,0-0.06,0-0.09
			c-0.067,0-0.135,0-0.203,0c0-0.029,0-0.06,0-0.089c-0.06,0-0.12,0-0.18,0c0-0.03,0-0.06,0-0.09c-0.061,0-0.121,0-0.181,0
			c0-0.031,0-0.06,0-0.091c-0.06,0-0.12,0-0.18,0c-0.01-0.096-0.099-0.111-0.202-0.112c0-0.03,0-0.06,0-0.09
			c-0.061,0-0.121,0-0.182,0c0-0.029,0-0.06,0-0.089c-0.06,0-0.119,0-0.18,0c0.057-0.154-0.168-0.027-0.112-0.181
			c-0.061,0-0.12,0-0.181,0c0-0.03,0-0.06,0-0.09c-0.159,0.032-0.147-0.108-0.293-0.09c0-0.038,0-0.075,0-0.113
			c-0.061,0-0.121,0-0.181,0c0-0.03,0-0.06,0-0.09c-0.06,0-0.12,0-0.18,0c0.05-0.14-0.14-0.041-0.091-0.181
			c-0.247,0.023-0.233-0.217-0.473-0.202c0.049-0.14-0.14-0.041-0.09-0.18c-0.078,0.011-0.14,0.004-0.113-0.091
			c-0.053,0-0.105,0-0.157,0c0.026-0.094-0.034-0.1-0.112-0.089c0.049-0.14-0.141-0.041-0.092-0.18
			c-0.082,0.016-0.096-0.039-0.18-0.022c0.027-0.095-0.034-0.101-0.111-0.09c-0.033-0.179-0.239-0.182-0.271-0.361
			c-0.149,0.03-0.148-0.091-0.271-0.089c-0.073-0.211-0.31-0.262-0.383-0.474c-0.038,0-0.075,0-0.112,0
			c0.017-0.078-0.013-0.107-0.091-0.09c-0.042-0.235-0.299-0.257-0.36-0.473c-0.037,0-0.075,0-0.113,0
			c0.018-0.078-0.012-0.108-0.09-0.09c0.063-0.111-0.059-0.085-0.09-0.112c-0.015-0.014,0.016-0.076,0-0.09
			c-0.055-0.055-0.049,0.036-0.09-0.068c-0.023-0.059-0.056-0.003-0.09-0.09c-0.021-0.051-0.055-0.016-0.09-0.09
			c-0.02-0.038-0.105-0.037-0.113-0.045c-0.047-0.058-0.072-0.162-0.09-0.248c-0.127-0.03-0.125-0.191-0.271-0.203
			c0.012-0.079,0.005-0.14-0.09-0.112c0-0.053,0-0.105,0-0.159c-0.148-0.016-0.142-0.188-0.293-0.202
			c0.012-0.079,0.005-0.14-0.09-0.113c0-0.045,0-0.09,0-0.135c-0.119,0.014-0.043-0.167-0.18-0.135c0-0.053,0-0.105,0-0.158
			c0.004-0.049-0.08-0.01-0.113-0.022c-0.051-0.167-0.112-0.323-0.27-0.383c-0.009-0.083,0.041-0.222-0.091-0.181
			c0-0.052,0-0.105,0-0.158c-0.12,0.014-0.043-0.167-0.181-0.135c-0.014-0.083,0.013-0.208-0.112-0.181
			c0.06-0.202-0.132-0.153-0.091-0.338c-0.119,0.014-0.042-0.167-0.18-0.136c-0.008-0.082,0.041-0.221-0.09-0.18
			c0-0.083,0-0.165,0-0.248c0.004-0.049-0.08-0.01-0.113-0.023c-0.013-0.084,0.051-0.245-0.09-0.203
			c0.06-0.202-0.133-0.153-0.09-0.338c-0.007-0.03-0.057-0.019-0.09-0.022c-0.014-0.084,0.05-0.245-0.091-0.203
			c-0.024-0.095,0.069-0.31-0.09-0.271c0-0.089,0-0.18,0-0.27c0.004-0.049-0.08-0.011-0.112-0.022
			c0.023-0.235-0.146-0.275-0.09-0.541c-0.008-0.031-0.058-0.019-0.091-0.023c-0.025-0.095,0.069-0.31-0.091-0.27
			c-0.027-0.1,0.075-0.33-0.09-0.293c-0.037-0.12,0.089-0.403-0.09-0.383c0-0.143,0-0.286,0-0.428
			c-0.007-0.03-0.057-0.019-0.09-0.023c-0.059-0.692-0.258-1.245-0.203-2.05c-0.007-0.031-0.057-0.019-0.09-0.022
			c0-0.533,0-1.067,0-1.601c0.029,0,0.061,0,0.09,0c0.001-0.352-0.01-0.715,0.022-1.037c0.022,0,0.046,0,0.067,0
			c0.025-0.222-0.062-0.558,0.091-0.653c-0.007-0.172,0.003-0.328,0.022-0.473c0.03,0,0.061,0,0.09,0c0-0.128,0-0.256,0-0.383
			c0.03,0,0.061,0,0.09,0c0-0.12,0-0.24,0-0.361c0.03,0,0.061,0,0.09,0c0-0.127,0-0.255,0-0.383c0.031,0,0.061,0,0.091,0
			c0.015-0.113-0.03-0.287,0.091-0.293c0.012-0.108-0.032-0.271,0.09-0.271c-0.018-0.123,0.027-0.183,0.022-0.292
			c0.03,0,0.06,0,0.09,0c0-0.091,0-0.181,0-0.271c0.03,0,0.06,0,0.09,0c0-0.06,0-0.12,0-0.18c0.03,0,0.061,0,0.091,0
			c0-0.091,0-0.181,0-0.271c0.029,0,0.061,0,0.09,0c0.013-0.084-0.018-0.212,0.09-0.203c0-0.06,0-0.12,0-0.181
			c0.087-0.003,0.105-0.074,0.09-0.18c0.026-0.019,0.061-0.029,0.113-0.022c0-0.06,0-0.121,0-0.181c0.029,0,0.06,0,0.09,0
			c0-0.067,0-0.135,0-0.203c0.03,0,0.061,0,0.09,0c0-0.06,0-0.12,0-0.18c0.031,0,0.061,0,0.09,0
			c0.006-0.212,0.162-0.274,0.182-0.474c0.037,0,0.074,0,0.112,0c0-0.06,0-0.12,0-0.18c0.03,0,0.06,0,0.09,0c0-0.06,0-0.12,0-0.18
			c0.153,0.056,0.026-0.168,0.181-0.113c0-0.053,0-0.105,0-0.158c0.111,0.014,0.05-0.146,0.18-0.113c0-0.06,0-0.12,0-0.18
			c0.037,0,0.076,0,0.113,0c-0.011-0.078-0.005-0.139,0.09-0.112c0-0.053,0-0.105,0-0.158c0.094,0.027,0.101-0.035,0.09-0.112
			c0.029,0,0.061,0,0.09,0c0.031-0.255,0.199-0.373,0.383-0.473c0-0.06,0-0.121,0-0.181c0.227-0.061,0.227-0.345,0.475-0.383
			c0-0.06,0-0.12,0-0.18c0.139,0.05,0.04-0.14,0.18-0.09c0-0.038,0-0.075,0-0.112c0.133-0.048,0.223-0.138,0.27-0.271
			c0.18,0.021,0.133-0.183,0.294-0.18c0-0.038,0-0.075,0-0.112c0.133-0.047,0.224-0.137,0.271-0.27
			c0.251-0.057,0.277-0.338,0.541-0.384c0.029-0.006,0.018-0.056,0.022-0.089c0.155-0.032,0.231-0.144,0.292-0.271
			c0.079,0.011,0.141,0.004,0.113-0.09c0.07-0.019,0.188,0.007,0.157-0.113c0.157-0.032,0.232-0.144,0.294-0.271
			c0.191,0.026,0.24-0.09,0.293-0.203c0.171,0.022,0.237-0.063,0.27-0.181c0.078,0.011,0.14,0.005,0.113-0.09
			c0.045,0,0.09,0,0.135,0c-0.014-0.119,0.168-0.042,0.135-0.18c0.1,0.001,0.225,0.029,0.182-0.112c0.052,0,0.104,0,0.157,0
			c0.056-0.2,0.38-0.13,0.405-0.361c0.084-0.014,0.246,0.05,0.203-0.09c0.1,0.001,0.224,0.029,0.18-0.113
			c0.082-0.008,0.223,0.042,0.18-0.09c0.207,0.056,0.16-0.141,0.361-0.09c0.031-0.007,0.019-0.057,0.022-0.09
			c0.082-0.008,0.222,0.041,0.181-0.09c0.082-0.009,0.222,0.041,0.18-0.091c0.102-0.004,0.252,0.041,0.203-0.113
			c0.285,0.015,0.332-0.208,0.631-0.18c0.03-0.008,0.019-0.057,0.023-0.091c0.081-0.008,0.221,0.042,0.18-0.09
			c0.1-0.028,0.33,0.074,0.293-0.09c0.082-0.008,0.221,0.042,0.18-0.089c0.321-0.017,0.49-0.186,0.812-0.204
			c0.029-0.007,0.018-0.056,0.021-0.09c0.1-0.029,0.329,0.074,0.293-0.09c0.121-0.037,0.404,0.088,0.383-0.09
			c0.091,0,0.181,0,0.271,0c0.03-0.007,0.019-0.057,0.022-0.09c0.107-0.013,0.208-0.033,0.338-0.022
			c0.051-0.137,0.3-0.077,0.473-0.09c0.049-0.132,0.283-0.078,0.452-0.09c0.03-0.007,0.019-0.057,0.021-0.09
			c0.171-0.047,0.538,0.102,0.563-0.09c0.219,0,0.436,0,0.654,0c0.03-0.007,0.018-0.057,0.022-0.09c0.397,0,0.796,0,1.194,0
			c0.03-0.007,0.019-0.056,0.021-0.09C100.995,57.206,101.672,57.218,102.36,57.237z M101.144,59.739
			c-0.48,0.053-1.059,0.007-1.576,0.022c-0.004,0.034,0.008,0.083-0.023,0.09c-0.23,0.018-0.466,0.03-0.721,0.023
			c-0.057,0.16-0.373,0.062-0.563,0.089c-0.024,0.141-0.259,0.071-0.406,0.09c0.005,0.185-0.312,0.048-0.45,0.09
			c0.037,0.164-0.193,0.062-0.293,0.09c0.025,0.176-0.246,0.055-0.361,0.09c0.021,0.155-0.171,0.099-0.292,0.112
			c0.001,0.121-0.162,0.079-0.271,0.09c-0.002,0.126-0.178,0.077-0.293,0.09c0.039,0.159-0.175,0.064-0.271,0.09
			c0.042,0.141-0.118,0.077-0.202,0.09c0.039,0.16-0.176,0.064-0.271,0.09c0.045,0.142-0.08,0.115-0.18,0.113
			c0.029,0.127-0.112,0.083-0.203,0.091c0.014,0.103-0.106,0.073-0.18,0.09c0.042,0.14-0.119,0.077-0.203,0.09
			c0.041,0.131-0.098,0.082-0.18,0.09c0.041,0.132-0.1,0.082-0.181,0.09c-0.004,0.034,0.009,0.083-0.022,0.091
			c-0.166-0.008-0.172,0.143-0.36,0.112c0.041,0.131-0.099,0.082-0.181,0.09c0.033,0.138-0.149,0.061-0.135,0.181
			c-0.045,0-0.091,0-0.136,0c0.042,0.14-0.118,0.077-0.203,0.09c0,0.037,0,0.074,0,0.112c-0.25,0.028-0.286,0.269-0.563,0.27
			c-0.026,0.101-0.078,0.177-0.202,0.181c-0.004,0.033,0.008,0.083-0.022,0.09c-0.172,0.046-0.27,0.167-0.361,0.293
			c-0.053,0-0.104,0-0.158,0c-0.073,0.21-0.295,0.275-0.404,0.45c-0.072-0.011-0.08,0.041-0.158,0.022
			c-0.061,0.127-0.137,0.239-0.293,0.271c0,0.038,0,0.075,0,0.112c-0.245,0.092-0.299,0.378-0.562,0.452c0,0.037,0,0.074,0,0.112
			c-0.179,0.032-0.183,0.239-0.361,0.27c-0.02,0.146-0.053,0.277-0.203,0.293c-0.051,0.128-0.142,0.219-0.271,0.271
			c-0.03,0.193-0.11,0.34-0.292,0.382c0,0.06,0,0.121,0,0.181c-0.14-0.05-0.041,0.139-0.181,0.089c0,0.06,0,0.12,0,0.181
			c-0.229,0.026-0.136,0.375-0.383,0.383c0,0.068,0,0.135,0,0.203c-0.03,0-0.06,0-0.091,0c0,0.053,0,0.105,0,0.158
			c-0.029,0-0.061,0-0.09,0c0,0.068,0,0.136,0,0.203c-0.14-0.05-0.041,0.14-0.18,0.09c-0.008,0.09,0.035,0.231-0.09,0.203
			c0,0.06,0,0.12,0,0.181c-0.037,0-0.076,0-0.113,0c-0.009,0.082,0.041,0.222-0.09,0.18c0,0.09,0,0.18,0,0.271
			c-0.031,0-0.061,0-0.09,0c0,0.067,0,0.135,0,0.203c-0.031,0-0.061,0-0.091,0c-0.007,0.09,0.036,0.231-0.09,0.202
			c-0.012,0.109,0.03,0.272-0.091,0.271c0.016,0.113-0.021,0.174-0.021,0.27c-0.03,0-0.061,0-0.092,0c0,0.098,0,0.196,0,0.293
			c-0.029,0-0.059,0-0.09,0c0,0.09,0,0.181,0,0.271c-0.029,0-0.059,0-0.09,0c0,0.097,0,0.195,0,0.292c-0.029,0-0.06,0-0.09,0
			c-0.02,0.138,0.054,0.369-0.09,0.383c-0.023,0.166,0.061,0.436-0.091,0.474c0.017,0.211-0.022,0.367-0.022,0.563
			c-0.029,0-0.061,0-0.09,0c0,0.308,0,0.616,0,0.924c-0.03,0-0.06,0-0.09,0c0,0.534,0,1.067,0,1.601
			c0.033,0.003,0.083-0.008,0.09,0.022c0,0.278,0,0.556,0,0.833c0.189,0.036,0.082,0.369,0.112,0.563
			c0.137,0.044,0.071,0.29,0.091,0.45c0.144,0.015,0.07,0.245,0.09,0.384c0.175-0.025,0.055,0.246,0.09,0.36
			c0.164-0.037,0.062,0.194,0.09,0.292c0.16-0.039,0.065,0.176,0.09,0.271c0.057-0.003,0.111-0.004,0.113,0.045
			c-0.021,0.193,0.141,0.206,0.091,0.428c0.106-0.01,0.077,0.118,0.09,0.202c0.159-0.039,0.065,0.176,0.091,0.271
			c0.131-0.041,0.082,0.099,0.09,0.18c0.14-0.042,0.076,0.119,0.09,0.204c0.142-0.044,0.114,0.081,0.113,0.18
			c0.131-0.042,0.081,0.099,0.09,0.181c0.127-0.029,0.082,0.112,0.09,0.203c0.131-0.041,0.082,0.098,0.09,0.18
			c0.138-0.032,0.061,0.15,0.181,0.135c0,0.045,0,0.09,0,0.135c0.142-0.038,0.112,0.099,0.112,0.203
			c0.117,0.033,0.203,0.099,0.18,0.271c0.158,0.007,0.142,0.19,0.271,0.226c0,0.052,0,0.105,0,0.158
			c0.15,0.007,0.176,0.139,0.202,0.27c0.095-0.026,0.101,0.035,0.09,0.113c0.133,0.078,0.284,0.138,0.271,0.361
			c0.125,0.01,0.193,0.078,0.203,0.203c0.173,0.045,0.207,0.229,0.361,0.292c0,0.03,0,0.06,0,0.09
			c0.136,0.044,0.216,0.145,0.27,0.271c0.038,0,0.075,0,0.113,0c-0.041,0.139,0.146,0.048,0.09,0.203
			c0.139,0.05,0.264,0.111,0.293,0.271c0.158,0.083,0.278,0.202,0.361,0.36c0.154,0.011,0.271,0.059,0.291,0.203
			c0.102,0.02,0.162,0.08,0.182,0.181c0.06,0,0.119,0,0.18,0c0,0.158,0.209,0.106,0.203,0.27c0.083-0.016,0.097,0.039,0.18,0.022
			c-0.049,0.14,0.141,0.041,0.09,0.181c0.061,0,0.121,0,0.182,0c-0.027,0.094,0.033,0.101,0.112,0.089c0,0.03,0,0.061,0,0.09
			c0.14,0.011,0.251,0.049,0.271,0.181c0.061,0,0.12,0,0.18,0c0.02,0.026,0.03,0.061,0.023,0.112c0.06,0,0.119,0,0.18,0
			c-0.049,0.139,0.14,0.041,0.09,0.18c0.068,0,0.136,0,0.203,0c0,0.03,0,0.06,0,0.091c0.26-0.006,0.297,0.214,0.563,0.203
			c0,0.03,0,0.06,0,0.09c0.06,0,0.12,0,0.18,0c0,0.03,0,0.06,0,0.089c0.061,0,0.12,0,0.181,0c0,0.03,0,0.06,0,0.091
			c0.068,0,0.135,0,0.203,0c0,0.03,0,0.06,0,0.09c0.108,0.011,0.271-0.031,0.27,0.089c0.074,0.017,0.194-0.013,0.182,0.09
			c0.06,0,0.119,0,0.18,0c0.02,0.026,0.029,0.061,0.022,0.112c0.09,0,0.181,0,0.271,0c0,0.031,0,0.061,0,0.091
			c0.098,0,0.195,0,0.293,0c0,0.03,0,0.06,0,0.09c0.09,0,0.18,0,0.271,0c0,0.03,0,0.06,0,0.09c0.114,0.013,0.29-0.036,0.292,0.09
			c0.09,0,0.182,0,0.271,0c0,0.03,0,0.06,0,0.09c0.142-0.007,0.266,0.004,0.383,0.022c0,0.03,0,0.06,0,0.09c0.128,0,0.255,0,0.383,0
			c0,0.031,0,0.061,0,0.091c0.15,0,0.301,0,0.451,0c0,0.03,0,0.06,0,0.09c0.157,0,0.314,0,0.473,0c0,0.03,0,0.06,0,0.09
			c0.223,0.025,0.559-0.062,0.654,0.09c0.367-0.016,0.684,0.021,1.035,0.022c0,0.023,0,0.045,0,0.068c0.685,0,1.367,0,2.051,0
			c0.004-0.026-0.004-0.064,0.023-0.068c0.311-0.011,0.612-0.033,0.945-0.022c0.09-0.151,0.416-0.066,0.632-0.09
			c0.007-0.188,0.345-0.046,0.495-0.09c-0.004-0.185,0.312-0.048,0.451-0.09c-0.021-0.178,0.263-0.053,0.383-0.091
			c-0.014-0.17,0.223-0.092,0.361-0.112c0.001-0.126,0.178-0.077,0.293-0.09c0.002-0.125,0.178-0.077,0.293-0.09
			c-0.041-0.16,0.175-0.065,0.27-0.09c-0.036-0.165,0.193-0.062,0.293-0.09c-0.039-0.159,0.176-0.065,0.271-0.091
			c0.013-0.032-0.026-0.115,0.022-0.112c0.213,0.033,0.215-0.145,0.451-0.09c-0.041-0.131,0.098-0.083,0.18-0.09
			c-0.041-0.132,0.099-0.082,0.181-0.09c-0.042-0.14,0.118-0.077,0.202-0.091c-0.041-0.131,0.099-0.082,0.181-0.089
			c0.005-0.034-0.008-0.083,0.022-0.09c0.23-0.018,0.306-0.19,0.541-0.203c-0.041-0.132,0.098-0.082,0.18-0.091
			c-0.042-0.14,0.119-0.076,0.203-0.089c-0.026-0.125,0.119-0.078,0.113-0.181c0.217,0,0.211-0.225,0.45-0.203
			c0.032-0.118,0.099-0.202,0.271-0.18c-0.027-0.095,0.034-0.102,0.113-0.091c-0.025-0.122,0.086-0.108,0.18-0.112
			c0.02-0.131,0.131-0.169,0.271-0.181c0.062-0.126,0.137-0.239,0.293-0.27c-0.028-0.125,0.098-0.098,0.181-0.113
			c0.049-0.168,0.229-0.207,0.293-0.361c0.029,0,0.06,0,0.09,0c0.076-0.141,0.156-0.278,0.359-0.292
			c0.027-0.101,0.08-0.177,0.203-0.181c0.021-0.1,0.08-0.16,0.181-0.18c-0.011-0.079-0.004-0.14,0.09-0.112
			c0.013-0.146,0.085-0.231,0.203-0.271c0.021-0.1,0.08-0.16,0.181-0.18c0-0.038,0-0.075,0-0.112
			c0.153,0.002,0.117-0.184,0.271-0.181c0.015-0.142,0.046-0.268,0.202-0.27c0-0.038,0-0.075,0-0.113
			c0.14,0.05,0.041-0.139,0.181-0.09c0-0.06,0-0.12,0-0.18c0.14,0.05,0.04-0.14,0.181-0.09c0.02-0.147,0.053-0.277,0.202-0.293
			c0-0.06,0-0.12,0-0.181c0.14,0.05,0.041-0.139,0.181-0.09c0-0.06,0-0.12,0-0.18c0.153,0.056,0.026-0.169,0.18-0.113
			c0-0.06,0-0.12,0-0.181c0.029,0,0.061,0,0.091,0c-0.017-0.083,0.038-0.097,0.022-0.18c0.03,0,0.06,0,0.09,0
			c0-0.06,0-0.121,0-0.181c0.03,0,0.061,0,0.09,0c0-0.067,0-0.134,0-0.203c0.03,0,0.061,0,0.09,0c0-0.06,0-0.12,0-0.18
			c0.031,0,0.061,0,0.091,0c0.007-0.083-0.013-0.193,0.09-0.181c-0.03-0.196,0.133-0.197,0.113-0.383c0.03,0,0.06,0,0.09,0
			c0-0.067,0-0.134,0-0.203c0.03,0,0.06,0,0.09,0c0-0.09,0-0.18,0-0.271c0.03,0,0.061,0,0.091,0c0-0.09,0-0.18,0-0.27
			c0.029,0,0.06,0,0.09,0c0.013-0.115-0.036-0.292,0.09-0.293c0.012-0.108-0.031-0.271,0.09-0.27
			c-0.014-0.119,0.018-0.194,0.023-0.293c0.029,0,0.06,0,0.09,0c0-0.128,0-0.255,0-0.383c0.029,0,0.061,0,0.09,0
			c0-0.15,0-0.3,0-0.45c0.03,0,0.06,0,0.09,0c0-0.166,0-0.331,0-0.496c0.031,0,0.061,0,0.091,0
			c-0.011-0.265,0.009-0.502,0.022-0.744c0.022,0,0.045,0,0.067,0c0-0.721,0-1.442,0-2.163c-0.026-0.003-0.063,0.004-0.067-0.022
			c-0.002-0.246-0.038-0.458-0.022-0.722c-0.192-0.025-0.043-0.392-0.091-0.563c-0.185,0.004-0.048-0.312-0.09-0.45
			c-0.164,0.037-0.062-0.194-0.09-0.293c-0.172,0.005-0.092-0.239-0.113-0.383c-0.126-0.001-0.077-0.178-0.09-0.293
			c-0.127,0.007-0.078-0.162-0.09-0.271c-0.16,0.04-0.064-0.175-0.09-0.27c-0.141,0.042-0.076-0.119-0.091-0.204
			c-0.159,0.04-0.064-0.175-0.09-0.27c-0.142,0.044-0.114-0.081-0.112-0.181c-0.127,0.029-0.084-0.112-0.091-0.203
			c-0.103,0.014-0.073-0.106-0.09-0.18c-0.132,0.041-0.081-0.098-0.091-0.18c-0.14,0.042-0.076-0.12-0.09-0.203
			c-0.131,0.042-0.082-0.099-0.09-0.181c-0.142,0.044-0.115-0.081-0.112-0.18c-0.13-0.028-0.163-0.153-0.181-0.293
			c-0.131,0.042-0.082-0.098-0.09-0.18c-0.127-0.032-0.205-0.111-0.181-0.293c-0.175-0.044-0.271-0.164-0.292-0.361
			c-0.159-0.006-0.141-0.189-0.271-0.225c0-0.053,0-0.105,0-0.157c-0.219-0.014-0.188-0.276-0.383-0.316c0-0.053,0-0.105,0-0.157
			c-0.1-0.021-0.16-0.081-0.18-0.181c-0.15-0.046-0.248-0.144-0.294-0.292c-0.128-0.052-0.218-0.142-0.271-0.271
			c-0.148-0.046-0.246-0.144-0.293-0.293c-0.128-0.051-0.219-0.142-0.27-0.271c-0.038,0-0.075,0-0.113,0
			c0.05-0.14-0.139-0.04-0.09-0.18c-0.084,0.016-0.096-0.038-0.18-0.022c0.002-0.153-0.184-0.117-0.181-0.27
			c-0.079,0.011-0.14,0.003-0.113-0.091c-0.155,0.037-0.121-0.118-0.271-0.09c0.041-0.138-0.146-0.047-0.09-0.203
			c-0.06,0-0.12,0-0.18,0c0.056-0.154-0.169-0.027-0.113-0.181c-0.06,0-0.12,0-0.18,0c0.049-0.139-0.14-0.04-0.09-0.18
			c-0.146-0.019-0.277-0.053-0.293-0.202c-0.061,0-0.121,0-0.181,0c0.05-0.14-0.14-0.041-0.091-0.181c-0.066,0-0.135,0-0.202,0
			c0.05-0.163-0.188-0.036-0.157-0.18c-0.158-0.008-0.289-0.042-0.293-0.203c-0.068,0-0.137,0-0.203,0c0-0.03,0-0.06,0-0.09
			c-0.061,0-0.12,0-0.181,0c0-0.03,0-0.06,0-0.09c-0.061,0-0.12,0-0.181,0c0-0.03,0-0.06,0-0.09
			c-0.314,0.037-0.362-0.193-0.652-0.181c-0.02-0.026-0.031-0.06-0.023-0.113c-0.09,0-0.18,0-0.27,0c0-0.03,0-0.06,0-0.09
			c-0.061,0-0.121,0-0.181,0c0-0.03,0-0.06,0-0.09c-0.09,0-0.181,0-0.271,0c0-0.03,0-0.06,0-0.09
			c-0.115-0.013-0.291,0.036-0.293-0.09c-0.108-0.011-0.271,0.031-0.271-0.09c-0.118,0.014-0.193-0.016-0.293-0.022
			c0-0.03,0-0.06,0-0.09c-0.098,0-0.195,0-0.293,0c0-0.03,0-0.06,0-0.09c-0.128,0-0.255,0-0.383,0c0-0.03,0-0.06,0-0.09
			c-0.12,0-0.239,0-0.36,0c0-0.03,0-0.061,0-0.09c-0.162-0.025-0.443,0.066-0.474-0.09c-0.189-0.028-0.507,0.071-0.563-0.089
			c-0.262,0.006-0.507-0.004-0.743-0.023c0-0.03,0-0.06,0-0.09c-0.503,0-1.007,0-1.51,0c0-0.03,0-0.06,0-0.09
			c-0.128,0-0.255,0-0.384,0C101.144,59.693,101.144,59.716,101.144,59.739z"/>
		<path fill-rule="evenodd" clip-rule="evenodd" fill="#FFFFFF" d="M101.144,59.671c0.129,0,0.256,0,0.384,0c0,0.03,0,0.06,0,0.09
			c0.503,0,1.007,0,1.51,0c0,0.03,0,0.06,0,0.09c0.236,0.019,0.481,0.029,0.743,0.023c0.057,0.16,0.374,0.062,0.563,0.089
			c0.03,0.157,0.312,0.065,0.474,0.09c0,0.03,0,0.061,0,0.09c0.121,0,0.24,0,0.36,0c0,0.03,0,0.06,0,0.09c0.128,0,0.255,0,0.383,0
			c0,0.03,0,0.06,0,0.09c0.098,0,0.195,0,0.293,0c0,0.03,0,0.06,0,0.09c0.1,0.006,0.175,0.036,0.293,0.022
			c-0.001,0.121,0.162,0.079,0.271,0.09c0.002,0.126,0.178,0.077,0.293,0.09c0,0.03,0,0.061,0,0.09c0.09,0,0.181,0,0.271,0
			c0,0.03,0,0.06,0,0.09c0.06,0,0.12,0,0.181,0c0,0.03,0,0.06,0,0.09c0.09,0,0.18,0,0.27,0c-0.008,0.053,0.004,0.087,0.023,0.113
			c0.29-0.013,0.338,0.217,0.652,0.181c0,0.03,0,0.06,0,0.09c0.061,0,0.12,0,0.181,0c0,0.03,0,0.06,0,0.09c0.061,0,0.12,0,0.181,0
			c0,0.03,0,0.061,0,0.09c0.066,0,0.135,0,0.203,0c0.004,0.161,0.135,0.195,0.293,0.203c-0.031,0.144,0.207,0.017,0.157,0.18
			c0.067,0,0.136,0,0.202,0c-0.049,0.14,0.141,0.041,0.091,0.181c0.06,0,0.12,0,0.181,0c0.016,0.149,0.146,0.183,0.293,0.202
			c-0.05,0.14,0.139,0.041,0.09,0.18c0.06,0,0.12,0,0.18,0c-0.056,0.154,0.169,0.027,0.113,0.181c0.06,0,0.12,0,0.18,0
			c-0.057,0.155,0.131,0.064,0.09,0.203c0.149-0.028,0.115,0.127,0.271,0.09c-0.026,0.094,0.034,0.102,0.113,0.091
			c-0.003,0.153,0.183,0.117,0.181,0.27c0.084-0.016,0.096,0.038,0.18,0.022c-0.049,0.14,0.14,0.041,0.09,0.18
			c0.038,0,0.075,0,0.113,0c0.051,0.129,0.142,0.22,0.27,0.271c0.047,0.15,0.145,0.248,0.293,0.293
			c0.053,0.128,0.143,0.219,0.271,0.271c0.046,0.149,0.144,0.247,0.294,0.292c0.02,0.1,0.08,0.16,0.18,0.181
			c0,0.052,0,0.104,0,0.157c0.194,0.04,0.164,0.302,0.383,0.316c0,0.052,0,0.104,0,0.157c0.131,0.036,0.112,0.219,0.271,0.225
			c0.021,0.197,0.117,0.317,0.292,0.361c-0.024,0.183,0.054,0.262,0.181,0.293c0.008,0.082-0.041,0.221,0.09,0.18
			c0.018,0.14,0.051,0.266,0.181,0.293c-0.003,0.099-0.029,0.224,0.112,0.18c0.008,0.082-0.041,0.222,0.09,0.181
			c0.014,0.083-0.05,0.245,0.09,0.203c0.01,0.082-0.041,0.221,0.091,0.18c0.017,0.074-0.013,0.193,0.09,0.18
			c0.007,0.091-0.036,0.232,0.091,0.203c-0.002,0.1-0.029,0.225,0.112,0.181c0.025,0.094-0.069,0.31,0.09,0.27
			c0.015,0.084-0.05,0.246,0.091,0.204c0.025,0.095-0.07,0.31,0.09,0.27c0.012,0.109-0.037,0.278,0.09,0.271
			c0.013,0.115-0.036,0.292,0.09,0.293c0.021,0.144-0.059,0.388,0.113,0.383c0.028,0.1-0.074,0.33,0.09,0.293
			c0.042,0.138-0.095,0.455,0.09,0.45c0.048,0.171-0.102,0.538,0.091,0.563c-0.016,0.264,0.021,0.476,0.022,0.722
			c0.004,0.026,0.041,0.019,0.067,0.022c0,0.721,0,1.442,0,2.163c-0.022,0-0.045,0-0.067,0c-0.014,0.242-0.033,0.479-0.022,0.744
			c-0.03,0-0.06,0-0.091,0c0,0.166,0,0.331,0,0.496c-0.03,0-0.06,0-0.09,0c0,0.15,0,0.3,0,0.45c-0.029,0-0.061,0-0.09,0
			c0,0.128,0,0.255,0,0.383c-0.03,0-0.061,0-0.09,0c-0.006,0.099-0.037,0.174-0.023,0.293c-0.121-0.001-0.078,0.162-0.09,0.27
			c-0.126,0.002-0.077,0.178-0.09,0.293c-0.03,0-0.061,0-0.09,0c0,0.09,0,0.18,0,0.27c-0.03,0-0.061,0-0.091,0
			c0,0.091,0,0.181,0,0.271c-0.03,0-0.06,0-0.09,0c0,0.068,0,0.135,0,0.203c-0.03,0-0.06,0-0.09,0
			c0.02,0.186-0.144,0.187-0.113,0.383c-0.103-0.012-0.083,0.098-0.09,0.181c-0.03,0-0.06,0-0.091,0c0,0.06,0,0.12,0,0.18
			c-0.029,0-0.06,0-0.09,0c0,0.068,0,0.135,0,0.203c-0.029,0-0.06,0-0.09,0c0,0.06,0,0.121,0,0.181c-0.03,0-0.06,0-0.09,0
			c0.016,0.083-0.039,0.097-0.022,0.18c-0.03,0-0.062,0-0.091,0c0,0.061,0,0.121,0,0.181c-0.153-0.056-0.026,0.168-0.18,0.113
			c0,0.06,0,0.12,0,0.18c-0.14-0.049-0.041,0.14-0.181,0.09c0,0.061,0,0.121,0,0.181c-0.149,0.016-0.183,0.146-0.202,0.293
			c-0.141-0.05-0.041,0.14-0.181,0.09c0,0.06,0,0.12,0,0.18c-0.14-0.049-0.041,0.14-0.181,0.09c0,0.038,0,0.075,0,0.113
			c-0.156,0.002-0.188,0.128-0.202,0.27c-0.153-0.003-0.117,0.184-0.271,0.181c0,0.037,0,0.074,0,0.112
			c-0.101,0.02-0.16,0.08-0.181,0.18c-0.118,0.04-0.19,0.125-0.203,0.271c-0.094-0.027-0.101,0.033-0.09,0.112
			c-0.101,0.02-0.16,0.08-0.181,0.18c-0.123,0.004-0.176,0.08-0.203,0.181c-0.203,0.014-0.283,0.151-0.359,0.292
			c-0.03,0-0.061,0-0.09,0c-0.064,0.154-0.244,0.192-0.293,0.361c-0.083,0.015-0.209-0.012-0.181,0.113
			c-0.156,0.031-0.231,0.144-0.293,0.27c-0.14,0.012-0.251,0.05-0.271,0.181c-0.094,0.004-0.205-0.01-0.18,0.112
			c-0.079-0.011-0.141-0.004-0.113,0.091c-0.172-0.022-0.238,0.062-0.271,0.18c-0.239-0.021-0.233,0.203-0.45,0.203
			c0.006,0.103-0.14,0.056-0.113,0.181c-0.084,0.013-0.245-0.05-0.203,0.089c-0.082,0.009-0.221-0.041-0.18,0.091
			c-0.235,0.013-0.311,0.185-0.541,0.203c-0.03,0.007-0.018,0.056-0.022,0.09c-0.082,0.008-0.222-0.042-0.181,0.089
			c-0.084,0.014-0.244-0.049-0.202,0.091c-0.082,0.008-0.222-0.042-0.181,0.09c-0.082,0.007-0.221-0.042-0.18,0.09
			c-0.236-0.055-0.238,0.123-0.451,0.09c-0.049-0.003-0.01,0.08-0.022,0.112c-0.095,0.026-0.31-0.068-0.271,0.091
			c-0.1,0.028-0.329-0.074-0.293,0.09c-0.095,0.025-0.311-0.07-0.27,0.09c-0.115,0.013-0.291-0.036-0.293,0.09
			c-0.115,0.013-0.292-0.036-0.293,0.09c-0.139,0.02-0.375-0.058-0.361,0.112c-0.12,0.038-0.403-0.087-0.383,0.091
			c-0.139,0.042-0.455-0.095-0.451,0.09c-0.15,0.044-0.488-0.098-0.495,0.09c-0.216,0.024-0.542-0.061-0.632,0.09
			c-0.333-0.011-0.635,0.011-0.945,0.022c-0.027,0.004-0.02,0.042-0.023,0.068c-0.684,0-1.366,0-2.051,0c0-0.023,0-0.045,0-0.068
			c-0.352-0.001-0.668-0.038-1.035-0.022c-0.096-0.153-0.432-0.065-0.654-0.09c0-0.03,0-0.06,0-0.09c-0.158,0-0.315,0-0.473,0
			c0-0.03,0-0.06,0-0.09c-0.15,0-0.301,0-0.451,0c0-0.03,0-0.06,0-0.091c-0.128,0-0.255,0-0.383,0c0-0.03,0-0.06,0-0.09
			c-0.117-0.019-0.241-0.029-0.383-0.022c0-0.03,0-0.061,0-0.09c-0.09,0-0.182,0-0.271,0c-0.002-0.125-0.178-0.077-0.292-0.09
			c0-0.03,0-0.06,0-0.09c-0.091,0-0.181,0-0.271,0c0-0.03,0-0.061,0-0.09c-0.098,0-0.195,0-0.293,0c0-0.03,0-0.06,0-0.091
			c-0.09,0-0.181,0-0.271,0c0.007-0.052-0.003-0.086-0.022-0.112c-0.061,0-0.12,0-0.18,0c0.013-0.104-0.107-0.073-0.182-0.09
			c0.002-0.121-0.161-0.078-0.27-0.089c0-0.03,0-0.06,0-0.09c-0.068,0-0.135,0-0.203,0c0-0.031,0-0.061,0-0.091
			c-0.061,0-0.12,0-0.181,0c0-0.03,0-0.06,0-0.089c-0.06,0-0.12,0-0.18,0c0-0.03,0-0.06,0-0.09
			c-0.267,0.011-0.304-0.208-0.563-0.203c0-0.031,0-0.061,0-0.091c-0.067,0-0.135,0-0.203,0c0.05-0.139-0.139-0.041-0.09-0.18
			c-0.061,0-0.12,0-0.18,0c0.007-0.052-0.004-0.086-0.023-0.112c-0.06,0-0.119,0-0.18,0c-0.02-0.132-0.131-0.17-0.271-0.181
			c0-0.03,0-0.06,0-0.09c-0.079,0.011-0.14,0.005-0.112-0.089c-0.061,0-0.121,0-0.182,0c0.051-0.14-0.139-0.041-0.09-0.181
			c-0.083,0.017-0.097-0.039-0.18-0.022c0.006-0.164-0.203-0.112-0.203-0.27c-0.061,0-0.12,0-0.18,0
			c-0.02-0.101-0.08-0.161-0.182-0.181c-0.02-0.145-0.137-0.192-0.291-0.203c-0.083-0.158-0.203-0.278-0.361-0.36
			c-0.029-0.159-0.154-0.221-0.293-0.271c0.057-0.155-0.131-0.064-0.09-0.203c-0.038,0-0.075,0-0.113,0
			c-0.054-0.125-0.134-0.226-0.27-0.271c0-0.03,0-0.06,0-0.09c-0.154-0.063-0.188-0.248-0.361-0.292
			c-0.01-0.125-0.078-0.192-0.203-0.203c0.014-0.223-0.138-0.283-0.271-0.361c0.011-0.078,0.005-0.139-0.09-0.113
			c-0.026-0.131-0.052-0.263-0.202-0.27c0-0.053,0-0.105,0-0.158c-0.13-0.036-0.113-0.218-0.271-0.226
			c0.023-0.172-0.062-0.237-0.18-0.271c0-0.104,0.029-0.24-0.112-0.203c0-0.045,0-0.09,0-0.135c-0.12,0.015-0.043-0.167-0.181-0.135
			c-0.008-0.082,0.041-0.221-0.09-0.18c-0.008-0.09,0.037-0.231-0.09-0.203c-0.009-0.082,0.041-0.222-0.09-0.181
			c0.001-0.099,0.028-0.224-0.113-0.18c-0.014-0.084,0.05-0.246-0.09-0.204c-0.008-0.081,0.041-0.221-0.09-0.18
			c-0.025-0.095,0.068-0.31-0.091-0.271c-0.013-0.084,0.017-0.212-0.09-0.202c0.05-0.223-0.111-0.235-0.091-0.428
			c-0.002-0.049-0.057-0.048-0.113-0.045c-0.024-0.094,0.07-0.309-0.09-0.271c-0.027-0.099,0.074-0.33-0.09-0.292
			c-0.035-0.115,0.085-0.385-0.09-0.36c-0.02-0.139,0.054-0.369-0.09-0.384c-0.02-0.16,0.046-0.406-0.091-0.45
			c-0.03-0.194,0.077-0.528-0.112-0.563c0-0.278,0-0.556,0-0.833c-0.007-0.031-0.057-0.019-0.09-0.022c0-0.533,0-1.067,0-1.601
			c0.03,0,0.06,0,0.09,0c0-0.308,0-0.616,0-0.924c0.029,0,0.061,0,0.09,0c0-0.196,0.039-0.352,0.022-0.563
			c0.151-0.038,0.067-0.308,0.091-0.474c0.144-0.014,0.07-0.245,0.09-0.383c0.03,0,0.061,0,0.09,0c0-0.098,0-0.195,0-0.292
			c0.031,0,0.061,0,0.09,0c0-0.09,0-0.181,0-0.271c0.031,0,0.061,0,0.09,0c0-0.097,0-0.195,0-0.293c0.031,0,0.062,0,0.092,0
			c0.001-0.096,0.037-0.157,0.021-0.27c0.121,0.001,0.079-0.162,0.091-0.271c0.126,0.029,0.083-0.112,0.09-0.202
			c0.03,0,0.06,0,0.091,0c0-0.068,0-0.135,0-0.203c0.029,0,0.059,0,0.09,0c0-0.091,0-0.181,0-0.271
			c0.131,0.042,0.081-0.098,0.09-0.18c0.037,0,0.076,0,0.113,0c0-0.061,0-0.121,0-0.181c0.125,0.029,0.082-0.112,0.09-0.203
			c0.139,0.049,0.04-0.14,0.18-0.09c0-0.067,0-0.135,0-0.203c0.029,0,0.061,0,0.09,0c0-0.052,0-0.105,0-0.158
			c0.031,0,0.061,0,0.091,0c0-0.067,0-0.135,0-0.203c0.247-0.008,0.153-0.356,0.383-0.383c0-0.061,0-0.121,0-0.181
			c0.14,0.05,0.041-0.14,0.181-0.089c0-0.06,0-0.121,0-0.181c0.182-0.042,0.262-0.189,0.292-0.382
			c0.129-0.051,0.22-0.142,0.271-0.271c0.15-0.016,0.184-0.147,0.203-0.293c0.179-0.031,0.183-0.238,0.361-0.27
			c0-0.038,0-0.075,0-0.112c0.264-0.074,0.317-0.359,0.562-0.452c0-0.037,0-0.075,0-0.112c0.156-0.031,0.232-0.143,0.293-0.271
			c0.078,0.019,0.086-0.034,0.158-0.022c0.109-0.175,0.331-0.24,0.404-0.45c0.054,0,0.105,0,0.158,0
			c0.092-0.126,0.189-0.248,0.361-0.293c0.03-0.006,0.019-0.057,0.022-0.09c0.124-0.003,0.176-0.08,0.202-0.181
			c0.277-0.001,0.313-0.242,0.563-0.27c0-0.038,0-0.075,0-0.112c0.085-0.014,0.245,0.049,0.203-0.09c0.045,0,0.091,0,0.136,0
			c-0.015-0.12,0.168-0.043,0.135-0.181c0.082-0.008,0.222,0.041,0.181-0.09c0.188,0.031,0.194-0.121,0.36-0.112
			c0.031-0.007,0.019-0.057,0.022-0.091c0.081-0.008,0.222,0.042,0.181-0.09c0.082-0.008,0.221,0.042,0.18-0.09
			c0.084-0.013,0.245,0.05,0.203-0.09c0.073-0.017,0.193,0.013,0.18-0.09c0.091-0.008,0.232,0.036,0.203-0.091
			c0.1,0.002,0.225,0.029,0.18-0.113c0.096-0.025,0.311,0.07,0.271-0.09c0.084-0.013,0.244,0.05,0.202-0.09
			c0.096-0.025,0.31,0.069,0.271-0.09c0.115-0.013,0.291,0.036,0.293-0.09c0.108-0.011,0.271,0.031,0.271-0.09
			c0.121-0.014,0.312,0.042,0.292-0.112c0.115-0.036,0.387,0.085,0.361-0.09c0.1-0.028,0.33,0.074,0.293-0.09
			c0.139-0.042,0.455,0.094,0.45-0.09c0.147-0.019,0.382,0.05,0.406-0.09c0.19-0.028,0.507,0.071,0.563-0.089
			c0.255,0.007,0.49-0.005,0.721-0.023c0.031-0.007,0.02-0.057,0.023-0.09c0.518-0.015,1.096,0.03,1.576-0.022
			C101.144,59.716,101.144,59.693,101.144,59.671z M101.347,64.381c-0.832-0.092-1.558,0.067-2.253,0.18
			c0.039,0.16-0.176,0.065-0.271,0.09c0.042,0.141-0.118,0.077-0.203,0.091c0.039,0.159-0.176,0.064-0.271,0.09
			c-0.004,0.033,0.009,0.083-0.022,0.09c-0.209,0.054-0.406,0.12-0.495,0.293c-0.054,0-0.105,0-0.159,0
			c-0.031,0.118-0.098,0.202-0.27,0.18c-0.061,0.127-0.16,0.215-0.293,0.271c0,0.038,0,0.075,0,0.113
			c-0.188,0.03-0.177,0.258-0.383,0.27c-0.062,0.126-0.141,0.235-0.271,0.292c0,0.06,0,0.121,0,0.181
			c-0.14-0.049-0.04,0.139-0.181,0.09c0,0.06,0,0.12,0,0.18c-0.037,0-0.075,0-0.112,0c-0.019,0.207-0.187,0.264-0.181,0.496
			c-0.029,0-0.06,0-0.09,0c0,0.09,0,0.181,0,0.271c-0.03,0-0.061,0-0.09,0c0,0.089,0,0.18,0,0.27c-0.031,0-0.061,0-0.09,0
			c0,0.128,0,0.255,0,0.383c-0.031,0-0.061,0-0.091,0c-0.038,1.828-0.038,3.807,0,5.633c0.033,0.004,0.083-0.008,0.091,0.022
			c0,0.12,0,0.241,0,0.361c0.175-0.024,0.055,0.246,0.09,0.36c0.141-0.042,0.076,0.119,0.09,0.203
			c0.132-0.041,0.082,0.099,0.09,0.181c0.131-0.042,0.082,0.098,0.09,0.18c0.096,0.01,0.111,0.099,0.113,0.203
			c0.124-0.026,0.077,0.118,0.181,0.113c0,0.06,0,0.12,0,0.18c0.123,0.034,0.202,0.113,0.202,0.271
			c0.109,0.004,0.139,0.087,0.158,0.18c0.037,0,0.074,0,0.113,0c0.037,0.248,0.319,0.25,0.382,0.473c0.061,0,0.12,0,0.181,0
			c-0.041,0.139,0.148,0.048,0.09,0.203c0.104,0.055,0.255,0.061,0.293,0.181c0.061,0,0.121,0,0.181,0
			c-0.05,0.139,0.14,0.041,0.09,0.18c0.067,0,0.136,0,0.203,0c0,0.03,0,0.06,0,0.091c0.09,0,0.181,0,0.271,0
			c0,0.037,0,0.075,0,0.112c0.211-0.031,0.221,0.14,0.451,0.09c0.021,0.136,0.242,0.072,0.382,0.089c0,0.03,0,0.06,0,0.09
			c0.128,0,0.256,0,0.384,0c0,0.031,0,0.06,0,0.091c0.594,0,1.186,0,1.78,0c0.001-0.187,0.327-0.047,0.474-0.091
			c0.004-0.034-0.009-0.083,0.021-0.09c0.11-0.024,0.175,0.034,0.271,0c0.036-0.012,0.062-0.081,0.091-0.089
			c0.144-0.044,0.283-0.044,0.45-0.09c0.001-0.104,0.076-0.134,0.203-0.112c-0.042-0.132,0.099-0.082,0.181-0.091
			c-0.043-0.14,0.117-0.077,0.202-0.09c0.004-0.033-0.009-0.083,0.022-0.089c0.223,0.012,0.199-0.222,0.428-0.203
			c0.021-0.145,0.197-0.133,0.226-0.27c0.053,0,0.105,0,0.158,0c0-0.039,0-0.076,0-0.113c0.179-0.033,0.187-0.235,0.36-0.271
			c-0.016-0.083,0.038-0.097,0.022-0.18c0.185-0.034,0.19-0.245,0.36-0.293c-0.016-0.083,0.039-0.097,0.023-0.18
			c0.135-0.022,0.176-0.14,0.18-0.293c0.029,0,0.061,0,0.09,0c0-0.06,0-0.12,0-0.18c0.03,0,0.061,0,0.09,0c0-0.06,0-0.121,0-0.181
			c0.031,0,0.061,0,0.09,0c0-0.089,0-0.18,0-0.27c0.031,0,0.061,0,0.091,0c-0.005-0.11,0.04-0.171,0.022-0.293
			c0.15-0.038,0.067-0.309,0.09-0.474c0.023,0,0.045,0,0.068,0c0.037-1.737,0.037-3.625,0-5.362
			c-0.027-0.004-0.064,0.003-0.068-0.023c-0.012-0.176,0.041-0.417-0.09-0.473c0.01-0.13-0.009-0.23-0.022-0.337
			c-0.14,0.042-0.077-0.12-0.091-0.203c-0.131,0.041-0.081-0.098-0.09-0.181c-0.131,0.042-0.082-0.098-0.09-0.18
			c-0.131,0.041-0.082-0.099-0.09-0.18c-0.107-0.051-0.15-0.165-0.18-0.293c-0.033-0.012-0.117,0.026-0.113-0.022
			c0-0.053,0-0.105,0-0.158c-0.094,0.027-0.101-0.034-0.09-0.112c-0.158-0.082-0.279-0.202-0.361-0.361
			c-0.125-0.01-0.191-0.078-0.202-0.202c-0.126-0.062-0.235-0.141-0.293-0.271c-0.06,0-0.12,0-0.181,0
			c0.05-0.14-0.139-0.041-0.09-0.18c-0.061,0-0.12,0-0.18,0c0.006-0.052-0.004-0.086-0.023-0.113c-0.053,0-0.104,0-0.158,0
			c0-0.03,0-0.061,0-0.09c-0.112-0.045-0.27-0.045-0.292-0.18c-0.091,0-0.181,0-0.271,0c0-0.03,0-0.061,0-0.09
			c-0.068,0-0.135,0-0.203,0c0-0.03,0-0.061,0-0.091c-0.098,0-0.195,0-0.293,0c0-0.03,0-0.06,0-0.09
			c-0.111-0.016-0.225-0.031-0.36-0.022c-0.058-0.161-0.373-0.062-0.563-0.09C101.347,64.426,101.347,64.403,101.347,64.381z"/>
		<path fill-rule="evenodd" clip-rule="evenodd" d="M57.405,63.434c0,0.031,0,0.061,0,0.09c0.812,0,1.623,0,2.435,0
			c0,0.03,0,0.06,0,0.09c0.623,0,1.246,0,1.87,0c0,0.03,0,0.06,0,0.09c0.503,0,1.006,0,1.51,0c0,0.031,0,0.06,0,0.091
			c0.48-0.009,0.94,0.005,1.396,0.021c0,0.022,0,0.045,0,0.068c0.391,0.001,0.79-0.008,1.15,0.023c0,0.022,0,0.045,0,0.067
			c0.382,0,0.773-0.009,1.126,0.023c0,0.029,0,0.06,0,0.089c0.315,0,0.631,0,0.946,0c0,0.03,0,0.061,0,0.09c0.277,0,0.557,0,0.834,0
			c0,0.03,0,0.06,0,0.091c0.277,0,0.556,0,0.834,0c0,0.03,0,0.06,0,0.089c0.223,0.025,0.558-0.062,0.652,0.09
			c0.197,0.022,0.49-0.054,0.564,0.09c0.182-0.017,0.304,0.027,0.473,0.022c0,0.03,0,0.06,0,0.09c0.128,0,0.256,0,0.383,0
			c0,0.03,0,0.061,0,0.091c0.121,0,0.241,0,0.361,0c0,0.03,0,0.06,0,0.089c0.098,0,0.195,0,0.293,0c0,0.03,0,0.06,0,0.09
			c0.09,0.008,0.23-0.036,0.203,0.09c0.06,0,0.119,0,0.18,0c0,0.03,0,0.06,0,0.09c0.06,0,0.12,0,0.181,0c0,0.038,0,0.075,0,0.113
			c0.124,0.003,0.175,0.079,0.202,0.18c0.12,0,0.24,0,0.361,0c0,0.03,0,0.06,0,0.09c0.09,0.007,0.23-0.036,0.201,0.09
			c0.092,0,0.182,0,0.271,0c0,0.031,0,0.061,0,0.09c0.106-0.009,0.188,0.007,0.271,0.023c0,0.03,0,0.06,0,0.09
			c0.067,0,0.136,0,0.203,0c0,0.03,0,0.06,0,0.089c0.06,0,0.12,0,0.18,0c0,0.03,0,0.06,0,0.09c0.067,0,0.136,0,0.203,0
			c0,0.03,0,0.06,0,0.09c0.06,0,0.12,0,0.18,0c0,0.03,0,0.061,0,0.09c0.06,0,0.12,0,0.181,0c0,0.03,0,0.06,0,0.09
			c0.085-0.018,0.107,0.027,0.18,0.023c-0.056,0.153,0.169,0.026,0.113,0.18c0.06,0,0.12,0,0.181,0
			c-0.05,0.14,0.139,0.041,0.09,0.181c0.257,0.028,0.374,0.197,0.474,0.383c0.059,0,0.119,0,0.18,0
			c0.066,0.128,0.133,0.259,0.293,0.293c0.02,0.1,0.08,0.16,0.18,0.181c0,0.052,0,0.105,0,0.157
			c0.146,0.026,0.158,0.188,0.294,0.225c0,0.053,0,0.105,0,0.158c0.103-0.006,0.056,0.139,0.18,0.113c0,0.053,0,0.105,0,0.158
			c0.12-0.015,0.043,0.167,0.181,0.134c0.028,0.069-0.02,0.214,0.113,0.181c0.007,0.082-0.042,0.221,0.09,0.18
			c0.008,0.082-0.041,0.222,0.09,0.18c0.014,0.084-0.05,0.246,0.09,0.203c0.025,0.095-0.069,0.31,0.09,0.271c0,0.09,0,0.18,0,0.27
			c-0.004,0.049,0.08,0.011,0.113,0.022c0.012,0.087-0.018,0.174,0,0.248c0.008,0.038,0.051,0,0.066,0.022
			c0.061,0.084,0,0.257,0.023,0.36c0.008,0.038,0.053,0,0.067,0.023c0.071,0.102-0.009,0.296,0.022,0.45
			c0.008,0.031,0.057,0.019,0.091,0.023c0.047,0.171-0.103,0.538,0.09,0.563c0,0.969,0,1.938,0,2.907c-0.03,0-0.06,0-0.09,0
			c0,0.218,0,0.436,0,0.654c-0.03,0-0.062,0-0.091,0c-0.031,0.186,0.077,0.513-0.09,0.562c-0.026,0.162,0.066,0.442-0.09,0.474
			c0.006,0.142-0.004,0.267-0.023,0.383c-0.029,0-0.059,0-0.09,0c0,0.12,0,0.24,0,0.36c-0.029,0-0.06,0-0.09,0
			c0,0.098,0,0.195,0,0.292c-0.03,0-0.061,0-0.09,0c0,0.099,0,0.196,0,0.293c-0.031,0-0.061,0-0.09,0
			c-0.013,0.108,0.031,0.271-0.09,0.27c0.049,0.23-0.122,0.239-0.091,0.451c-0.026,0.019-0.061,0.03-0.113,0.022
			c0,0.091,0,0.181,0,0.271c-0.03,0-0.06,0-0.09,0c0,0.068,0,0.135,0,0.203c-0.03,0-0.06,0-0.09,0c0,0.06,0,0.121,0,0.181
			c-0.03,0-0.06,0-0.09,0c0.03,0.316-0.196,0.375-0.203,0.653c-0.03,0-0.061,0-0.091,0c0,0.06,0,0.121,0,0.181
			c-0.152-0.056-0.026,0.168-0.18,0.113c0,0.06,0,0.12,0,0.18c-0.029,0-0.061,0-0.09,0c0,0.061,0,0.121,0,0.181
			c-0.03,0-0.061,0-0.091,0c0.043,0.169-0.112,0.142-0.091,0.292c-0.037,0-0.074,0-0.111,0c0,0.06,0,0.121,0,0.181
			c-0.031,0-0.061,0-0.09,0c0,0.06,0,0.12,0,0.18c-0.239,0.077-0.189,0.442-0.474,0.474c0,0.068,0,0.135,0,0.203
			c-0.14-0.049-0.04,0.14-0.181,0.09c0,0.061,0,0.121,0,0.18c-0.199,0.025-0.168,0.283-0.383,0.293c0,0.06,0,0.12,0,0.18
			c-0.219,0.059-0.238,0.318-0.451,0.383c0.017,0.083-0.037,0.097-0.021,0.18c-0.127,0.062-0.24,0.137-0.271,0.293
			c-0.134,0.047-0.224,0.138-0.271,0.27c-0.154,0.042-0.251,0.139-0.292,0.293c-0.162,0.085-0.31,0.186-0.383,0.361
			c-0.053,0-0.105,0-0.158,0c0.001,0.105-0.15,0.059-0.113,0.203c-0.16,0.087-0.301,0.194-0.383,0.36c-0.052,0-0.105,0-0.157,0
			c-0.128,0.158-0.228,0.345-0.474,0.384c0.006,0.103-0.139,0.056-0.112,0.18c-0.191-0.063-0.141,0.115-0.294,0.09
			c-0.008,0.247-0.355,0.154-0.382,0.382c-0.082,0.009-0.222-0.041-0.181,0.091c-0.053,0-0.105,0-0.158,0
			c-0.016,0.096-0.135,0.09-0.135,0.203c-0.229-0.026-0.214,0.191-0.428,0.18c-0.031,0.007-0.02,0.056-0.023,0.09
			c-0.082,0.008-0.221-0.042-0.18,0.09c-0.084,0.013-0.246-0.05-0.203,0.089c-0.1-0.001-0.225-0.028-0.18,0.113
			c-0.268-0.027-0.248,0.233-0.541,0.18c-0.031,0.007-0.02,0.056-0.022,0.09c-0.083,0.007-0.222-0.042-0.181,0.089
			c-0.084,0.014-0.245-0.049-0.203,0.09c-0.099-0.001-0.225-0.029-0.18,0.113c-0.227-0.046-0.22,0.141-0.451,0.09
			c-0.03,0.007-0.019,0.056-0.021,0.09c-0.085,0.013-0.246-0.051-0.203,0.089c-0.096,0.026-0.311-0.069-0.271,0.09
			c-0.083,0.009-0.222-0.041-0.181,0.091c-0.09,0-0.18,0-0.27,0c-0.031,0.006-0.02,0.056-0.023,0.09
			c-0.255-0.007-0.339,0.157-0.631,0.113c-0.031,0.006-0.019,0.057-0.022,0.09c-0.095,0.026-0.31-0.07-0.271,0.09
			c-0.121,0.038-0.404-0.087-0.383,0.091c-0.115,0.035-0.385-0.086-0.36,0.09c-0.12,0-0.241,0-0.36,0
			c-0.031,0.007-0.02,0.057-0.023,0.09c-0.573,0.02-0.951,0.235-1.576,0.202c-0.031,0.008-0.02,0.057-0.023,0.09
			c-0.308,0-0.616,0-0.924,0c-0.03,0.007-0.019,0.056-0.022,0.09c-0.999,0-1.999,0-2.997,0c0-0.03,0-0.06,0-0.09
			c-0.315,0-0.631,0-0.947,0c0-0.03,0-0.06,0-0.09c-0.222-0.025-0.558,0.063-0.652-0.09c-0.196-0.022-0.49,0.054-0.563-0.09
			c-0.142,0.006-0.267-0.003-0.384-0.022c0-0.03,0-0.06,0-0.09c-0.15,0-0.301,0-0.449,0c0-0.03,0-0.06,0-0.09
			c-0.129,0-0.256,0-0.385,0c0-0.031,0-0.06,0-0.091c-0.098,0-0.194,0-0.293,0c0-0.03,0-0.06,0-0.09
			c-0.132-0.018-0.349,0.049-0.359-0.09c-0.115-0.013-0.291,0.036-0.293-0.09c-0.123,0.018-0.183-0.027-0.293-0.022
			c0-0.03,0-0.06,0-0.09c-0.09,0-0.181,0-0.271,0c0-0.03,0-0.061,0-0.091c-0.06,0-0.12,0-0.181,0c0-0.03,0-0.06,0-0.09
			c-0.098,0-0.195,0-0.293,0c0-0.029,0-0.06,0-0.089c-0.31,0.031-0.365-0.191-0.653-0.181c0-0.038,0-0.075,0-0.113
			c-0.091,0-0.18,0-0.271,0c0-0.03,0-0.06,0-0.09c-0.06,0-0.12,0-0.18,0c0-0.029,0-0.06,0-0.089c-0.068,0-0.136,0-0.203,0
			c0-0.03,0-0.06,0-0.09c-0.244-0.012-0.312-0.198-0.562-0.203c0-0.03,0-0.06,0-0.09c-0.061,0-0.121,0-0.182,0
			c0.057-0.153-0.168-0.026-0.112-0.18c-0.06,0-0.12,0-0.18,0c0-0.03,0-0.06,0-0.09c-0.196-0.059-0.415-0.097-0.474-0.293
			c-0.06,0-0.121,0-0.181,0c0.05-0.14-0.139-0.041-0.09-0.181c-0.067,0-0.136,0-0.202,0c0.049-0.139-0.141-0.04-0.091-0.18
			c-0.06,0-0.12,0-0.181,0c0.041-0.138-0.147-0.048-0.09-0.203c-0.06,0-0.12,0-0.18,0c-0.006-0.153-0.209-0.107-0.203-0.271
			c-0.194-0.031-0.34-0.111-0.383-0.293c-0.061,0-0.121,0-0.181,0c-0.059-0.219-0.317-0.238-0.384-0.451
			c-0.082,0.016-0.096-0.039-0.18-0.022c-0.061-0.127-0.137-0.239-0.293-0.271c-0.047-0.133-0.138-0.223-0.271-0.271
			c-0.04-0.155-0.138-0.252-0.293-0.293c-0.048-0.132-0.138-0.223-0.271-0.27c-0.041-0.155-0.138-0.252-0.293-0.293
			c0.02-0.198-0.208-0.152-0.18-0.36c-0.159-0.066-0.197-0.254-0.361-0.315c-0.02-0.071,0.009-0.188-0.112-0.158
			c-0.03-0.156-0.144-0.231-0.271-0.292c0.021-0.172-0.062-0.238-0.18-0.271c0.007-0.172-0.074-0.256-0.203-0.292
			c0.021-0.172-0.062-0.238-0.18-0.271c0-0.06,0-0.12,0-0.18c-0.104,0.006-0.057-0.139-0.181-0.113
			c-0.001-0.103-0.017-0.193-0.112-0.203c0-0.052,0-0.105,0-0.157c-0.104,0.005-0.057-0.139-0.181-0.113
			c-0.014-0.084,0.05-0.245-0.091-0.203c-0.002-0.08,0.031-0.195-0.09-0.157c-0.004-0.101,0.041-0.251-0.112-0.203
			c0.062-0.149-0.056-0.142-0.091-0.203c-0.017-0.031,0.018-0.105,0-0.135c-0.03-0.056-0.141-0.041-0.09-0.203
			c-0.007-0.031-0.056-0.019-0.09-0.023c-0.014-0.084,0.05-0.245-0.09-0.202c-0.025-0.095,0.069-0.311-0.09-0.271
			c-0.009-0.082,0.041-0.221-0.091-0.18c0.004-0.32-0.222-0.41-0.202-0.744c-0.008-0.031-0.057-0.019-0.091-0.023
			c-0.025-0.094,0.069-0.31-0.089-0.271c-0.036-0.114,0.084-0.386-0.092-0.36c-0.028-0.099,0.074-0.33-0.09-0.293
			c-0.006-0.123-0.036-0.219-0.022-0.36c-0.132-0.048-0.078-0.282-0.09-0.451c-0.136-0.062-0.077-0.314-0.091-0.496
			c-0.007-0.031-0.057-0.019-0.089-0.023c0-0.21,0-0.421,0-0.631c-0.008-0.031-0.058-0.019-0.091-0.022c0-1.067,0-2.133,0-3.2
			c0.029,0,0.061,0,0.091,0c0-0.21,0-0.42,0-0.631c0.029,0,0.06,0,0.089,0c0.02-0.139-0.053-0.368,0.091-0.383
			c0.019-0.138-0.054-0.369,0.09-0.383c-0.017-0.122,0.028-0.183,0.022-0.293c0.03,0,0.061,0,0.09,0c0-0.09,0-0.18,0-0.27
			c0.031,0,0.061,0,0.092,0c0-0.06,0-0.121,0-0.181c0.029,0,0.059,0,0.089,0c0-0.09,0-0.18,0-0.271c0.03,0,0.06,0,0.091,0
			c0.004-0.153,0.045-0.271,0.18-0.292c0-0.06,0-0.12,0-0.181c0.026-0.019,0.061-0.03,0.113-0.022c0-0.06,0-0.121,0-0.181
			c0.103-0.009,0.138-0.087,0.18-0.158c-0.033-0.065-0.237,0.042-0.18-0.113c-0.223-0.034-0.592,0.081-0.677-0.09
			c-0.155-0.024-0.425,0.064-0.45-0.089c-0.091,0-0.18,0-0.271,0c-0.019-0.027-0.03-0.061-0.022-0.113c-0.09,0-0.181,0-0.271,0
			c0-0.029,0-0.06,0-0.09c-0.089,0-0.18,0-0.27,0c0.056-0.154-0.169-0.027-0.113-0.181c-0.06,0-0.119,0-0.18,0c0-0.03,0-0.06,0-0.09
			c-0.264,0.008-0.269-0.241-0.473-0.292c0-0.053,0-0.105,0-0.158c-0.12,0.014-0.043-0.167-0.182-0.135
			c-0.01-0.079-0.033-0.147-0.021-0.248c-0.168-0.121-0.072-0.563-0.068-0.789c0.023,0,0.046,0,0.068,0
			c-0.008-0.135,0.006-0.249,0.021-0.36c0.031,0,0.061,0,0.091,0c0-0.068,0-0.136,0-0.203c0.03,0,0.061,0,0.091,0
			c0-0.061,0-0.121,0-0.181c0.029,0,0.06,0,0.09,0c0-0.06,0-0.12,0-0.18c0.244-0.095,0.26-0.417,0.631-0.384
			c0.03-0.006,0.019-0.057,0.022-0.089c0.084-0.014,0.245,0.049,0.203-0.091c0.095-0.025,0.31,0.07,0.271-0.09
			c0.119,0,0.24,0,0.359,0c0.031-0.006,0.02-0.056,0.023-0.089c0.146-0.048,0.289,0.005,0.428-0.023
			c0.039-0.008,0-0.053,0.022-0.067c0.112-0.072,0.336,0.001,0.474-0.023c0.037-0.006,0.002-0.057,0.021-0.068
			c0.159-0.079,0.418,0.02,0.632-0.021c0.03-0.008,0.019-0.057,0.022-0.091c0.271,0,0.541,0,0.811,0
			c0.031-0.007,0.02-0.056,0.023-0.09c0.338,0,0.676,0,1.014,0c0.031-0.006,0.02-0.056,0.023-0.09c0.555,0,1.111,0,1.666,0
			c0.031-0.007,0.02-0.057,0.023-0.09C51.787,63.395,54.663,63.401,57.405,63.434z M66.148,67.175
			c0.118-0.027,0.089,0.093,0.091,0.181c0.127-0.029,0.082,0.112,0.09,0.203c0.033,0.003,0.084-0.008,0.09,0.022
			c0,0.112,0,0.225,0,0.338c0.187,0.001,0.047,0.328,0.09,0.473c0.035,0.003,0.084-0.009,0.091,0.022c0,1.78,0,3.561,0,5.34
			c-0.03,0-0.061,0-0.091,0c0,0.158,0,0.315,0,0.474c-0.029,0-0.06,0-0.09,0c0,0.098,0,0.195,0,0.293c-0.029,0-0.06,0-0.09,0
			c0.029,0.307-0.186,0.371-0.203,0.631c-0.029,0-0.061,0-0.09,0c0,0.068,0,0.135,0,0.203c-0.14-0.05-0.041,0.139-0.18,0.09
			c0,0.06,0,0.12,0,0.18c-0.186,0.041-0.169,0.283-0.383,0.293c0,0.06,0,0.12,0,0.18c-0.101,0.021-0.161,0.081-0.181,0.181
			c-0.138,0.005-0.173,0.114-0.226,0.203c-0.053,0-0.105,0-0.158,0c-0.076,0.14-0.156,0.278-0.359,0.292
			c-0.018,0.141-0.148,0.167-0.294,0.181c0.041,0.131-0.099,0.082-0.18,0.089c0.041,0.131-0.099,0.083-0.181,0.09
			c0.043,0.141-0.119,0.077-0.203,0.09c-0.012,0.033,0.027,0.116-0.022,0.113c-0.213-0.033-0.214,0.146-0.45,0.09
			c-0.012,0.139-0.229,0.072-0.361,0.089c-0.001,0.187-0.328,0.047-0.473,0.09c-0.004,0.034,0.008,0.083-0.022,0.091
			c-0.586,0-1.173,0-1.758,0c0-0.031,0-0.061,0-0.091c-0.128,0-0.255,0-0.383,0c0-0.03,0-0.06,0-0.09
			c-0.138-0.019-0.369,0.054-0.383-0.089c-0.226,0.044-0.258-0.104-0.45-0.09c-0.02-0.026-0.031-0.061-0.023-0.113
			c-0.09,0-0.181,0-0.271,0c0.056-0.154-0.169-0.027-0.112-0.181c-0.061,0-0.12,0-0.181,0c0-0.03,0-0.06,0-0.089
			c-0.06,0-0.12,0-0.181,0c0.051-0.14-0.139-0.041-0.09-0.181c-0.06,0-0.12,0-0.18,0c-0.014-0.152-0.191-0.139-0.203-0.292
			c-0.061,0-0.12,0-0.18,0c0-0.03,0-0.061,0-0.09c-0.235-0.059-0.275-0.311-0.474-0.406c0-0.052,0-0.105,0-0.157
			c-0.138-0.035-0.19-0.156-0.294-0.225c0-0.054,0-0.105,0-0.158c-0.117-0.033-0.201-0.099-0.18-0.271
			c-0.141,0.042-0.076-0.119-0.09-0.203c-0.132,0.041-0.082-0.099-0.09-0.181c-0.149,0.021-0.1-0.155-0.113-0.27
			c-0.152,0.026-0.067-0.188-0.09-0.293c-0.178,0.02-0.053-0.263-0.09-0.383c-0.034-0.003-0.084,0.008-0.091-0.022
			c0-1.87,0-3.741,0-5.611c0.03,0,0.062,0,0.091,0c0.02-0.139-0.053-0.369,0.09-0.383c0-0.09,0-0.18,0-0.27c-0.15,0-0.301,0-0.45,0
			c-0.005,0.033,0.007,0.083-0.022,0.09c-0.437,0-0.871,0-1.308,0c-0.004,0.034,0.009,0.083-0.022,0.09
			c-0.474,0.022-0.964,0.028-1.465,0.023c-0.004,0.026,0.004,0.063-0.022,0.067c-0.511,0.022-1.039,0.028-1.577,0.022
			c-0.004,0.027,0.004,0.064-0.023,0.068c-0.602,0.028-1.238,0.023-1.869,0.022c-0.004,0.034,0.008,0.083-0.023,0.091
			c-0.391,0-0.78,0-1.172,0c0.043,0.14-0.117,0.076-0.202,0.09c0.018,0.078-0.013,0.107-0.091,0.09c0,0.038,0,0.075,0,0.112
			c-0.262,0.076-0.322,0.354-0.562,0.451c0,0.038,0,0.076,0,0.113c-0.24,0.008-0.137,0.359-0.383,0.361c0,0.06,0,0.121,0,0.181
			c-0.031,0-0.061,0-0.09,0c0,0.06,0,0.12,0,0.18c-0.03,0-0.061,0-0.091,0c0,0.068,0,0.135,0,0.203c-0.03,0-0.061,0-0.091,0
			c-0.016,0.074,0.014,0.194-0.09,0.181c0.032,0.145-0.033,0.191-0.09,0.248c0.012,0.125-0.013,0.212-0.022,0.315
			c-0.03,0-0.06,0-0.091,0c0,0.128,0,0.255,0,0.383c-0.029,0-0.059,0-0.09,0c0,0.158,0,0.315,0,0.473c-0.029,0-0.061,0-0.09,0
			c0,0.345,0,0.691,0,1.037c-0.03,0-0.061,0-0.09,0c0,0.248,0,0.496,0,0.744c0.033,0.003,0.083-0.008,0.09,0.022
			c0,0.397,0,0.796,0,1.194c0.191,0.025,0.044,0.392,0.09,0.563c0.187,0.001,0.047,0.328,0.09,0.473
			c0.177-0.011,0.092,0.24,0.113,0.383c0.139,0.011,0.072,0.228,0.09,0.36c0.126,0.002,0.078,0.178,0.09,0.293
			c0.16-0.04,0.065,0.175,0.091,0.271c0.164-0.037,0.062,0.194,0.091,0.292c0.131-0.041,0.081,0.099,0.09,0.181
			c0.146-0.019,0.095,0.16,0.111,0.27c0.127-0.029,0.084,0.113,0.091,0.204c0.107-0.01,0.077,0.118,0.091,0.203
			c0.158-0.04,0.064,0.175,0.09,0.271c0.131-0.042,0.082,0.098,0.09,0.18c0.138-0.032,0.061,0.15,0.18,0.135
			c0.029,0.212,0.188,0.293,0.203,0.518c0.132-0.041,0.082,0.099,0.09,0.18c0.139-0.032,0.061,0.15,0.181,0.136
			c0,0.052,0,0.105,0,0.157c0.151,0.007,0.177,0.139,0.203,0.271c0.138-0.032,0.062,0.15,0.181,0.136c0,0.052,0,0.105,0,0.158
			c0.157,0.007,0.141,0.189,0.27,0.225c0.008,0.053,0.036,0.084,0.023,0.157c0.215,0.071,0.26,0.311,0.45,0.406
			c0,0.052,0,0.105,0,0.158c0.038,0,0.075,0,0.112,0c0.093,0.246,0.377,0.299,0.451,0.563c0.037,0,0.075,0,0.112,0
			c0.093,0.246,0.377,0.298,0.45,0.563c0.157,0.031,0.232,0.144,0.294,0.271c0.14,0.011,0.251,0.048,0.271,0.18
			c0.124,0.011,0.164,0.105,0.203,0.203c0.06,0,0.119,0,0.18,0c-0.003,0.153,0.184,0.117,0.181,0.27
			c0.214,0.011,0.312,0.14,0.382,0.293c0.061,0,0.121,0,0.181,0c-0.056,0.153,0.169,0.026,0.112,0.18
			c0.135-0.067,0.157,0.074,0.181,0.091c0.11,0.077,0.336,0.024,0.271,0.203c0.067,0,0.136,0,0.203,0c0,0.03,0,0.06,0,0.09
			c0.061,0,0.12,0,0.181,0c-0.05,0.139,0.14,0.041,0.089,0.18c0.092,0.006,0.232-0.037,0.203,0.09
			c0.088,0.003,0.208-0.028,0.181,0.09c0.06,0,0.12,0,0.181,0c0,0.038,0,0.075,0,0.113c0.067,0,0.135,0,0.203,0
			c0,0.03,0,0.06,0,0.089c0.06,0,0.119,0,0.18,0c0,0.03,0,0.06,0,0.091c0.09,0,0.181,0,0.271,0c-0.051,0.17,0.212,0.027,0.181,0.18
			c0.066,0,0.135,0,0.202,0c0,0.03,0,0.06,0,0.09c0.112-0.016,0.175,0.021,0.271,0.023c0,0.03,0,0.06,0,0.089
			c0.067,0,0.135,0,0.203,0c0,0.031,0,0.06,0,0.091c0.09,0,0.18,0,0.27,0c0,0.03,0,0.06,0,0.09c0.098,0,0.195,0,0.294,0
			c0,0.03,0,0.06,0,0.09c0.089,0,0.18,0,0.27,0c0,0.03,0,0.06,0,0.09c0.14,0.018,0.362-0.046,0.384,0.09
			c0.121-0.017,0.182,0.027,0.293,0.022c0,0.03,0,0.061,0,0.09c0.119,0,0.24,0,0.36,0c0,0.031,0,0.061,0,0.091
			c0.157,0,0.315,0,0.474,0c0,0.03,0,0.06,0,0.09c0.157,0,0.314,0,0.473,0c0,0.03,0,0.06,0,0.09c0.223,0.025,0.559-0.062,0.653,0.09
			c0.36-0.016,0.669,0.023,1.015,0.022c0,0.023,0,0.045,0,0.068c0.69,0,1.382,0,2.072,0c0.004-0.026-0.004-0.064,0.023-0.068
			c0.33-0.015,0.659-0.032,1.014-0.022c0.057-0.161,0.373-0.062,0.562-0.09c0.026-0.191,0.393-0.043,0.564-0.09
			c-0.021-0.178,0.263-0.053,0.383-0.09c-0.021-0.178,0.263-0.053,0.383-0.091c-0.014-0.171,0.223-0.092,0.361-0.112
			c0.001-0.126,0.177-0.077,0.293-0.09c0.01-0.139,0.227-0.072,0.359-0.09c-0.036-0.165,0.193-0.062,0.293-0.09
			c-0.041-0.131,0.1-0.082,0.181-0.09c-0.04-0.159,0.176-0.065,0.271-0.091c0.004-0.033-0.008-0.083,0.022-0.089
			c0.194,0.007,0.216-0.161,0.45-0.113c-0.029-0.126,0.113-0.083,0.203-0.089c-0.041-0.132,0.098-0.082,0.181-0.09
			c-0.043-0.14,0.118-0.077,0.202-0.091c-0.039-0.159,0.176-0.064,0.271-0.089c-0.045-0.142,0.08-0.115,0.18-0.113
			c0.032-0.125,0.145-0.17,0.293-0.18c-0.041-0.132,0.099-0.082,0.18-0.091c-0.041-0.131,0.099-0.082,0.182-0.089
			c-0.033-0.138,0.148-0.061,0.135-0.181c0.07,0.011,0.079-0.041,0.157-0.022c-0.042-0.131,0.099-0.082,0.181-0.09
			c-0.02-0.125,0.143-0.067,0.135-0.181c0.053,0,0.105,0,0.158,0c0.031-0.117,0.098-0.202,0.27-0.18
			c0.043-0.182,0.189-0.262,0.384-0.293c0.007-0.158,0.189-0.14,0.226-0.271c0.045,0,0.09,0,0.135,0
			c0.012-0.032-0.027-0.116,0.021-0.112c0.188-0.03,0.178-0.259,0.384-0.271c-0.026-0.125,0.119-0.077,0.113-0.18
			c0.052,0,0.104,0,0.157,0c0-0.037,0-0.075,0-0.113c0.246-0.092,0.299-0.377,0.563-0.45c0-0.038,0-0.075,0-0.113
			c0.179-0.032,0.183-0.238,0.36-0.271c-0.016-0.083,0.039-0.097,0.023-0.18c0.213-0.065,0.23-0.324,0.449-0.383
			c0.029-0.198,0.117-0.334,0.294-0.384c0-0.06,0-0.12,0-0.18c0.153,0.002,0.116-0.183,0.271-0.181
			c-0.022-0.247,0.217-0.233,0.203-0.473c0.139,0.05,0.04-0.139,0.18-0.09c0-0.067,0-0.135,0-0.202c0.029,0,0.06,0,0.09,0
			c0-0.06,0-0.12,0-0.181c0.141,0.05,0.041-0.139,0.181-0.09c-0.06-0.21,0.134-0.167,0.09-0.36c0.026-0.019,0.061-0.029,0.113-0.022
			c0-0.061,0-0.12,0-0.18c0.029,0,0.06,0,0.089,0c0-0.068,0-0.135,0-0.203c0.031,0,0.061,0,0.091,0c0-0.06,0-0.12,0-0.18
			c0.03,0,0.061,0,0.091,0c0-0.06,0-0.12,0-0.18c0.029,0,0.06,0,0.09,0c-0.055-0.243,0.131-0.245,0.09-0.474
			c0.038,0,0.075,0,0.112,0c0-0.098,0-0.195,0-0.293c0.03,0,0.06,0,0.091,0c0-0.09,0-0.18,0-0.271c0.029,0,0.061,0,0.09,0
			c0-0.09,0-0.18,0-0.27c0.03,0,0.061,0,0.09,0c0.013-0.115-0.035-0.292,0.09-0.293c0.02-0.139-0.053-0.368,0.09-0.382
			c-0.008-0.137,0.007-0.25,0.023-0.361c0.029,0,0.06,0,0.09,0c0-0.188,0-0.376,0-0.564c0.03,0,0.061,0,0.091,0
			c0-0.218,0-0.435,0-0.653c0.03,0,0.06,0,0.09,0c0-0.849,0-1.698,0-2.546c-0.192-0.026-0.043-0.393-0.09-0.564
			c-0.179,0.021-0.053-0.263-0.091-0.383c-0.171,0.014-0.092-0.223-0.113-0.36c-0.033-0.004-0.082,0.008-0.09-0.022
			c0.033-0.213-0.146-0.215-0.09-0.451c-0.131,0.042-0.082-0.098-0.09-0.18c-0.132,0.042-0.082-0.098-0.09-0.18
			c-0.139,0.032-0.061-0.15-0.18-0.136c0.01-0.071-0.041-0.079-0.023-0.158c-0.123-0.027-0.16-0.14-0.18-0.271
			c-0.096,0.027-0.102-0.034-0.091-0.112c-0.101-0.02-0.161-0.08-0.18-0.18c-0.137,0.044-0.083-0.055-0.113-0.09
			c-0.019-0.023-0.075,0.007-0.09-0.023c-0.06-0.123-0.177-0.121-0.181-0.271c-0.061,0-0.119,0-0.18,0
			c0.056-0.153-0.169-0.026-0.113-0.18c-0.053,0-0.105,0-0.157,0c0.056-0.154-0.169-0.028-0.112-0.181c-0.061,0-0.121,0-0.181,0
			c0-0.03,0-0.06,0-0.089c-0.061,0-0.12,0-0.181,0c-0.019-0.027-0.029-0.061-0.022-0.113c-0.081-0.008-0.222,0.042-0.18-0.09
			c-0.099,0-0.196,0-0.294,0c0-0.03,0-0.061,0-0.09c-0.09,0-0.18,0-0.27,0c0-0.031,0-0.061,0-0.091
			c-0.113-0.015-0.287,0.031-0.293-0.09c-0.133-0.018-0.35,0.049-0.361-0.09c-0.172,0.007-0.326-0.004-0.473-0.023
			c0-0.03,0-0.06,0-0.09c-0.188,0-0.375,0-0.562,0c0-0.03,0-0.06,0-0.09c-0.316,0-0.633,0-0.947,0c0-0.03,0-0.06,0-0.09
			c-1.188,0-2.373,0-3.561,0C66.027,67.041,66.221,66.975,66.148,67.175z"/>
		<path fill-rule="evenodd" clip-rule="evenodd" d="M101.347,64.448c0.19,0.028,0.506-0.071,0.563,0.09
			c0.136-0.009,0.249,0.006,0.36,0.022c0,0.03,0,0.06,0,0.09c0.098,0,0.195,0,0.293,0c0,0.03,0,0.061,0,0.091
			c0.068,0,0.135,0,0.203,0c0,0.03,0,0.06,0,0.09c0.09,0,0.18,0,0.271,0c0.022,0.134,0.18,0.135,0.292,0.18c0,0.03,0,0.06,0,0.09
			c0.054,0,0.105,0,0.158,0c0.02,0.026,0.029,0.061,0.023,0.113c0.06,0,0.119,0,0.18,0c-0.049,0.139,0.14,0.04,0.09,0.18
			c0.061,0,0.121,0,0.181,0c0.058,0.13,0.167,0.208,0.293,0.271c0.011,0.125,0.077,0.192,0.202,0.202
			c0.082,0.159,0.203,0.279,0.361,0.361c-0.011,0.079-0.004,0.14,0.09,0.112c0,0.053,0,0.105,0,0.158
			c-0.004,0.049,0.08,0.01,0.113,0.022c0.029,0.128,0.072,0.242,0.18,0.293c0.008,0.081-0.041,0.221,0.09,0.18
			c0.008,0.082-0.041,0.222,0.09,0.18c0.009,0.083-0.041,0.222,0.09,0.181c0.014,0.083-0.049,0.245,0.091,0.203
			c0.014,0.107,0.032,0.208,0.022,0.337c0.131,0.057,0.078,0.297,0.09,0.473c0.004,0.026,0.041,0.019,0.068,0.023
			c0.037,1.737,0.037,3.625,0,5.362c-0.023,0-0.045,0-0.068,0c-0.022,0.165,0.061,0.436-0.09,0.474
			c0.018,0.122-0.027,0.183-0.022,0.293c-0.03,0-0.06,0-0.091,0c0,0.09,0,0.181,0,0.27c-0.029,0-0.059,0-0.09,0
			c0,0.06,0,0.121,0,0.181c-0.029,0-0.06,0-0.09,0c0,0.06,0,0.12,0,0.18c-0.029,0-0.061,0-0.09,0
			c-0.004,0.154-0.045,0.271-0.18,0.293c0.016,0.083-0.039,0.097-0.023,0.18c-0.17,0.048-0.176,0.259-0.36,0.293
			c0.016,0.083-0.038,0.097-0.022,0.18c-0.174,0.036-0.182,0.238-0.36,0.271c0,0.037,0,0.074,0,0.113c-0.053,0-0.105,0-0.158,0
			c-0.028,0.137-0.204,0.125-0.226,0.27c-0.229-0.019-0.205,0.215-0.428,0.203c-0.031,0.006-0.019,0.056-0.022,0.089
			c-0.085,0.014-0.245-0.049-0.202,0.09c-0.082,0.009-0.223-0.042-0.181,0.091c-0.127-0.022-0.202,0.008-0.203,0.112
			c-0.167,0.046-0.307,0.046-0.45,0.09c-0.029,0.008-0.055,0.077-0.091,0.089c-0.096,0.034-0.16-0.024-0.271,0
			c-0.03,0.008-0.018,0.057-0.021,0.09c-0.146,0.044-0.473-0.096-0.474,0.091c-0.595,0-1.187,0-1.78,0c0-0.031,0-0.06,0-0.091
			c-0.128,0-0.256,0-0.384,0c0-0.03,0-0.06,0-0.09c-0.14-0.017-0.361,0.046-0.382-0.089c-0.23,0.049-0.24-0.122-0.451-0.09
			c0-0.038,0-0.075,0-0.112c-0.09,0-0.181,0-0.271,0c0-0.031,0-0.061,0-0.091c-0.067,0-0.136,0-0.203,0
			c0.05-0.139-0.14-0.041-0.09-0.18c-0.06,0-0.12,0-0.181,0c-0.038-0.12-0.189-0.125-0.293-0.181
			c0.059-0.155-0.131-0.064-0.09-0.203c-0.061,0-0.12,0-0.181,0c-0.062-0.223-0.345-0.225-0.382-0.473c-0.039,0-0.076,0-0.113,0
			c-0.02-0.093-0.049-0.176-0.158-0.18c0-0.157-0.079-0.236-0.202-0.271c0-0.06,0-0.12,0-0.18c-0.104,0.005-0.057-0.139-0.181-0.113
			c-0.002-0.104-0.018-0.193-0.113-0.203c-0.008-0.082,0.041-0.221-0.09-0.18c-0.008-0.082,0.042-0.222-0.09-0.181
			c-0.014-0.084,0.051-0.245-0.09-0.203c-0.035-0.115,0.085-0.385-0.09-0.36c0-0.12,0-0.241,0-0.361
			c-0.008-0.031-0.058-0.018-0.091-0.022c-0.038-1.827-0.038-3.806,0-5.633c0.03,0,0.06,0,0.091,0c0-0.128,0-0.255,0-0.383
			c0.029,0,0.059,0,0.09,0c0-0.09,0-0.18,0-0.27c0.029,0,0.06,0,0.09,0c0-0.09,0-0.181,0-0.271c0.03,0,0.061,0,0.09,0
			c-0.006-0.231,0.162-0.289,0.181-0.496c0.037,0,0.075,0,0.112,0c0-0.06,0-0.121,0-0.18c0.141,0.049,0.041-0.14,0.181-0.09
			c0-0.06,0-0.121,0-0.181c0.13-0.057,0.208-0.167,0.271-0.292c0.206-0.012,0.195-0.24,0.383-0.27c0-0.039,0-0.076,0-0.113
			c0.133-0.055,0.232-0.143,0.293-0.271c0.172,0.022,0.238-0.062,0.27-0.18c0.054,0,0.105,0,0.159,0
			c0.089-0.173,0.286-0.24,0.495-0.293c0.031-0.006,0.019-0.057,0.022-0.09c0.095-0.026,0.31,0.069,0.271-0.09
			c0.085-0.014,0.245,0.05,0.203-0.091c0.095-0.025,0.31,0.07,0.271-0.09c0.695-0.113,1.421-0.272,2.253-0.18
			C101.347,64.403,101.347,64.426,101.347,64.448z"/>
		<path fill-rule="evenodd" clip-rule="evenodd" fill="#FFFFFF" d="M66.036,66.904c1.188,0,2.373,0,3.561,0c0,0.03,0,0.06,0,0.09
			c0.314,0,0.631,0,0.947,0c0,0.03,0,0.06,0,0.09c0.188,0,0.374,0,0.562,0c0,0.03,0,0.06,0,0.09c0.146,0.019,0.301,0.03,0.473,0.023
			c0.012,0.139,0.229,0.072,0.361,0.09c0.006,0.121,0.18,0.075,0.293,0.09c0,0.03,0,0.06,0,0.091c0.09,0,0.18,0,0.27,0
			c0,0.029,0,0.06,0,0.09c0.098,0,0.195,0,0.294,0c-0.042,0.132,0.099,0.082,0.18,0.09c-0.007,0.053,0.004,0.086,0.022,0.113
			c0.061,0,0.12,0,0.181,0c0,0.029,0,0.06,0,0.089c0.06,0,0.12,0,0.181,0c-0.057,0.153,0.168,0.027,0.112,0.181
			c0.052,0,0.104,0,0.157,0c-0.056,0.153,0.169,0.026,0.113,0.18c0.061,0,0.119,0,0.18,0c0.004,0.149,0.121,0.147,0.181,0.271
			c0.015,0.03,0.071,0,0.09,0.023c0.03,0.035-0.023,0.134,0.113,0.09c0.019,0.1,0.079,0.16,0.18,0.18
			c-0.011,0.078-0.005,0.139,0.091,0.112c0.02,0.131,0.057,0.244,0.18,0.271c-0.018,0.079,0.033,0.086,0.023,0.158
			c0.119-0.014,0.041,0.168,0.18,0.136c0.008,0.082-0.042,0.221,0.09,0.18c0.008,0.082-0.041,0.222,0.09,0.18
			c-0.057,0.236,0.123,0.238,0.09,0.451c0.008,0.03,0.057,0.019,0.09,0.022c0.021,0.138-0.058,0.375,0.113,0.36
			c0.038,0.12-0.088,0.403,0.091,0.383c0.047,0.171-0.103,0.538,0.09,0.564c0,0.849,0,1.697,0,2.546c-0.03,0-0.06,0-0.09,0
			c0,0.218,0,0.435,0,0.653c-0.03,0-0.061,0-0.091,0c0,0.188,0,0.376,0,0.564c-0.03,0-0.061,0-0.09,0
			c-0.017,0.111-0.031,0.224-0.023,0.361c-0.143,0.014-0.07,0.244-0.09,0.382c-0.125,0.002-0.077,0.178-0.09,0.293
			c-0.029,0-0.06,0-0.09,0c0,0.09,0,0.18,0,0.27c-0.029,0-0.061,0-0.09,0c0,0.09,0,0.18,0,0.271c-0.031,0-0.061,0-0.091,0
			c0,0.098,0,0.195,0,0.293c-0.037,0-0.074,0-0.112,0c0.041,0.229-0.145,0.23-0.09,0.474c-0.03,0-0.061,0-0.09,0
			c0,0.06,0,0.12,0,0.18c-0.03,0-0.061,0-0.091,0c0,0.06,0,0.12,0,0.18c-0.03,0-0.06,0-0.091,0c0,0.068,0,0.135,0,0.203
			c-0.029,0-0.06,0-0.089,0c0,0.06,0,0.12,0,0.18c-0.053-0.007-0.087,0.004-0.113,0.022c0.044,0.194-0.149,0.15-0.09,0.36
			c-0.14-0.049-0.04,0.14-0.181,0.09c0,0.061,0,0.121,0,0.181c-0.03,0-0.061,0-0.09,0c0,0.067,0,0.135,0,0.202
			c-0.14-0.049-0.041,0.14-0.18,0.09c0.014,0.24-0.226,0.226-0.203,0.473c-0.154-0.002-0.117,0.183-0.271,0.181
			c0,0.06,0,0.12,0,0.18c-0.177,0.049-0.265,0.186-0.294,0.384c-0.219,0.059-0.236,0.318-0.449,0.383
			c0.016,0.083-0.039,0.097-0.023,0.18c-0.178,0.032-0.182,0.239-0.36,0.271c0,0.038,0,0.075,0,0.113
			c-0.265,0.073-0.317,0.358-0.563,0.45c0,0.038,0,0.076,0,0.113c-0.053,0-0.105,0-0.157,0c0.006,0.104-0.14,0.056-0.113,0.18
			c-0.206,0.012-0.195,0.24-0.384,0.271c-0.049-0.003-0.01,0.08-0.021,0.112c-0.045,0-0.09,0-0.135,0
			c-0.036,0.13-0.219,0.113-0.226,0.271c-0.194,0.031-0.341,0.111-0.384,0.293c-0.172-0.021-0.238,0.063-0.27,0.18
			c-0.053,0-0.105,0-0.158,0c0.008,0.114-0.154,0.056-0.135,0.181c-0.082,0.008-0.223-0.042-0.181,0.09
			c-0.078-0.018-0.087,0.033-0.157,0.022c0.014,0.12-0.168,0.043-0.135,0.181c-0.083,0.008-0.223-0.042-0.182,0.089
			c-0.081,0.009-0.221-0.041-0.18,0.091c-0.148,0.009-0.261,0.055-0.293,0.18c-0.1-0.001-0.225-0.028-0.18,0.113
			c-0.096,0.025-0.311-0.07-0.271,0.089c-0.084,0.014-0.245-0.049-0.202,0.091c-0.083,0.008-0.222-0.042-0.181,0.09
			c-0.09,0.007-0.232-0.037-0.203,0.089c-0.234-0.047-0.256,0.12-0.45,0.113c-0.03,0.006-0.019,0.057-0.022,0.089
			c-0.095,0.025-0.311-0.068-0.271,0.091c-0.081,0.008-0.222-0.041-0.181,0.09c-0.1,0.028-0.329-0.075-0.293,0.09
			c-0.133,0.018-0.35-0.049-0.359,0.09c-0.116,0.013-0.292-0.036-0.293,0.09c-0.139,0.02-0.375-0.059-0.361,0.112
			c-0.12,0.038-0.404-0.087-0.383,0.091c-0.12,0.037-0.403-0.088-0.383,0.09c-0.172,0.047-0.538-0.102-0.564,0.09
			c-0.189,0.028-0.506-0.071-0.562,0.09c-0.354-0.009-0.684,0.008-1.014,0.022c-0.027,0.004-0.02,0.042-0.023,0.068
			c-0.69,0-1.382,0-2.072,0c0-0.023,0-0.045,0-0.068c-0.346,0.001-0.654-0.038-1.015-0.022c-0.095-0.153-0.431-0.065-0.653-0.09
			c0-0.03,0-0.06,0-0.09c-0.158,0-0.315,0-0.473,0c0-0.03,0-0.06,0-0.09c-0.158,0-0.316,0-0.474,0c0-0.03,0-0.06,0-0.091
			c-0.12,0-0.241,0-0.36,0c0-0.03,0-0.06,0-0.09c-0.111,0.005-0.172-0.039-0.293-0.022c-0.021-0.137-0.244-0.073-0.384-0.09
			c0-0.03,0-0.06,0-0.09c-0.09,0-0.181,0-0.27,0c0-0.03,0-0.06,0-0.09c-0.099,0-0.196,0-0.294,0c0-0.03,0-0.061,0-0.09
			c-0.09,0-0.18,0-0.27,0c0-0.031,0-0.06,0-0.091c-0.068,0-0.136,0-0.203,0c0-0.03,0-0.06,0-0.089
			c-0.096-0.002-0.158-0.039-0.271-0.023c0-0.03,0-0.06,0-0.09c-0.067,0-0.136,0-0.202,0c0.031-0.153-0.231-0.009-0.181-0.18
			c-0.09,0-0.181,0-0.271,0c0-0.031,0-0.061,0-0.091c-0.061,0-0.12,0-0.18,0c0-0.03,0-0.06,0-0.089c-0.068,0-0.136,0-0.203,0
			c0-0.038,0-0.076,0-0.113c-0.061,0-0.121,0-0.181,0c0.027-0.118-0.093-0.087-0.181-0.09c0.029-0.126-0.111-0.083-0.203-0.09
			c0.051-0.14-0.139-0.041-0.089-0.18c-0.061,0-0.12,0-0.181,0c0-0.03,0-0.06,0-0.09c-0.067,0-0.136,0-0.203,0
			c0.065-0.179-0.16-0.126-0.271-0.203c-0.023-0.017-0.046-0.158-0.181-0.091c0.057-0.153-0.168-0.026-0.112-0.18
			c-0.06,0-0.12,0-0.181,0c-0.07-0.154-0.168-0.283-0.382-0.293c0.003-0.153-0.184-0.117-0.181-0.27c-0.061,0-0.12,0-0.18,0
			c-0.039-0.098-0.079-0.192-0.203-0.203c-0.02-0.131-0.131-0.168-0.271-0.18c-0.062-0.127-0.137-0.24-0.294-0.271
			c-0.073-0.265-0.357-0.317-0.45-0.563c-0.037,0-0.075,0-0.112,0c-0.074-0.264-0.358-0.318-0.451-0.563c-0.037,0-0.074,0-0.112,0
			c0-0.052,0-0.105,0-0.158c-0.19-0.095-0.235-0.335-0.45-0.406c0.013-0.073-0.016-0.104-0.023-0.157
			c-0.129-0.036-0.112-0.218-0.27-0.225c0-0.053,0-0.105,0-0.158c-0.119,0.015-0.043-0.168-0.181-0.136
			c-0.026-0.131-0.052-0.263-0.203-0.271c0-0.052,0-0.105,0-0.157c-0.12,0.014-0.042-0.167-0.181-0.136
			c-0.008-0.081,0.042-0.221-0.09-0.18c-0.015-0.225-0.174-0.306-0.203-0.518c-0.119,0.015-0.042-0.167-0.18-0.135
			c-0.008-0.082,0.041-0.221-0.09-0.18c-0.025-0.095,0.068-0.311-0.09-0.271c-0.014-0.084,0.017-0.212-0.091-0.203
			c-0.007-0.091,0.036-0.232-0.091-0.204c-0.017-0.11,0.035-0.289-0.111-0.27c-0.009-0.082,0.041-0.222-0.09-0.181
			c-0.029-0.099,0.073-0.329-0.091-0.292c-0.025-0.095,0.069-0.31-0.091-0.271c-0.012-0.115,0.036-0.291-0.09-0.293
			c-0.018-0.133,0.049-0.35-0.09-0.36c-0.021-0.143,0.063-0.394-0.113-0.383c-0.043-0.146,0.097-0.472-0.09-0.473
			c-0.046-0.171,0.102-0.538-0.09-0.563c0-0.398,0-0.797,0-1.194c-0.007-0.031-0.057-0.019-0.09-0.022c0-0.248,0-0.496,0-0.744
			c0.029,0,0.06,0,0.09,0c0-0.346,0-0.691,0-1.037c0.029,0,0.061,0,0.09,0c0-0.158,0-0.315,0-0.473c0.031,0,0.061,0,0.09,0
			c0-0.128,0-0.255,0-0.383c0.031,0,0.061,0,0.091,0c0.01-0.103,0.034-0.19,0.022-0.315c0.057-0.057,0.122-0.104,0.09-0.248
			c0.104,0.014,0.074-0.106,0.09-0.181c0.03,0,0.061,0,0.091,0c0-0.067,0-0.135,0-0.203c0.03,0,0.061,0,0.091,0
			c0-0.06,0-0.12,0-0.18c0.029,0,0.059,0,0.09,0c0-0.06,0-0.121,0-0.181c0.246-0.002,0.143-0.353,0.383-0.361
			c0-0.037,0-0.075,0-0.113c0.24-0.097,0.301-0.375,0.562-0.451c0-0.037,0-0.075,0-0.112c0.078,0.018,0.108-0.012,0.091-0.09
			c0.085-0.014,0.245,0.05,0.202-0.09c0.392,0,0.781,0,1.172,0c0.031-0.008,0.02-0.057,0.023-0.091
			c0.631,0.001,1.268,0.006,1.869-0.022c0.027-0.004,0.02-0.042,0.023-0.068c0.538,0.005,1.066,0,1.577-0.022
			c0.026-0.003,0.019-0.041,0.022-0.067c0.501,0.005,0.991-0.001,1.465-0.023c0.031-0.007,0.019-0.057,0.022-0.09
			c0.437,0,0.871,0,1.308,0c0.029-0.007,0.018-0.057,0.022-0.09c0.149,0,0.3,0,0.45,0c0,0.09,0,0.18,0,0.27
			c-0.143,0.015-0.07,0.245-0.09,0.383c-0.029,0-0.061,0-0.091,0c0,1.87,0,3.741,0,5.611c0.007,0.031,0.057,0.019,0.091,0.022
			c0.037,0.121-0.088,0.403,0.09,0.383c0.022,0.105-0.062,0.319,0.09,0.293c0.014,0.115-0.036,0.291,0.113,0.27
			c0.008,0.082-0.042,0.222,0.09,0.181c0.014,0.084-0.051,0.245,0.09,0.203c-0.021,0.171,0.062,0.237,0.18,0.271
			c0,0.052,0,0.104,0,0.158c0.104,0.069,0.156,0.19,0.294,0.225c0,0.052,0,0.105,0,0.157c0.198,0.095,0.238,0.348,0.474,0.406
			c0,0.03,0,0.06,0,0.09c0.06,0,0.119,0,0.18,0c0.012,0.153,0.189,0.14,0.203,0.292c0.06,0,0.12,0,0.18,0
			c-0.049,0.14,0.141,0.041,0.09,0.181c0.061,0,0.121,0,0.181,0c0,0.03,0,0.06,0,0.089c0.061,0,0.12,0,0.181,0
			c-0.057,0.154,0.168,0.027,0.112,0.181c0.09,0,0.181,0,0.271,0c-0.008,0.052,0.004,0.086,0.023,0.113
			c0.192-0.014,0.225,0.134,0.45,0.09c0.014,0.143,0.245,0.071,0.383,0.089c0,0.03,0,0.06,0,0.09c0.128,0,0.255,0,0.383,0
			c0,0.03,0,0.06,0,0.091c0.585,0,1.172,0,1.758,0c0.03-0.008,0.019-0.057,0.022-0.091c0.145-0.043,0.472,0.097,0.473-0.09
			c0.133-0.017,0.35,0.049,0.361-0.089c0.236,0.055,0.237-0.123,0.45-0.09c0.05,0.003,0.011-0.08,0.022-0.113
			c0.084-0.014,0.246,0.05,0.203-0.09c0.082-0.008,0.222,0.041,0.181-0.09c0.081-0.008,0.221,0.042,0.18-0.089
			c0.146-0.014,0.276-0.04,0.294-0.181c0.203-0.015,0.283-0.152,0.359-0.292c0.053,0,0.105,0,0.158,0
			c0.053-0.089,0.088-0.198,0.226-0.203c0.02-0.1,0.08-0.16,0.181-0.181c0-0.06,0-0.12,0-0.18c0.214-0.011,0.197-0.253,0.383-0.293
			c0-0.06,0-0.12,0-0.18c0.139,0.049,0.04-0.14,0.18-0.09c0-0.068,0-0.135,0-0.203c0.029,0,0.061,0,0.09,0
			c0.018-0.26,0.232-0.324,0.203-0.631c0.03,0,0.061,0,0.09,0c0-0.098,0-0.195,0-0.293c0.03,0,0.061,0,0.09,0
			c0-0.158,0-0.315,0-0.474c0.03,0,0.061,0,0.091,0c0-1.78,0-3.56,0-5.34c-0.007-0.031-0.056-0.019-0.091-0.022
			c-0.043-0.145,0.097-0.472-0.09-0.473c0-0.113,0-0.226,0-0.338c-0.006-0.03-0.057-0.019-0.09-0.022
			c-0.008-0.09,0.037-0.232-0.09-0.203c-0.002-0.087,0.027-0.208-0.091-0.181C66.221,66.975,66.027,67.041,66.036,66.904z"/>
		<path fill-rule="evenodd" clip-rule="evenodd" d="M107.454,93.27c0.029,0,0.06,0,0.09,0c0,0.067,0,0.135,0,0.203
			c-0.03,0-0.061,0-0.09,0c-0.014,0.115,0.035,0.291-0.09,0.293c-0.018,0.133,0.049,0.349-0.091,0.36
			c0.009,0.106-0.007,0.188-0.022,0.271c-0.03,0-0.06,0-0.09,0c0,0.098,0,0.195,0,0.292c-0.031,0-0.061,0-0.091,0
			c0,0.068,0,0.136,0,0.203c-0.03,0-0.06,0-0.09,0c0,0.09,0,0.181,0,0.271c-0.03,0-0.06,0-0.09,0
			c0.054,0.243-0.132,0.244-0.091,0.473c-0.029,0-0.061,0-0.09,0c0.016,0.114-0.021,0.175-0.022,0.271c-0.03,0-0.06,0-0.091,0
			c0,0.067,0,0.135,0,0.202c-0.029,0-0.06,0-0.09,0c0,0.061,0,0.121,0,0.181c-0.029,0-0.06,0-0.09,0c0,0.067,0,0.135,0,0.203
			c-0.029,0-0.061,0-0.09,0c0.029,0.307-0.186,0.371-0.203,0.631c-0.029,0-0.061,0-0.09,0c0,0.067,0,0.136,0,0.203
			c-0.031,0-0.061,0-0.09,0c0,0.06,0,0.12,0,0.18c-0.031,0-0.061,0-0.091,0c0,0.06,0,0.12,0,0.18c-0.03,0-0.06,0-0.09,0
			c0.006,0.231-0.161,0.29-0.181,0.496c-0.037,0-0.074,0-0.113,0c0,0.06,0,0.12,0,0.18c-0.029,0-0.059,0-0.09,0
			c0,0.06,0,0.12,0,0.181c-0.029,0-0.06,0-0.09,0c0,0.06,0,0.12,0,0.18c-0.153-0.056-0.026,0.168-0.18,0.112c0,0.06,0,0.121,0,0.181
			c-0.031,0-0.061,0-0.09,0c0.016,0.083-0.039,0.097-0.023,0.18c-0.029,0-0.059,0-0.09,0c0.011,0.079,0.004,0.139-0.09,0.112
			c0,0.061,0,0.121,0,0.181c-0.03,0-0.061,0-0.09,0c0,0.06,0,0.12,0,0.18c-0.141-0.049-0.041,0.14-0.181,0.09
			c-0.011,0.155-0.059,0.272-0.203,0.293c0,0.06,0,0.12,0,0.18c-0.14-0.049-0.04,0.14-0.181,0.09c0,0.06,0,0.121,0,0.181
			c-0.158,0-0.106,0.208-0.27,0.203c0.016,0.083-0.039,0.096-0.023,0.18c-0.029,0-0.06,0-0.09,0c0.011,0.078,0.004,0.139-0.09,0.113
			c0,0.053,0,0.105,0,0.157c-0.094-0.026-0.102,0.035-0.09,0.113c-0.154-0.003-0.117,0.183-0.271,0.18
			c0.018,0.084-0.027,0.107-0.021,0.18c-0.095-0.026-0.102,0.034-0.09,0.113c-0.141-0.049-0.041,0.139-0.181,0.09
			c0,0.06,0,0.121,0,0.18c-0.109-0.07-0.085,0.065-0.113,0.09c-0.009,0.008-0.062-0.01-0.067,0c-0.012,0.021,0.016,0.072,0,0.091
			c-0.049,0.06-0.158,0.069-0.203,0.112c-0.016,0.015,0.016,0.075,0,0.09c-0.04,0.042-0.146-0.025-0.09,0.09
			c-0.029,0-0.061,0-0.09,0c0,0.06,0,0.12,0,0.18c-0.162,0.026-0.206,0.169-0.271,0.293c-0.179-0.021-0.132,0.183-0.293,0.18
			c0,0.037,0,0.075,0,0.113c-0.129,0.051-0.219,0.142-0.271,0.27c-0.179-0.021-0.132,0.183-0.293,0.181c0,0.037,0,0.075,0,0.112
			c-0.129,0.052-0.219,0.142-0.271,0.271c-0.179-0.021-0.132,0.184-0.292,0.181c0,0.038,0,0.075,0,0.112
			c-0.127,0.054-0.227,0.134-0.271,0.271c-0.252,0.057-0.278,0.338-0.542,0.383c-0.03,0.007-0.019,0.056-0.021,0.09
			c-0.156,0.031-0.232,0.144-0.293,0.271c-0.078-0.011-0.14-0.004-0.113,0.09c-0.07,0.019-0.188-0.008-0.158,0.112
			c-0.156,0.031-0.231,0.143-0.292,0.271c-0.053,0-0.104,0-0.158,0c-0.097,0.129-0.179,0.271-0.383,0.293
			c0.006,0.104-0.139,0.056-0.112,0.18c-0.079-0.011-0.141-0.004-0.113,0.09c-0.172-0.022-0.238,0.062-0.271,0.18
			c-0.171-0.006-0.227,0.104-0.292,0.203c-0.054,0-0.105,0-0.158,0c0.006,0.104-0.14,0.056-0.113,0.181c-0.052,0-0.104,0-0.156,0
			c0.014,0.119-0.169,0.042-0.137,0.18c-0.07-0.011-0.08,0.041-0.157,0.023c-0.018,0.17-0.272,0.103-0.294,0.271
			c-0.052,0-0.104,0-0.156,0c0.014,0.119-0.168,0.042-0.136,0.18c-0.1-0.002-0.226-0.029-0.181,0.113
			c-0.206-0.057-0.159,0.141-0.36,0.09c0.007,0.104-0.139,0.056-0.112,0.18c-0.084,0.013-0.246-0.05-0.203,0.09
			c-0.08,0.003-0.195-0.031-0.158,0.091c-0.1,0.004-0.25-0.041-0.203,0.112c-0.152-0.061-0.134,0.053-0.202,0.09
			c-0.036,0.02-0.104-0.018-0.136,0c-0.055,0.031-0.04,0.141-0.202,0.09c-0.03,0.007-0.019,0.057-0.022,0.091
			c-0.082,0.008-0.221-0.042-0.181,0.09c-0.081,0.008-0.222-0.042-0.18,0.09c-0.085,0.014-0.245-0.05-0.202,0.09
			c-0.208-0.02-0.217,0.159-0.451,0.112c-0.031,0.007-0.019,0.057-0.022,0.09c-0.082,0.008-0.222-0.041-0.181,0.09
			c-0.084,0.013-0.246-0.051-0.203,0.09c-0.094,0.026-0.309-0.069-0.271,0.09c-0.083,0.013-0.245-0.05-0.202,0.09
			c-0.072,0.056-0.306-0.05-0.271,0.113c-0.208-0.036-0.209,0.136-0.428,0.09c-0.03,0.007-0.019,0.056-0.022,0.09
			c-0.099,0.028-0.329-0.074-0.292,0.09c-0.096,0.025-0.311-0.069-0.271,0.09c-0.09,0-0.18,0-0.27,0
			c-0.049-0.003-0.011,0.08-0.023,0.113c-0.36-0.023-0.491,0.184-0.833,0.18c-0.03,0.007-0.019,0.057-0.022,0.09
			c-0.115,0.036-0.386-0.085-0.361,0.09c-0.1,0.028-0.329-0.074-0.293,0.09c-0.119,0-0.24,0-0.36,0
			c-0.03,0.007-0.019,0.056-0.022,0.09c-0.271,0.057-0.477,0.056-0.721,0.113c-0.037,0.009,0,0.051-0.022,0.067
			c-0.097,0.068-0.29-0.006-0.428,0.023c-0.03,0.007-0.019,0.057-0.022,0.09c-0.146,0.043-0.473-0.096-0.474,0.09
			c-0.146,0.043-0.472-0.097-0.474,0.09c-0.181,0-0.36,0-0.54,0c-0.032,0.007-0.019,0.057-0.023,0.09
			c-0.446-0.011-0.714,0.158-1.194,0.112c-0.119,0.166-0.511,0.06-0.766,0.09c-0.031,0.007-0.02,0.057-0.023,0.091
			c-0.307,0-0.615,0-0.923,0c-0.03,0.006-0.019,0.056-0.022,0.089c-0.459,0-0.917,0-1.375,0c-0.03,0.007-0.019,0.056-0.023,0.09
			c-1.404,0-2.809,0-4.213,0c0-0.03,0-0.06,0-0.09c-0.443,0-0.887,0-1.33,0c0-0.03,0-0.06,0-0.089c-0.338,0-0.676,0-1.014,0
			c0-0.031,0-0.061,0-0.091c-0.244-0.04-0.662,0.092-0.766-0.09c-0.213-0.036-0.58,0.085-0.653-0.09
			c-0.236,0.01-0.441-0.01-0.653-0.022c0-0.03,0-0.06,0-0.09c-0.188,0-0.377,0-0.564,0c0-0.03,0-0.06,0-0.09
			c-0.157,0-0.314,0-0.473,0c0-0.031,0-0.06,0-0.09c-0.158,0-0.315,0-0.474,0c0-0.03,0-0.06,0-0.09
			c-0.138-0.019-0.368,0.053-0.382-0.09c-0.157-0.024-0.426,0.064-0.452-0.09c-0.142,0.007-0.267-0.003-0.382-0.022
			c0-0.03,0-0.06,0-0.09c-0.129,0-0.256,0-0.383,0c0-0.03,0-0.06,0-0.09c-0.1,0-0.196,0-0.294,0c0-0.03,0-0.06,0-0.09
			c-0.12,0-0.24,0-0.36,0c0-0.03,0-0.06,0-0.09c-0.133-0.017-0.35,0.05-0.36-0.09c-0.114-0.013-0.292,0.036-0.293-0.09
			c-0.119,0.013-0.194-0.017-0.293-0.023c0-0.03,0-0.061,0-0.09c-0.091,0-0.181,0-0.271,0c0-0.03,0-0.06,0-0.09
			c-0.098,0-0.195,0-0.293,0c0-0.03,0-0.06,0-0.09c-0.09,0-0.18,0-0.271,0c0-0.03,0-0.06,0-0.09
			c-0.108-0.011-0.278,0.038-0.271-0.09c-0.24,0.053-0.26-0.116-0.473-0.09c-0.02-0.026-0.03-0.061-0.023-0.113
			c-0.09,0-0.18,0-0.27,0c0-0.03,0-0.06,0-0.09c-0.068,0-0.137,0-0.203,0c0-0.03,0-0.06,0-0.09c-0.09,0-0.18,0-0.271,0
			c0-0.03,0-0.061,0-0.09c-0.061,0-0.12,0-0.181,0c0-0.03,0-0.06,0-0.09c-0.246,0.051-0.263-0.126-0.473-0.112c0-0.03,0-0.06,0-0.09
			c-0.067,0-0.135,0-0.203,0c0-0.03,0-0.06,0-0.09c-0.09,0-0.18,0-0.27,0c0-0.03,0-0.06,0-0.09c-0.061,0-0.121,0-0.181,0
			c0-0.031,0-0.061,0-0.091c-0.243-0.006-0.302-0.194-0.563-0.18c0-0.038,0-0.075,0-0.112c-0.068,0-0.135,0-0.203,0
			c0-0.031,0-0.061,0-0.091c-0.06,0-0.119,0-0.18,0c0-0.03,0-0.06,0-0.09c-0.061,0-0.121,0-0.182,0c0-0.03,0-0.06,0-0.09
			c-0.256,0.001-0.317-0.193-0.562-0.203c0-0.03,0-0.06,0-0.09c-0.078,0.011-0.139,0.004-0.113-0.09c-0.059,0-0.119,0-0.18,0
			c0-0.03,0-0.06,0-0.09c-0.061,0-0.12,0-0.18,0c0-0.03,0-0.06,0-0.09c-0.212-0.006-0.279-0.157-0.474-0.18c0-0.038,0-0.075,0-0.113
			c-0.06,0-0.12,0-0.181,0c0-0.03,0-0.06,0-0.09c-0.061,0-0.12,0-0.18,0c0.026-0.095-0.035-0.101-0.113-0.09c0-0.03,0-0.06,0-0.09
			c-0.139-0.011-0.251-0.049-0.271-0.18c-0.06,0-0.12,0-0.18,0c0.017-0.122-0.134-0.077-0.112-0.203c-0.061,0-0.121,0-0.182,0
			c0.051-0.14-0.139-0.041-0.089-0.181c-0.06,0-0.12,0-0.181,0c0.015-0.111-0.146-0.05-0.113-0.18c-0.06,0-0.119,0-0.18,0
			c0.059-0.155-0.131-0.064-0.09-0.203c-0.061,0-0.121,0-0.181,0c0.026-0.094-0.034-0.102-0.112-0.09c0-0.03,0-0.061,0-0.09
			c-0.203-0.023-0.32-0.131-0.383-0.293c-0.053,0-0.105,0-0.158,0c0.027-0.094-0.035-0.102-0.112-0.091
			c0.003-0.153-0.184-0.117-0.181-0.27c-0.229,0.004-0.307-0.144-0.383-0.293c-0.061,0-0.121,0-0.181,0
			c-0.062-0.223-0.341-0.23-0.384-0.473c-0.06,0-0.119,0-0.18,0c0.049-0.139-0.14-0.041-0.09-0.18c-0.038,0-0.075,0-0.112,0
			c-0.045-0.136-0.146-0.216-0.271-0.271c0.057-0.155-0.131-0.064-0.09-0.203c-0.079,0.011-0.141,0.004-0.113-0.09
			c-0.053,0-0.105,0-0.157,0c-0.03-0.194-0.26-0.191-0.294-0.383c-0.037,0-0.074,0-0.112,0c-0.052-0.129-0.142-0.219-0.271-0.271
			c-0.02-0.1-0.08-0.161-0.18-0.18c0.021-0.097-0.016-0.135-0.113-0.113c-0.082-0.158-0.202-0.279-0.36-0.36c0-0.031,0-0.06,0-0.09
			c-0.153-0.063-0.188-0.248-0.36-0.293c-0.001-0.157-0.079-0.236-0.203-0.271c0.059-0.155-0.131-0.064-0.09-0.203
			c-0.038,0-0.075,0-0.113,0c-0.062-0.126-0.14-0.235-0.27-0.293c0.056-0.236-0.171-0.189-0.181-0.359c-0.038,0-0.075,0-0.112,0
			c-0.02-0.162-0.193-0.167-0.181-0.361c-0.127-0.031-0.124-0.191-0.271-0.203c0.011-0.079,0.004-0.14-0.09-0.112
			c-0.02-0.071,0.008-0.188-0.113-0.159c-0.031-0.156-0.143-0.231-0.27-0.292c0-0.052,0-0.105,0-0.158
			c-0.13-0.096-0.271-0.179-0.293-0.384c-0.008-0.03-0.057-0.018-0.09-0.021c0.01-0.079,0.004-0.14-0.091-0.113
			c0-0.045,0-0.091,0-0.135c-0.12,0.014-0.042-0.168-0.18-0.135c0-0.053,0-0.105,0-0.158c-0.151-0.075-0.263-0.188-0.294-0.383
			c-0.007-0.031-0.056-0.019-0.09-0.022c0.021-0.172-0.062-0.238-0.18-0.271c0-0.053,0-0.105,0-0.157
			c0.003-0.049-0.08-0.011-0.113-0.023c-0.045-0.113-0.045-0.271-0.18-0.293c0.01-0.078,0.004-0.139-0.091-0.112
			c-0.002-0.081,0.03-0.196-0.089-0.158c0-0.061,0-0.121,0-0.181c-0.104,0.006-0.057-0.139-0.182-0.112
			c-0.001-0.104-0.017-0.194-0.112-0.203c-0.009-0.082,0.041-0.222-0.091-0.18c0-0.053,0-0.105,0-0.158
			c-0.119,0.015-0.041-0.167-0.18-0.135c-0.008-0.082,0.041-0.222-0.09-0.18c0.001-0.099,0.029-0.225-0.113-0.18
			c0.061-0.153-0.052-0.136-0.09-0.203c-0.021-0.037,0.018-0.103,0-0.135c-0.031-0.056-0.141-0.041-0.09-0.203
			c-0.008-0.031-0.057-0.019-0.09-0.022c-0.009-0.082,0.041-0.222-0.091-0.18c-0.008-0.082,0.042-0.222-0.09-0.181
			c-0.005-0.1,0.04-0.251-0.112-0.203c0.011-0.282-0.203-0.338-0.181-0.63c-0.007-0.032-0.056-0.02-0.091-0.023
			c-0.008-0.082,0.042-0.222-0.09-0.181c-0.014-0.084,0.051-0.245-0.09-0.202c0.014-0.054-0.028-0.164,0.023-0.181
			c0.117-0.034,0.021,0.145,0.156,0.09c0,0.052,0,0.105,0,0.157c0.258,0.066,0.225,0.422,0.474,0.496
			c-0.011,0.079-0.004,0.14,0.091,0.113c-0.009,0.098-0.016,0.196,0.111,0.158c0.032,0.156,0.145,0.232,0.271,0.292
			c0.004,0.125,0.08,0.176,0.181,0.203c0,0.053,0,0.105,0,0.158c0.239,0.105,0.321,0.369,0.562,0.473c0,0.038,0,0.075,0,0.112
			c0.038,0,0.075,0,0.112,0c0.053,0.129,0.143,0.219,0.271,0.271c0.02,0.1,0.08,0.16,0.18,0.18c0,0.038,0,0.075,0,0.113
			c0.038,0,0.075,0,0.113,0c-0.004,0.153,0.183,0.117,0.18,0.27c0.084-0.016,0.098,0.039,0.18,0.023
			c0.006,0.108,0.088,0.138,0.182,0.158c0.074,0.211,0.309,0.261,0.383,0.473c0.148-0.029,0.147,0.092,0.27,0.09
			c0.014,0.152,0.191,0.139,0.203,0.293c0.061,0,0.121,0,0.181,0c0.001,0.224,0.298,0.153,0.292,0.382c0.061,0,0.121,0,0.182,0
			c-0.051,0.14,0.139,0.041,0.09,0.181c0.078-0.011,0.139-0.004,0.112,0.09c0.157-0.036,0.122,0.118,0.271,0.09
			c-0.041,0.139,0.148,0.048,0.09,0.203c0.068,0,0.136,0,0.203,0c-0.049,0.14,0.14,0.04,0.09,0.18c0.061,0,0.121,0,0.18,0
			c-0.049,0.14,0.141,0.041,0.091,0.18c0.146,0.02,0.277,0.054,0.294,0.204c0.06,0,0.119,0,0.18,0c-0.05,0.14,0.14,0.04,0.09,0.18
			c0.067,0,0.135,0,0.203,0c0.023,0.127,0.154,0.146,0.27,0.181c0,0.03,0,0.06,0,0.09c0.084-0.016,0.098,0.038,0.181,0.022
			c0,0.03,0,0.06,0,0.09c0.079-0.011,0.14-0.004,0.113,0.09c0.06,0,0.12,0,0.18,0c0,0.03,0,0.06,0,0.09c0.06,0,0.12,0,0.181,0
			c0,0.03,0,0.06,0,0.09c0.145,0.013,0.256,0.059,0.293,0.181c0.06,0,0.12,0,0.18,0c0,0.038,0,0.075,0,0.112c0.061,0,0.12,0,0.18,0
			c0,0.03,0,0.06,0,0.09c0.061,0,0.121,0,0.182,0c0,0.03,0,0.06,0,0.09c0.066,0,0.135,0,0.202,0c0,0.03,0,0.06,0,0.09
			c0.14,0.018,0.265,0.05,0.294,0.18c0.06,0,0.119,0,0.18,0c0,0.038,0,0.076,0,0.114c0.06,0,0.119,0,0.18,0c0,0.029,0,0.06,0,0.089
			c0.068,0,0.136,0,0.203,0c0,0.03,0,0.061,0,0.09c0.09,0,0.18,0,0.271,0c0,0.03,0,0.06,0,0.09c0.243,0.012,0.313,0.197,0.563,0.203
			c0,0.03,0,0.06,0,0.09c0.061,0,0.119,0,0.18,0c0,0.03,0,0.06,0,0.09c0.068,0,0.136,0,0.203,0c0,0.03,0,0.06,0,0.09
			c0.09,0,0.181,0,0.27,0c0.023,0.196,0.35,0.086,0.384,0.271c0.112-0.016,0.175,0.021,0.271,0.022c0,0.03,0,0.06,0,0.09
			c0.067,0,0.135,0,0.203,0c0,0.03,0,0.06,0,0.09c0.09,0,0.18,0,0.271,0c0,0.03,0,0.06,0,0.09c0.09,0,0.18,0,0.271,0
			c0,0.03,0,0.06,0,0.09c0.066,0,0.135,0,0.203,0c0,0.031,0,0.061,0,0.091c0.112,0.015,0.285-0.031,0.292,0.09
			c0.112-0.015,0.175,0.021,0.271,0.022c0,0.03,0,0.06,0,0.09c0.09,0,0.18,0,0.271,0c0,0.03,0,0.06,0,0.09c0.067,0,0.135,0,0.203,0
			c0,0.03,0,0.06,0,0.09c0.12,0,0.239,0,0.36,0c0,0.03,0,0.06,0,0.09c0.113,0.015,0.287-0.031,0.293,0.09
			c0.107,0.012,0.271-0.031,0.27,0.089c0.119-0.013,0.193,0.018,0.294,0.023c0,0.03,0,0.06,0,0.09c0.097,0,0.194,0,0.293,0
			c0,0.03,0,0.06,0,0.089c0.12,0,0.24,0,0.36,0c0,0.031,0,0.06,0,0.091c0.119,0,0.24,0,0.36,0c0,0.03,0,0.06,0,0.09
			c0.115,0.013,0.291-0.036,0.293,0.089c0.138,0.02,0.369-0.053,0.383,0.091c0.142-0.007,0.267,0.003,0.384,0.022
			c0,0.03,0,0.06,0,0.09c0.119,0,0.24,0,0.36,0c0,0.03,0,0.061,0,0.09c0.157,0,0.315,0,0.474,0c0,0.03,0,0.06,0,0.09
			c0.156,0,0.314,0,0.473,0c0,0.03,0,0.06,0,0.09c0.139,0.019,0.368-0.053,0.383,0.09c0.189,0.022,0.473-0.051,0.541,0.091
			c0.179-0.006,0.344,0.001,0.496,0.021c0,0.031,0,0.061,0,0.091c0.188,0,0.375,0,0.562,0c0,0.03,0,0.06,0,0.09
			c0.211,0,0.421,0,0.632,0c0,0.03,0,0.06,0,0.09c0.218,0,0.435,0,0.653,0c0,0.03,0,0.06,0,0.09
			c0.271-0.008,0.518,0.008,0.766,0.023c0,0.022,0,0.045,0,0.068c0.299-0.014,0.553,0.018,0.834,0.022c0,0.022,0,0.045,0,0.068
			c0.361-0.008,0.699,0.006,1.037,0.022c0,0.03,0,0.06,0,0.09c0.473,0,0.946,0,1.42,0c0,0.03,0,0.06,0,0.09c2.057,0,4.115,0,6.174,0
			c0.03-0.007,0.018-0.056,0.022-0.09c0.428,0,0.856,0,1.284,0c0.03-0.007,0.019-0.057,0.022-0.09
			c0.375-0.098,0.771,0.081,1.104-0.022c0.02-0.006,0.018-0.066,0.021-0.068c0.254-0.051,0.561,0.055,0.812-0.022
			c0.02-0.006,0.018-0.067,0.021-0.068c0.23-0.045,0.491-0.008,0.744-0.023c0.03-0.007,0.019-0.056,0.022-0.09
			c0.21,0,0.421,0,0.631,0c0.03-0.007,0.019-0.056,0.022-0.09c0.171-0.047,0.537,0.102,0.562-0.09c0.182,0,0.361,0,0.542,0
			c0.03-0.006,0.019-0.057,0.022-0.091c0.186-0.002,0.338-0.037,0.541-0.021c0.051-0.137,0.299-0.077,0.473-0.091
			c0.051-0.137,0.299-0.077,0.473-0.09c0.031-0.007,0.02-0.056,0.023-0.09c0.12-0.037,0.403,0.087,0.383-0.09
			c0.139-0.042,0.455,0.095,0.451-0.09c0.119,0,0.24,0,0.36,0c0.03-0.007,0.019-0.056,0.022-0.09c0.127-0.041,0.26,0,0.361-0.022
			c0.037-0.009-0.001-0.052,0.021-0.068c0.084-0.059,0.235,0.001,0.338-0.023c0.038-0.008,0-0.051,0.022-0.067
			c0.086-0.06,0.249,0.003,0.36-0.022c0.031-0.008,0.02-0.057,0.023-0.09c0.099-0.028,0.33,0.074,0.293-0.091
			c0.114-0.035,0.385,0.086,0.359-0.089c0.092,0,0.182,0,0.271,0c0.03-0.007,0.019-0.056,0.022-0.09
			c0.112-0.053,0.376,0.045,0.383-0.112c0.095-0.026,0.31,0.068,0.271-0.09c0.095-0.025,0.31,0.069,0.27-0.09
			c0.101-0.028,0.33,0.075,0.294-0.09c0.095-0.025,0.31,0.069,0.271-0.09c0.09,0,0.18,0,0.271,0c0.048,0.004,0.011-0.08,0.022-0.113
			c0.287-0.014,0.428-0.173,0.721-0.181c0.031-0.006,0.019-0.056,0.023-0.09c0.084-0.013,0.244,0.05,0.202-0.09
			c0.095-0.025,0.31,0.069,0.271-0.09c0.084-0.014,0.245,0.05,0.203-0.09c0.071-0.056,0.305,0.049,0.27-0.113
			c0.209,0.036,0.211-0.136,0.428-0.091c0.031-0.006,0.02-0.056,0.023-0.089c0.084-0.013,0.245,0.049,0.203-0.09
			c0.084-0.014,0.244,0.05,0.202-0.09c0.082-0.008,0.222,0.041,0.181-0.09c0.083-0.044,0.299,0.043,0.27-0.113
			c0.207,0.057,0.16-0.141,0.361-0.089c0.03-0.007,0.019-0.057,0.022-0.09c0.082-0.009,0.222,0.042,0.181-0.09
			c0.082-0.008,0.221,0.041,0.18-0.089c0.101-0.004,0.252,0.04,0.203-0.114c0.082-0.007,0.222,0.042,0.18-0.089
			c0.207,0.056,0.16-0.141,0.361-0.09c0.03-0.008,0.018-0.057,0.022-0.09c0.053,0,0.104,0,0.157,0
			c-0.014-0.12,0.168-0.042,0.135-0.18c0.082-0.009,0.223,0.042,0.182-0.09c0.082-0.016,0.207,0.012,0.18-0.113
			c0.202,0.06,0.153-0.132,0.338-0.09c-0.015-0.12,0.168-0.042,0.135-0.18c0.082-0.008,0.222,0.042,0.181-0.09
			c0.054,0,0.104,0,0.157,0c0.049,0.004,0.01-0.08,0.023-0.112c0.167-0.051,0.337-0.099,0.383-0.271
			c0.082-0.008,0.222,0.042,0.18-0.09c0.061,0,0.121,0,0.181,0c0.04-0.028,0.005-0.131,0.112-0.09c0-0.038,0-0.076,0-0.113
			c0.188,0.03,0.229-0.087,0.293-0.181c0.053,0,0.105,0,0.158,0c0.031-0.126,0.191-0.124,0.203-0.27c0.053,0,0.104,0,0.158,0
			c0.051-0.211,0.371-0.153,0.404-0.383c0.079,0.011,0.141,0.004,0.113-0.09c0.183,0.063,0.114-0.125,0.271-0.09
			c0-0.038,0-0.075,0-0.113c0.2-0.069,0.372-0.168,0.45-0.36c0.078,0.011,0.141,0.004,0.113-0.09c0.053,0,0.104,0,0.158,0
			c0.041-0.183,0.254-0.196,0.292-0.384c0.124-0.003,0.177-0.079,0.203-0.18c0.052,0,0.105,0,0.157,0
			c0.016-0.149,0.189-0.142,0.203-0.293c0.03,0,0.061,0,0.09,0c0.031-0.126,0.191-0.124,0.203-0.27c0.022,0,0.045,0,0.068,0
			c0.053-0.179,0.256-0.209,0.314-0.383c0.101-0.021,0.16-0.081,0.18-0.181c0.182-0.043,0.179-0.272,0.384-0.292
			c0-0.03,0-0.06,0-0.09c0.153,0.003,0.117-0.184,0.271-0.18c0-0.038,0-0.076,0-0.113c0.16,0.003,0.113-0.201,0.293-0.18
			c0-0.06,0-0.121,0-0.18c0.14,0.049,0.04-0.14,0.18-0.09c0-0.037,0-0.076,0-0.113c0.16,0.01,0.117-0.185,0.271-0.18
			c-0.017-0.083,0.038-0.097,0.022-0.18c0.14,0.05,0.04-0.14,0.18-0.09c-0.011-0.079-0.005-0.139,0.091-0.112
			c0-0.053,0-0.105,0-0.158c0.094,0.026,0.101-0.035,0.09-0.112c0.029,0,0.061,0,0.09,0c-0.016-0.084,0.039-0.097,0.023-0.181
			C107.458,93.409,107.464,93.348,107.454,93.27z"/>
	</g>
</g>
</svg>
