<?xml version="1.0" encoding="utf-8"?>
<!-- Generator: Adobe Illustrator 17.1.0, SVG Export Plug-In . SVG Version: 6.00 Build 0)  -->
<!DOCTYPE svg PUBLIC "-//W3C//DTD SVG 1.1//EN" "http://www.w3.org/Graphics/SVG/1.1/DTD/svg11.dtd">
<svg version="1.1" id="Capa_1" xmlns="http://www.w3.org/2000/svg" xmlns:xlink="http://www.w3.org/1999/xlink" x="0px" y="0px"
	 viewBox="0 0 43.6 43.6" enable-background="new 0 0 43.6 43.6" xml:space="preserve">
<path fill="#B5B5B5" d="M40.9,0H2.7C1.2,0,0,1.2,0,2.7v38.2c0,1.5,1.2,2.7,2.7,2.7h38.2c1.5,0,2.7-1.2,2.7-2.7V2.7
	C43.6,1.2,42.4,0,40.9,0z M27.3,14.7h-2c-1.4,0-1.4,0.5-1.4,1.5v1.6h3.4l-0.7,4.1h-2.7v10.9h-4.8V21.8h-2v-4.1h2v-1.9
	c0-3.1,1.5-4.9,5.1-4.9h3V14.7z"/>
</svg>
