<?xml version="1.0" encoding="utf-8"?>
<!-- Generator: Adobe Illustrator 17.1.0, SVG Export Plug-In . SVG Version: 6.00 Build 0)  -->
<!DOCTYPE svg PUBLIC "-//W3C//DTD SVG 1.1//EN" "http://www.w3.org/Graphics/SVG/1.1/DTD/svg11.dtd">
<svg version="1.1" id="Capa_1" xmlns="http://www.w3.org/2000/svg" xmlns:xlink="http://www.w3.org/1999/xlink" x="0px" y="0px"
	 viewBox="0 0 317.3 337" enable-background="new 0 0 317.3 337" xml:space="preserve">
<path d="M31.9,75.8C34.5,53.6,43.7,46.2,65,48.2c2.4,0.2,5.6-1.3,7.3-3.1c12.9-13,27.1-12.8,40.1,0.5c1.7,1.7,5.3,3.1,7.4,2.5
	c17.9-4.6,32.2,8.2,32.2,26.4c10.7,1.6,22.3,3.5,26,15.7c2.6,8.5,6.1,15.9,11.3,23.1c6.5,9.1,2.7,17.9-3.4,26.3
	c-2.2,3-3.6,7.6-3.2,11.3c1.2,11.7-4.6,19.2-12.9,26.1c-2.6,2.2-5.3,5.9-5.6,9.1c-2.3,31.8-25.6,56.6-57.6,60.8
	c-30.1,4-59.4-14.6-69.5-43.9c-0.9-2.6-2.4-5.9-4.6-7.1c-18.7-10.6-21.8-17.5-15.7-37.5c-2-1.4-4.2-2.8-6.4-4.4
	c-11.2-8-13.9-21.3-5.6-32.2c4.2-5.5,6.1-9.6,4-17C5.2,92.3,15.9,79.8,31.9,75.8z"/>
<rect x="34.3" y="123" fill="#999999" width="156" height="196"/>
<rect x="28.3" y="117" fill="#94D630" width="156" height="198"/>
<g>
	<g>
		<g>
			<g>
				<path d="M55.2,173.7c0,0-3.4,2.1-3.4-1.5c0-3.6,2.1-3.4,3.4-3.4h33.5c0,0,1.8-9.9,3.4-9.9c1.6,0,3.6,9.7,3.6,9.7l34.7,0.4
					c0,0,2.5,0.2,2.5,2.9c0,2.7-3.5,1.1-3.5,1.1s2,19.4-16.1,19.4c-18.1,0-17.1-19.8-17.1-19.8l-6.3,0c0,0,0.4,19.8-18,19.8
					S55.2,173.7,55.2,173.7"/>
			</g>
		</g>
	</g>
	<g>
		<g>
			<g>
				<path fill="#FFFFFF" d="M58.4,172.6c0,0-2.5,16.7,13.7,16.7S86,172.6,86,172.6H58.4z"/>
			</g>
		</g>
	</g>
	<g>
		<g>
			<g>
				<path fill="#FFFFFF" d="M127.1,172.6c0,0,1.8,16.7-14.4,16.7c-16.2,0-13.2-16.7-13.2-16.7H127.1z"/>
			</g>
		</g>
	</g>
	<g>
		<g>
			<g>
				<path d="M74.3,174.9c0,1.8-1.5,3.3-3.3,3.3c-1.8,0-3.3-1.5-3.3-3.3v-2.3h6.5V174.9z"/>
			</g>
		</g>
	</g>
	<g>
		<g>
			<g>
				<path d="M116.1,174.9c0,1.8-1.5,3.3-3.3,3.3c-1.8,0-3.3-1.5-3.3-3.3v-2.3h6.5V174.9z"/>
			</g>
		</g>
	</g>
	<g>
		<g>
			<g>
				<path d="M79.4,202.9c0,0,2.1-6.8,10.7-5.6c8.6,1.3,8.5,8.4,8.5,8.4L79.4,202.9z"/>
			</g>
		</g>
	</g>
</g>
<path d="M132.6,92c-13.1,0-24,8.1-26.1,18.8c-2.5-7.2-11-12.4-21.1-12.4c-3.2,0-6.3,0.5-9,1.5L59.6,81.3L3.3,132.1l14.6,16.2
	c0.1,7.6,6.6,13.7,14.5,13.7c8,0,14.5-6.2,14.5-13.8c0-0.6,0-1.1-0.1-1.7c2.5,1.1,5.2,1.7,8.2,1.7c10.2,0,18.5-7.2,18.5-16.1
	c0-1-0.1-1.9-0.3-2.8c3.5,1.8,7.6,2.8,12.1,2.8c10.3,0,19-5.5,21.3-12.9c2.5,10.3,13.1,18,25.9,18c14.6,0,26.5-10.1,26.5-22.6
	S147.2,92,132.6,92z"/>
<rect x="162.3" y="8" fill="#999999" width="155" height="329"/>
<rect x="156.3" fill="#FAE830" width="156" height="332"/>
<g>
	<path fill="#FFFFFF" d="M194.7,81.1c6,2.3,12.6,3.3,19,2.8c0.9-0.1,1.8-0.2,2.7-0.5c1.3-0.4,2.3-1.3,3.4-2.1
		c1.9-1.5,3.8-3.1,4.7-5.3c0.7-1.6,0.7-3.4,1.5-5c0.8-1.6,2.4-2.7,2.9-4.4c0.4-1.1,0.2-2.3,0.4-3.5c0.3-1.6,1.3-3,1.3-4.6
		c0-1.5-0.9-2.9-0.8-4.4c0-0.4,0.1-0.8,0-1.1c-0.1-0.3-0.4-0.4-0.6-0.6c-1.9-1.3-4.2-1.9-6.5-2.4c-7.1-1.6-14.4-2.6-21.7-2.9
		c-3.8-0.1-7.8,0-11.2,1.7c-0.8,0.4-1.6,1-2.2,1.7c-0.7,0.8-1.1,1.8-1.4,2.8c-0.9,2.9-1.3,6-1.1,9c0.3,3.5,1.5,6.8,2.7,10
		c0.3,0.7,0.5,1.4,0.8,2.1c0.8,1.6,1.9,3,3,4.4c0.5,0.6,0.9,1.1,1.5,1.5C193.7,80.6,194.2,80.8,194.7,81.1z"/>
	<path fill="#FFFFFF" d="M277.7,81.1c-6,2.3-12.6,3.3-19,2.8c-0.9-0.1-1.8-0.2-2.7-0.5c-1.3-0.4-2.3-1.3-3.4-2.1
		c-1.9-1.5-3.8-3.1-4.7-5.3c-0.7-1.6-0.7-3.4-1.5-5c-0.8-1.6-2.4-2.7-2.9-4.4c-0.4-1.1-0.2-2.3-0.4-3.5c-0.3-1.6-1.3-3-1.3-4.6
		c0-1.5,0.9-2.9,0.8-4.4c0-0.4-0.1-0.8,0-1.1c0.1-0.3,0.4-0.4,0.6-0.6c1.9-1.3,4.2-1.9,6.5-2.4c7.1-1.6,14.4-2.6,21.7-2.9
		c3.8-0.1,7.8,0,11.2,1.7c0.8,0.4,1.6,1,2.2,1.7c0.7,0.8,1.1,1.8,1.4,2.8c0.9,2.9,1.3,6,1.1,9c-0.3,3.5-1.5,6.8-2.7,10
		c-0.3,0.7-0.5,1.4-0.8,2.1c-0.8,1.6-1.9,3-3,4.4c-0.5,0.6-0.9,1.1-1.5,1.5C278.7,80.6,278.2,80.8,277.7,81.1z"/>
	<g>
		<path d="M293.4,52.6c0-0.1,0-0.2,0-0.3c0.2-1.3,0.4-3.1-2.1-3.4c-1.8-0.2-3.5-0.7-5.3-1.2c-1.8-0.5-3.7-1-5.6-1.3
			c-0.8-0.1-1.6-0.2-2.4-0.4c-2.6-0.4-5.3-0.8-8-0.8l-0.2,0c-5.8,0-11.6,1.2-17.1,2.3c-3.4,0.7-6.8,1.4-10.3,1.8
			c-4,0.5-7.9,0.6-11.4,0.2c-2.6-0.3-5.3-0.9-7.9-1.5c-2.3-0.5-4.7-1.1-7.1-1.4l-0.4-0.1c-4.3-0.6-8.8-1.3-13.3-1.3l-0.2,0
			c-5.5,0-10.9,1.2-16.1,2.3c-2.4,0.5-4.8,1.1-7.2,1.5l-0.5,0.1v0.5c0,0.5,0,1,0,1.5c-0.1,2.1-0.2,4.2,0.9,5.7
			c0.4,0.5,0.9,1.1,1.3,1.6c1,1.1,2,2.2,2.3,3.6c1.3,5.4,3,10.6,5.3,15.7c1,2.3,3,4.2,5.8,5.6c3.7,1.9,8.1,2.8,12.9,2.8
			c1.9,0,3.8-0.1,5.7-0.4c9.5-1.4,14.2-8.7,17.5-15.7c0.6-1.3,1-2.7,1.3-4.1c0.5-1.9,0.9-3.6,1.9-5.2c0.4-0.6,1-0.8,2.1-0.8
			c0.4,0,0.9,0,1.3,0.1c0.4,0,0.9,0.1,1.3,0.1h0c1.2,0,2.6,2.3,3.2,4.4c2.6,9.2,6.4,15.1,11.8,18.2c3.8,2.1,8.5,3.3,13.2,3.3
			c7.9,0,14.8-3.3,18.3-8.9c1.9-3,2.7-6.4,3.6-9.8c0.3-1,0.5-2.1,0.8-3.1c0.1-0.2,0.1-0.4,0.2-0.7c0.7-2.4,1.4-5,3.5-6.2
			c1.1-0.6,0.9-2,0.8-3.3C293.4,53.5,293.4,53,293.4,52.6z M282.7,72.7c-1.6,4.7-4.9,7.9-9.4,8.9c-2.4,0.6-4.9,0.9-7.2,0.9
			c-8.4,0-15-4-18.5-11.3c-3.7-7.7-4.6-12.2-3.1-15.3c1.4-2.9,5.2-5,11.9-6.4c2.2-0.5,4.7-0.7,7.4-0.7l0.3,0c2.2,0,4.7,0.2,7.8,0.5
			c5.2,0.6,13,1.5,13.4,8.1C285.6,61.8,284.7,66.7,282.7,72.7z M187.3,57.4c0.4-6.6,8.2-7.5,13.4-8.1c3.1-0.3,5.6-0.5,7.8-0.5l0.3,0
			c2.7,0,5.1,0.2,7.4,0.7c6.7,1.4,10.5,3.4,11.9,6.4c1.5,3.2,0.7,7.6-3.1,15.3c-3.5,7.3-10.1,11.3-18.5,11.3c-2.3,0-4.7-0.3-7.2-0.9
			c-4.5-1.1-7.9-4.2-9.4-8.9C187.9,66.7,187.1,61.8,187.3,57.4z"/>
		<path d="M216.7,54.7c-1.4,0-2.8,2.1-2.8,6s1.4,6,2.8,6c1.4,0,2.8-2.1,2.8-6S218.1,54.7,216.7,54.7z"/>
		<path d="M277.4,54.7c-1.8,0-2.8,3-2.8,5.8c0,2.8,1,5.8,2.8,5.8s2.8-3,2.8-5.8C280.3,57.7,279.3,54.7,277.4,54.7z"/>
		<g id="svg_3_1_">
			<ellipse fill="#FFFFAA" cx="277.7" cy="61.2" rx="0" ry="0"/>
		</g>
		<g id="svg_4_1_">
			<path fill="#FFFFAA" d="M230.9,49.4c1.2,2,2.5,10,2.5,10s4.2,0.5,5.1-0.2c1-0.7,0.2-9.8,0.2-9.8S229.6,47.5,230.9,49.4z"/>
			<path d="M236,60.2L236,60.2c-1.4,0-2.7-0.2-2.8-0.2l-0.5-0.1l-0.1-0.5c-0.3-2.2-1.4-8.3-2.4-9.8c-0.3-0.5-0.2-0.9-0.1-1.1
				c0.3-0.5,0.9-0.7,2.1-0.7c2.4,0,6.3,0.8,6.5,0.9l0.4,0.1l0,0.5c0,0,0.2,2.3,0.2,4.7c0.1,4.6-0.3,5.4-0.7,5.7
				C238.5,59.9,237.9,60.2,236,60.2z M233.9,58.9c0.5,0,1.3,0.1,2.2,0.1c1.4,0,1.9-0.2,2-0.3c0.4-0.7,0.4-5,0.1-8.8
				c-1.1-0.2-4-0.8-5.8-0.8c-0.5,0-0.7,0-0.9,0.1C232.6,51.2,233.6,57.1,233.9,58.9z"/>
		</g>
	</g>
	<g>
		<g>
			<g>
				<path d="M223.2,102.3c0,0,2.4-7.9,12.4-6.4s9.8,9.7,9.8,9.7L223.2,102.3z"/>
			</g>
		</g>
	</g>
</g>
</svg>
