<?xml version="1.0" encoding="utf-8"?>
<!-- Generator: Adobe Illustrator 17.1.0, SVG Export Plug-In . SVG Version: 6.00 Build 0)  -->
<!DOCTYPE svg PUBLIC "-//W3C//DTD SVG 1.1//EN" "http://www.w3.org/Graphics/SVG/1.1/DTD/svg11.dtd">
<svg version="1.1" id="Capa_1" xmlns="http://www.w3.org/2000/svg" xmlns:xlink="http://www.w3.org/1999/xlink" x="0px" y="0px"
	 viewBox="0 0 971 21.8" enable-background="new 0 0 971 21.8" xml:space="preserve">
<path opacity="0.35" fill="#333333" d="M971,12.3C971,5.3,966.4,0,960.6,0c-4.7,0-8.7,4-10,9.2c-1.3-5.2-5.2-9-10-9
	c-4.7,0-8.7,3.9-10,9.1c-1.3-5.2-5.3-9-10-9c-4.7,0-8.7,3.8-10,9.1c-1.3-5.2-5.3-9.1-10-9.1c-4.7,0-8.7,3.8-10,9.1
	c-1.3-5.2-5.3-9.1-10-9.1c-4.7,0-8.7,3.8-10,9.1c-1.3-5.2-5.3-9.1-10-9.1c-4.7,0-8.7,3.8-10,9.1c-1.3-5.2-5.3-9.1-10-9.1
	c-4.7,0-8.7,3.8-10,9.1c-1.3-5.2-5.3-9.1-10-9.1c-4.7,0-8.7,3.8-10,9.1c-1.3-5.2-5.3-9.1-10-9.1c-4.7,0-8.7,3.8-10,9.1
	c-1.3-5.2-5.3-9.1-10-9.1c-4.7,0-8.7,3.8-10,9.1c-1.3-5.2-5.3-9.1-10-9.1c-4.7,0-8.7,3.8-10,9.1c-1.3-5.2-5.3-9.1-10-9.1
	c-4.5,0-8.3,3.4-9.7,8.1c-1.5-4.7-5.3-8.1-9.7-8.1c-4.7,0-8.7,3.8-10,9.1c-1.3-5.2-5.3-9.1-10-9.1c-4.7,0-8.7,3.8-10,9.1
	c-1.3-5.2-5.3-9.1-10-9.1c-4.7,0-8.7,3.8-10,9.1c-1.3-5.2-5.3-9.1-10-9.1c-4.7,0-8.7,3.8-10,9.1c-1.3-5.2-5.3-9.1-10-9.1
	c-4.7,0-8.7,3.8-10,9.1c-1.3-5.2-5.3-9.1-10-9.1c-4.7,0-8.7,3.8-10,9.1c-1.3-5.2-5.3-9.1-10-9.1c-4.7,0-8.7,3.8-10,9.1
	c-1.3-5.2-5.3-9.1-10-9.1c-4.7,0-8.7,3.8-10,9.1c-1.3-5.2-5.3-9.1-10-9.1c-4.7,0-8.7,3.8-10,9.1c-1.3-5.2-5.3-9.1-10-9.1
	c-4.7,0-8.7,3.8-10,9.1c-1.3-5.2-5.3-9.1-10-9.1c-4.7,0-8.7,3.8-10,9.1c-1.3-5.2-5.3-9.1-10-9.1c-5,0-9.1,4.2-10.2,9.8
	c-1-5.6-5.2-9.8-10.2-9.8c-4.7,0-8.7,3.8-10,9.1c-1.3-5.2-5.3-9.1-10-9.1c-4.7,0-8.7,3.8-10,9.1c-1.3-5.2-5.3-9.1-10-9.1
	s-8.7,3.8-10,9.1c-1.3-5.2-5.3-9.1-10-9.1c-4.7,0-8.7,3.8-10,9.1c-1.3-5.2-5.3-9.1-10-9.1c-4.7,0-8.7,3.8-10,9.1
	c-1.3-5.2-5.3-9.1-10-9.1c-4.7,0-8.7,3.8-10,9.1c-1.3-5.2-5.3-9.1-10-9.1s-8.7,3.8-10,9.1c-1.3-5.2-5.3-9.1-10-9.1s-8.7,3.8-10,9.1
	c-1.3-5.2-5.3-9.1-10-9.1s-8.7,3.8-10,9.1c-1.3-5.2-5.3-9.1-10-9.1s-8.7,3.8-10,9.1c-1.3-5.2-5.3-9.1-10-9.1c-4.7,0-8.7,3.8-10,9.1
	c-1.3-5.2-5.3-9.1-10-9.1c-4.5,0-8.3,3.4-9.7,8.1c-1.5-4.7-5.3-8.1-9.7-8.1c-4.7,0-8.7,3.8-10,9.1c-1.3-5.2-5.3-9.1-10-9.1
	c-4.7,0-8.7,3.8-10,9.1c-1.3-5.2-5.3-9.1-10-9.1s-8.7,3.8-10,9.1c-1.3-5.2-5.3-9.1-10-9.1c-4.7,0-8.7,3.8-10,9.1
	c-1.3-5.2-5.3-9.1-10-9.1c-4.6,0-8.5,3.6-9.9,8.6c-1.4-5-5.3-8.6-9.9-8.6c-4.7,0-8.7,3.8-10,9.1c-1.3-5.2-5.3-9.1-10-9.1
	s-8.7,3.8-10,9.1c-1.3-5.2-5.3-9.1-10-9.1s-8.7,3.8-10,9.1C90,4.1,86,0.3,81.2,0.3s-8.7,3.8-10,9.1C70,4.1,66,0.3,61.2,0.3
	c-4.7,0-8.7,3.8-10,9.1c-1.3-5.2-5.3-9.1-10-9.1c-4.5,0-8.3,3.4-9.7,8.1c-1.5-4.7-5.3-8.1-9.7-8.1c-4.7,0-8.7,3.8-10,9.1
	c-1.3-5.2-5.1-9.1-9.8-9.1C1.2,0.3,1,0.4,0,0.5v21.2h971C971,12.8,971,12.9,971,12.3z M490.8,15.8c0-0.1,0-0.1,0-0.2
	C490.8,15.7,490.8,15.8,490.8,15.8L490.8,15.8z"/>
</svg>
