<?xml version="1.0" encoding="utf-8"?>
<!-- Generator: Adobe Illustrator 17.1.0, SVG Export Plug-In . SVG Version: 6.00 Build 0)  -->
<!DOCTYPE svg PUBLIC "-//W3C//DTD SVG 1.1//EN" "http://www.w3.org/Graphics/SVG/1.1/DTD/svg11.dtd">
<svg version="1.1" id="Capa_1" xmlns="http://www.w3.org/2000/svg" xmlns:xlink="http://www.w3.org/1999/xlink" x="0px" y="0px"
	 viewBox="0 0 395 343" enable-background="new 0 0 395 343" xml:space="preserve">
<g>
	<rect x="238" y="60" fill="#999999" width="157" height="273"/>
	<rect x="237" y="54" fill="#F7A426" width="155" height="276"/>
	<g>
		<g>
			<g>
				<g>
					<path d="M300.9,131.3h65.3c0,0-5.1,29.7-32.6,29.7C306,161,300.9,131.3,300.9,131.3"/>
				</g>
			</g>
		</g>
		<g>
			<g>
				<g>
					<polygon fill="#FFFFFF" points="310.7,135 313.9,142.5 351.1,142.5 355.1,135 					"/>
				</g>
			</g>
		</g>
		<g>
			<g>
				<g>
					<path fill="#F7BDBE" d="M332.9,146.2c0,0-10.9-0.5-10.9,4.6c0,5.1,5,6.5,10.9,6.5c5.9,0,10.9-0.5,10.9-5.6
						C343.8,146.7,340.9,146.2,332.9,146.2"/>
				</g>
			</g>
		</g>
		<g>
			<g>
				<g>
					<path d="M330.9,109.5c0,8.8-7,15.9-15.5,15.9c-8.6,0-15.5-7.1-15.5-15.9c0-8.8,7-12.2,15.5-12.2
						C324,97.3,330.9,100.7,330.9,109.5"/>
				</g>
			</g>
		</g>
		<g>
			<g>
				<g>
					<path fill="#FFFFFF" d="M328.5,109.5c0,7.4-5.9,13.4-13.1,13.4c-7.2,0-13.1-6-13.1-13.4c0-7.4,5.9-9.7,13.1-9.7
						C322.6,99.8,328.5,102.1,328.5,109.5"/>
				</g>
			</g>
		</g>
		<g>
			<g>
				<g>
					<path d="M367.2,109.5c0,8.8-7,15.9-15.5,15.9c-8.6,0-15.5-7.1-15.5-15.9c0-8.8,7-12.2,15.5-12.2
						C360.2,97.3,367.2,100.7,367.2,109.5"/>
				</g>
			</g>
		</g>
		<g>
			<g>
				<g>
					<path fill="#FFFFFF" d="M364.7,109.5c0,7.4-5.9,13.4-13.1,13.4c-7.2,0-13.1-6-13.1-13.4c0-7.4,5.9-9.7,13.1-9.7
						C358.9,99.8,364.7,102.1,364.7,109.5"/>
				</g>
			</g>
		</g>
		<g>
			<g>
				<g>
					<path d="M320.3,113.5c0,2.6-2,4.7-4.6,4.7c-2.5,0-4.6-2.1-4.6-4.7v-4.2c0-2.6,2.1-4.7,4.6-4.7c2.5,0,4.6,2.1,4.6,4.7V113.5z"/>
				</g>
			</g>
		</g>
		<g>
			<g>
				<g>
					<path d="M355.7,113.5c0,2.6-2,4.7-4.6,4.7c-2.5,0-4.6-2.1-4.6-4.7v-4.2c0-2.6,2-4.7,4.6-4.7c2.5,0,4.6,2.1,4.6,4.7V113.5z"/>
				</g>
			</g>
		</g>
	</g>
	<rect x="3" y="126" fill="#999999" width="156" height="201"/>
	<rect y="121" fill="#94D630" width="156" height="203"/>
	<g>
		<g>
			<g>
				<g>
					<path d="M31.7,210.2c0,0,5.6-21,30.9-21c25.3,0,30.1,21,30.1,21s-7.4-15.5-30.5-15.5C39,194.6,31.7,210.2,31.7,210.2"/>
				</g>
			</g>
		</g>
		<g>
			<g>
				<g>
					<path d="M24.7,170c0,0-3.4,2.2-3.4-1.5c0-3.7,2.1-3.5,3.4-3.5h33.5c0,0,1.8-10.1,3.4-10.1c1.6,0,3.6,9.9,3.6,9.9l34.7,0.4
						c0,0,2.5,0.2,2.5,3c0,2.8-3.5,1.1-3.5,1.1s2,19.8-16.1,19.8c-18.1,0-17.1-20.3-17.1-20.3l-6.3,0c0,0,0.4,20.3-18,20.3
						S24.7,170,24.7,170"/>
				</g>
			</g>
		</g>
		<g>
			<g>
				<g>
					<path fill="#FFFFFF" d="M28,168.9c0,0-2.5,17.1,13.7,17.1s13.9-17.1,13.9-17.1H28z"/>
				</g>
			</g>
		</g>
		<g>
			<g>
				<g>
					<path fill="#FFFFFF" d="M96.7,168.9c0,0,1.8,17.1-14.4,17.1c-16.2,0-13.2-17.1-13.2-17.1H96.7z"/>
				</g>
			</g>
		</g>
		<g>
			<g>
				<g>
					<path d="M43.9,171.2c0,1.8-1.5,3.3-3.3,3.3c-1.8,0-3.3-1.5-3.3-3.3v-2.4h6.5V171.2z"/>
				</g>
			</g>
		</g>
		<g>
			<g>
				<g>
					<path d="M85.7,171.2c0,1.8-1.5,3.3-3.3,3.3c-1.8,0-3.3-1.5-3.3-3.3v-2.4h6.5V171.2z"/>
				</g>
			</g>
		</g>
	</g>
	<rect x="124" y="6" fill="#999999" width="155" height="337"/>
	<rect x="119" fill="#19D8F3" width="156" height="340"/>
	<g>
		<g>
			<g>
				<g>
					<path d="M197.2,60.2c0,9.3-7.4,16.8-16.4,16.8c-9.1,0-16.4-7.5-16.4-16.8c0-9.3,7.4-9,16.4-9C189.8,51.2,197.2,50.9,197.2,60.2
						"/>
				</g>
			</g>
		</g>
		<g>
			<g>
				<g>
					<path fill="#FFFFFF" d="M194.6,60.2c0,7.8-6.2,14.2-13.8,14.2c-7.6,0-13.8-6.3-13.8-14.2c0-7.8,6.2-6.3,13.8-6.3
						C188.4,53.9,194.6,52.4,194.6,60.2"/>
				</g>
			</g>
		</g>
		<g>
			<g>
				<g>
					<path d="M235.5,60.2c0,9.3-7.4,16.8-16.4,16.8c-9.1,0-16.4-7.5-16.4-16.8c0-9.3,7.4-16.8,16.4-16.8
						C228.2,43.4,235.5,50.9,235.5,60.2"/>
				</g>
			</g>
		</g>
		<g>
			<g>
				<g>
					<path fill="#FFFFFF" d="M232.9,60.2c0,7.8-6.2,14.2-13.8,14.2c-7.6,0-13.8-6.3-13.8-14.2c0-7.8,6.2-14.2,13.8-14.2
						C226.7,46,232.9,52.4,232.9,60.2"/>
				</g>
			</g>
		</g>
		<g>
			<g>
				<g>
					<path d="M185.9,60.5c0,2.7-2.2,5-4.8,5c-2.7,0-4.8-2.2-4.8-5V56c0-2.7,2.2-5,4.8-5c2.7,0,4.8,2.2,4.8,5V60.5z"/>
				</g>
			</g>
		</g>
		<g>
			<g>
				<g>
					<path d="M223.3,60.5c0,2.7-2.2,5-4.8,5c-2.7,0-4.8-2.2-4.8-5V56c0-2.7,2.2-5,4.8-5c2.7,0,4.8,2.2,4.8,5V60.5z"/>
				</g>
			</g>
		</g>
		<g>
			<g>
				<g>
					<path d="M163,51.2c0,0-2.8,3.8,3.8,3.8c6.7,0,24-1.9,24-1.9s3.4-1-1-1.9C185.6,50.3,166.1,49,163,51.2"/>
				</g>
			</g>
		</g>
		<g>
			<g>
				<g>
					<path d="M170.6,82.2c0,0,6,19.9,28.3,19.9c22.3,0,26.1-19.9,26.1-19.9s-6.5,12.5-27.2,12.5C177.2,94.7,170.6,82.2,170.6,82.2"
						/>
				</g>
			</g>
		</g>
	</g>
</g>
</svg>
