<?xml version="1.0" encoding="utf-8"?>
<!-- Generator: Adobe Illustrator 17.1.0, SVG Export Plug-In . SVG Version: 6.00 Build 0)  -->
<!DOCTYPE svg PUBLIC "-//W3C//DTD SVG 1.1//EN" "http://www.w3.org/Graphics/SVG/1.1/DTD/svg11.dtd">
<svg version="1.1" id="Capa_1" xmlns="http://www.w3.org/2000/svg" xmlns:xlink="http://www.w3.org/1999/xlink" x="0px" y="0px"
	 viewBox="0 0 43.6 43.6" enable-background="new 0 0 43.6 43.6" xml:space="preserve">
<path fill="#B5B5B5" d="M40.9,0H2.7C1.2,0,0,1.2,0,2.7v38.2c0,1.5,1.2,2.7,2.7,2.7h38.2c1.5,0,2.7-1.2,2.7-2.7V2.7
	C43.6,1.2,42.4,0,40.9,0z M21.8,27.3h5.5c1.5,0,2.7,1.2,2.7,2.7c0,1.5-1.2,2.7-2.7,2.7h-5.5c-5.1,0-8.2-4.2-8.2-8.2V13.6
	c0-1.5,1.2-2.7,2.7-2.7c1.5,0,2.7,1.2,2.7,2.7v2.7h8.2c1.5,0,2.7,1.2,2.7,2.7c0,1.5-1.2,2.7-2.7,2.7h-8.2v2.7
	C19.1,25.6,19.8,27.3,21.8,27.3z"/>
</svg>
