<?xml version="1.0" encoding="utf-8"?>
<!-- Generator: Adobe Illustrator 17.1.0, SVG Export Plug-In . SVG Version: 6.00 Build 0)  -->
<!DOCTYPE svg PUBLIC "-//W3C//DTD SVG 1.1//EN" "http://www.w3.org/Graphics/SVG/1.1/DTD/svg11.dtd">
<svg version="1.1" id="Capa_1" xmlns="http://www.w3.org/2000/svg" xmlns:xlink="http://www.w3.org/1999/xlink" x="0px" y="0px"
	 viewBox="0 0 972 22.4" enable-background="new 0 0 972 22.4" xml:space="preserve">
<linearGradient id="SVGID_1_" gradientUnits="userSpaceOnUse" x1="486.0032" y1="10.7962" x2="486.1187" y2="60.7034">
	<stop  offset="0" style="stop-color:#CDCCCC"/>
	<stop  offset="0.5246" style="stop-color:#5F5F5F"/>
	<stop  offset="1" style="stop-color:#000000"/>
</linearGradient>
<path opacity="0.35" fill="url(#SVGID_1_)" d="M0.1,9.9c0,6.9,4.6,12.5,10.4,12.5c4.7,0,8.7-3.9,10-9.1c1.3,5.2,5.2,9,10,9
	s8.7-3.8,10-9.1c1.3,5.2,5.3,9.1,10,9.1s8.7-3.8,10-9.1c1.3,5.2,5.3,9.1,10,9.1s8.7-3.8,10-9.1c1.3,5.2,5.3,9.1,10,9.1
	c4.7,0,8.7-3.8,10-9.1c1.3,5.2,5.3,9.1,10,9.1s8.7-3.8,10-9.1c1.3,5.2,5.3,9.1,10,9.1s8.7-3.8,10-9.1c1.3,5.2,5.3,9.1,10,9.1
	s8.7-3.8,10-9.1c1.3,5.2,5.3,9.1,10,9.1c4.7,0,8.7-3.8,10-9.1c1.3,5.2,5.3,9.1,10,9.1c4.7,0,8.7-3.8,10-9.1c1.3,5.2,5.3,9.1,10,9.1
	s8.7-3.8,10-9.1c1.3,5.2,5.3,9.1,10,9.1c4.5,0,8.3-3.4,9.7-8.1c1.5,4.7,5.3,8.1,9.7,8.1c4.7,0,8.7-3.8,10-9.1
	c1.3,5.2,5.3,9.1,10,9.1c4.7,0,8.7-3.8,10-9.1c1.3,5.2,5.3,9.1,10,9.1s8.7-3.8,10-9.1c1.3,5.2,5.3,9.1,10,9.1s8.7-3.8,10-9.1
	c1.3,5.2,5.3,9.1,10,9.1s8.7-3.8,10-9.1c1.3,5.2,5.3,9.1,10,9.1s8.7-3.8,10-9.1c1.3,5.2,5.3,9.1,10,9.1s8.7-3.8,10-9.1
	c1.3,5.2,5.3,9.1,10,9.1s8.7-3.8,10-9.1c1.3,5.2,5.3,9.1,10,9.1s8.7-3.8,10-9.1c1.3,5.2,5.3,9.1,10,9.1s8.7-3.8,10-9.1
	c1.3,5.2,5.3,9.1,10,9.1c4.7,0,8.7-3.8,10-9.1c1.3,5.2,5.3,9.1,10,9.1c5,0,9.1-4.2,10.2-9.8c1,5.6,5.2,9.8,10.2,9.8
	c4.7,0,8.7-3.8,10-9.1c1.3,5.2,5.3,9.1,10,9.1c4.7,0,8.7-3.8,10-9.1c1.3,5.2,5.3,9.1,10,9.1c4.7,0,8.7-3.8,10-9.1
	c1.3,5.2,5.3,9.1,10,9.1c4.7,0,8.7-3.8,10-9.1c1.3,5.2,5.3,9.1,10,9.1c4.7,0,8.7-3.8,10-9.1c1.3,5.2,5.3,9.1,10,9.1
	c4.7,0,8.7-3.8,10-9.1c1.3,5.2,5.3,9.1,10,9.1c4.7,0,8.7-3.8,10-9.1c1.3,5.2,5.3,9.1,10,9.1c4.7,0,8.7-3.8,10-9.1
	c1.3,5.2,5.3,9.1,10,9.1c4.7,0,8.7-3.8,10-9.1c1.3,5.2,5.3,9.1,10,9.1c4.7,0,8.7-3.8,10-9.1c1.3,5.2,5.3,9.1,10,9.1s8.7-3.8,10-9.1
	c1.3,5.2,5.3,9.1,10,9.1c4.5,0,8.3-3.4,9.7-8.1c1.5,4.7,5.3,8.1,9.7,8.1c4.7,0,8.7-3.8,10-9.1c1.3,5.2,5.3,9.1,10,9.1
	c4.7,0,8.7-3.8,10-9.1c1.3,5.2,5.3,9.1,10,9.1c4.7,0,8.7-3.8,10-9.1c1.3,5.2,5.3,9.1,10,9.1c4.7,0,8.7-3.8,10-9.1
	c1.3,5.2,5.3,9.1,10,9.1c4.6,0,8.5-3.6,9.9-8.6c1.4,5,5.3,8.6,9.9,8.6c4.7,0,8.7-3.8,10-9.1c1.3,5.2,5.3,9.1,10,9.1
	c4.7,0,8.7-3.8,10-9.1c1.3,5.2,5.3,9.1,10,9.1c4.7,0,8.7-3.8,10-9.1c1.3,5.2,5.3,9.1,10,9.1c4.7,0,8.7-3.8,10-9.1
	c1.3,5.2,5.3,9.1,10,9.1c4.7,0,8.7-3.8,10-9.1c1.3,5.2,5.3,9.1,10,9.1c4.5,0,8.3-3.4,9.7-8.1c1.5,4.7,5.3,8.1,9.7,8.1
	c4.7,0,8.7-3.8,10-9.1c1.3,5.2,5.6,9.1,10.3,9.1c0.7,0,1.3-0.1,2.3-0.2V0H0C0,9,0.1,9.3,0.1,9.9z M480.3,6.7c0,0.1,0,0.1,0,0.2
	C480.2,6.9,480.2,6.8,480.3,6.7L480.3,6.7z"/>
</svg>
